<?xml version="1.0" encoding="UTF-8"?>
<svg width="107px" height="71px" viewBox="0 0 107 71" version="1.1" xmlns="http://www.w3.org/2000/svg" xmlns:xlink="http://www.w3.org/1999/xlink">
    <!-- Generator: Sketch 55.1 (78136) - https://sketchapp.com -->
    <title>Combined Shape</title>
    <desc>Created with Sketch.</desc>
    <g id="System" stroke="none" stroke-width="1" fill="none" fill-rule="evenodd">
        <g id="assets" fill="#F8E71C">
            <g id="Logo">
                <path d="M10,0 L10,53 L0,53 L0,0 L10,0 Z M21,0 L36.7544236,0 C42.7636944,0 46.6470119,0.953523238 49.2118826,3.01949025 C52.2156706,5.48275862 53.9018591,9.53523238 53.9018591,14.2233883 C53.9018591,17.8785607 52.8757414,20.898051 50.823506,23.2818591 C49.4313413,24.7916042 48.3323531,25.5067466 45.694612,26.4602699 C48.6255296,27.1754123 49.9448238,27.8110945 51.4835767,29.3208396 C53.7544236,31.5457271 55,34.8035982 55,38.856072 C55,43.7826087 53.0952001,48.1529235 49.9448238,50.4572714 C47.3799531,52.2848576 44.3753177,53 39.0261177,53 L21,53 L21,0 Z M31.0391766,8.26386807 L31.0391766,22.4872564 L35.0690824,22.4872564 C41.0046354,22.4872564 43.7889648,20.1829085 43.7889648,15.2563718 C43.7889648,12.5547226 42.6171061,10.2503748 40.8580472,9.29685157 C39.4658825,8.58170915 37.4144943,8.26386807 34.5564472,8.26386807 L31.0391766,8.26386807 Z M31.0391766,30.5922039 L31.0391766,44.9745127 L35.9486119,44.9745127 C39.393012,44.9745127 41.0046354,44.6566717 42.4696705,43.5442279 C44.0821413,42.3523238 44.8879529,40.4452774 44.8879529,37.9025487 C44.8879529,35.041979 43.935553,33.0554723 42.1036236,31.8635682 C40.5648707,30.910045 39.0261177,30.5922039 35.3622589,30.5922039 L31.0391766,30.5922039 Z M80.4729835,12.9392549 L73.498724,34.714808 L87.3726706,34.714808 L80.4729835,12.9392549 Z M70.8739467,43.5519456 L67.8737057,52.6241135 L57,52.6241135 L74.2487842,0 L87.0726465,0 L100,41.3475177 L93.027027,53 L90.0720204,43.5519456 L70.8739467,43.5519456 Z M93,59 L107,65 L93,71 L93,59 Z" id="Combined-Shape"></path>
            </g>
        </g>
    </g>
</svg>