<?xml version="1.0" encoding="UTF-8"?>
<svg width="1350px" height="270px" viewBox="0 0 1350 270" version="1.1" xmlns="http://www.w3.org/2000/svg" xmlns:xlink="http://www.w3.org/1999/xlink">
    <!-- Generator: Sketch 55.2 (78181) - https://sketchapp.com -->
    <title>lab</title>
    <desc>Created with Sketch.</desc>
    <g id="lab" stroke="none" stroke-width="1" fill="none" fill-rule="evenodd">
        <path d="M41.0730073,167.116942 L107.92907,167.116942 L107.92907,201 L0,201 L0,1 L41.0730073,1 L41.0730073,167.116942 Z M267.887587,166.517241 L191.138026,166.517241 L179.145907,201 L135.674476,201 L204.62916,1 L255.895468,1 L324.250546,201 L279.2801,201 L267.887587,166.517241 Z M257.09468,132.934033 L229.512807,50.1754123 L201.63113,132.934033 L257.09468,132.934033 Z M358.891421,1 L423.34906,1 C447.932904,1 463.822461,4.5982009 474.315565,12.3943028 C486.607487,21.6896552 493.502955,36.982009 493.502955,54.6731634 C493.502955,68.4662669 489.305714,79.8605697 480.911231,88.856072 C475.214974,94.5532234 470.717929,97.2518741 459.925022,100.850075 C471.917141,103.548726 477.313595,105.947526 483.609457,111.644678 C492.903349,120.04048 498,132.334333 498,147.626687 C498,166.217391 490.205123,182.709145 477.313595,191.404798 C466.820491,198.301349 454.528569,201 432.642952,201 L358.891421,201 L358.891421,1 Z M399.964428,32.1844078 L399.964428,85.8575712 L416.453591,85.8575712 C440.737632,85.8575712 452.130145,77.161919 452.130145,58.5712144 C452.130145,48.3763118 447.333298,39.6806597 440.138026,36.0824588 C434.44177,33.3838081 426.047287,32.1844078 414.354971,32.1844078 L399.964428,32.1844078 Z M399.964428,116.442279 L399.964428,170.715142 L420.051227,170.715142 C434.141967,170.715142 440.737632,169.515742 446.733692,165.317841 C453.329357,160.82009 456.62719,153.623688 456.62719,144.028486 C456.62719,133.233883 452.729751,125.737631 445.234677,121.23988 C438.938814,117.641679 432.642952,116.442279 417.652803,116.442279 L399.964428,116.442279 Z" id="LAB" fill="#F8E71C" fill-rule="nonzero"></path>
    </g>
</svg>