<?xml version="1.0" encoding="UTF-8"?>
<svg width="1350px" height="270px" viewBox="0 0 1350 270" version="1.1" xmlns="http://www.w3.org/2000/svg" xmlns:xlink="http://www.w3.org/1999/xlink">
    <!-- Generator: Sketch 55.2 (78181) - https://sketchapp.com -->
    <title>logbuch</title>
    <desc>Created with Sketch.</desc>
    <g id="logbuch" stroke="none" stroke-width="1" fill="none" fill-rule="evenodd">
        <path d="M41.1081013,167.323661 L108.021288,167.323661 L108.021288,201.248884 L0,201.248884 L0,1 L41.1081013,1 L41.1081013,167.323661 Z M204.603962,57.4419643 C248.412595,57.4419643 279.918804,89.265625 279.918804,133.098214 C279.918804,173.928571 246.612241,206.052455 204.003844,206.052455 C160.19521,206.052455 128.689001,175.129464 128.689001,131.897321 C128.689001,87.7645089 159.595092,57.4419643 204.603962,57.4419643 Z M204.603962,91.6674107 C182.099527,91.6674107 167.09657,107.579241 167.09657,131.897321 C167.09657,155.915179 182.099527,172.127232 204.303903,172.127232 C226.20822,172.127232 241.511235,155.614955 241.511235,132.497768 C241.511235,107.279018 227.408456,91.6674107 204.603962,91.6674107 Z M418.209698,79.3582589 L418.209698,62.2455357 L455.71709,62.2455357 L455.71709,191.041295 C455.71709,219.5625 450.316025,236.074777 437.113423,248.984375 C423.610762,262.49442 403.206741,270 379.50207,270 C352.496748,270 330.292372,260.993304 311.388646,242.379464 L335.093318,218.361607 C347.395742,231.571429 360.598344,237.575893 378.001774,237.575893 C403.5068,237.575893 418.209698,222.564732 418.209698,196.445313 L418.209698,182.334821 C405.607214,198.246652 389.404021,206.052455 369.300059,206.052455 C331.192549,206.052455 303.587109,175.129464 303.587109,132.797991 C303.587109,87.7645089 331.492608,57.4419643 373.200828,57.4419643 C392.704672,57.4419643 406.207333,64.046875 418.209698,79.3582589 Z M381.302424,91.3671875 C359.398108,91.3671875 344.095092,107.879464 344.095092,130.996652 C344.095092,155.014509 359.698167,172.127232 381.602484,172.127232 C392.704672,172.127232 403.5068,167.323661 410.40816,159.217634 C414.909047,153.813616 417.60958,145.107143 417.60958,134.59933 C417.60958,119.58817 414.308929,109.38058 407.407569,102.175223 C400.506209,95.5703125 390.904317,91.3671875 381.302424,91.3671875 Z M502.189888,1 L566.702602,1 C591.307451,1 607.210585,4.60267857 617.712655,12.4084821 C630.015079,21.7154018 636.916439,37.0267857 636.916439,54.7399554 C636.916439,68.5502232 632.715611,79.9587054 624.313956,88.9654018 C618.612832,94.6696429 614.111945,97.3716518 603.309816,100.97433 C615.312182,103.676339 620.713246,106.078125 627.014488,111.782366 C636.316321,120.188616 641.417326,132.497768 641.417326,147.809152 C641.417326,166.422991 633.615789,182.935268 620.713246,191.641741 C610.211176,198.546875 597.908752,201.248884 576.004435,201.248884 L502.189888,201.248884 L502.189888,1 Z M543.297989,32.2232143 L543.297989,85.9631696 L559.801242,85.9631696 C584.106032,85.9631696 595.508279,77.2566964 595.508279,58.6428571 C595.508279,48.4352679 590.707333,39.7287946 583.505913,36.1261161 C577.80479,33.4241071 569.403134,32.2232143 557.700828,32.2232143 L543.297989,32.2232143 Z M543.297989,116.585938 L543.297989,170.926339 L563.401951,170.926339 C577.504731,170.926339 584.106032,169.725446 590.107214,165.522321 C596.708515,161.018973 600.009166,153.813616 600.009166,144.206473 C600.009166,133.398438 596.108397,125.892857 588.606919,121.389509 C582.305677,117.78683 576.004435,116.585938 561.001478,116.585938 L543.297989,116.585938 Z M759.304198,62.2455357 L797.411708,62.2455357 L797.411708,150.210938 C797.411708,170.626116 793.210881,182.034598 781.808634,191.641741 C770.706446,200.948661 755.103371,206.052455 736.799763,206.052455 C717.595979,206.052455 701.092727,200.648438 690.290598,190.741071 C680.388646,181.734375 675.5877,168.524554 675.5877,150.210938 L675.5877,62.2455357 L713.69521,62.2455357 L713.69521,147.809152 C713.69521,163.420759 722.997043,173.928571 736.799763,173.928571 C750.902543,173.928571 759.304198,164.921875 759.304198,150.210938 L759.304198,62.2455357 Z M933.902247,160.418527 L957.0068,185.337054 C941.103666,199.747768 924.600414,206.052455 903.596275,206.052455 C861.287937,206.052455 830.081787,174.829241 830.081787,132.497768 C830.081787,88.6651786 860.687818,57.4419643 903.896334,57.4419643 C924.600414,57.4419643 941.703785,64.6473214 959.407273,80.5591518 L933.902247,103.676339 C925.500591,95.2700893 916.498817,91.3671875 905.396629,91.3671875 C884.39249,91.3671875 868.789415,108.479911 868.789415,131.296875 C868.789415,155.014509 884.692549,172.127232 906.896925,172.127232 C916.798876,172.127232 924.000296,169.125 933.902247,160.418527 Z M1023.2835,1 L1023.2835,77.2566964 C1034.98581,63.4464286 1046.38806,57.4419643 1061.39101,57.4419643 C1073.39338,57.4419643 1086.59598,62.5457589 1094.69758,70.3515625 C1103.69935,78.7578125 1107,89.5658482 1107,109.680804 L1107,201.248884 L1068.89249,201.248884 L1068.89249,115.084821 C1068.89249,99.4732143 1060.79089,89.5658482 1048.18841,89.5658482 C1041.58711,89.5658482 1035.58593,91.9676339 1031.08504,96.4709821 C1025.08386,102.175223 1023.2835,107.579241 1023.2835,118.387277 L1023.2835,201.248884 L985.175992,201.248884 L985.175992,1 L1023.2835,1 Z" id="LogBuch" fill="#F8E71C" fill-rule="nonzero"></path>
    </g>
</svg>