<?xml version="1.0" encoding="UTF-8"?>
<svg width="1350px" height="270px" viewBox="0 0 1350 270" version="1.1" xmlns="http://www.w3.org/2000/svg" xmlns:xlink="http://www.w3.org/1999/xlink">
    <!-- Generator: Sketch 55.2 (78181) - https://sketchapp.com -->
    <title>magazin</title>
    <desc>Created with Sketch.</desc>
    <g id="magazin" stroke="none" stroke-width="1" fill="none" fill-rule="evenodd">
        <path d="M41.1,79.2 L41.1,204 L0,204 L0,3.9 L46.5,3.9 L106.2,125.4 L166.2,3.9 L212.7,3.9 L212.7,204 L171.6,204 L171.6,79.2 L106.2,210 L41.1,79.2 Z M379.96364,169.5 L303.16364,169.5 L291.16364,204 L247.66364,204 L316.66364,3.9 L367.96364,3.9 L436.36364,204 L391.36364,204 L379.96364,169.5 Z M369.16364,135.9 L341.56364,53.1 L313.66364,135.9 L369.16364,135.9 Z M561.62728,91.8 L661.82728,91.8 L661.82728,102.6 C661.82728,133.5 652.82728,156.6 632.72728,177 C612.62728,197.1 587.12728,207.9 558.92728,207.9 C500.12728,207.9 456.02728,163.5 456.02728,104.4 C456.02728,44.7 499.82728,0 558.62728,0 C591.02728,0 620.12728,13.8 639.62728,38.4 L608.72728,62.7 C594.02728,45.3 579.32728,37.8 559.52728,37.8 C524.42728,37.8 497.72728,66.6 497.72728,104.4 C497.72728,141.6 525.32728,170.7 560.42728,170.7 C577.52728,170.7 594.62728,163.2 605.12728,150.6 C611.12728,143.7 614.12728,137.4 617.42728,125.4 L561.62728,125.4 L561.62728,91.8 Z M810.49092,169.5 L733.69092,169.5 L721.69092,204 L678.19092,204 L747.19092,3.9 L798.49092,3.9 L866.89092,204 L821.89092,204 L810.49092,169.5 Z M799.69092,135.9 L772.09092,53.1 L744.19092,135.9 L799.69092,135.9 Z M957.65456,170.4 L1041.95456,170.4 L1041.95456,204 L893.15456,204 L986.75456,37.5 L903.65456,37.5 L903.65456,3.9 L1050.95456,3.9 L957.65456,170.4 Z M1129.1182,3.9 L1129.1182,204 L1088.0182,204 L1088.0182,3.9 L1129.1182,3.9 Z M1225.28184,77.4 L1225.28184,204 L1184.18184,204 L1184.18184,3.9 L1224.68184,3.9 L1308.38184,128.7 L1308.38184,3.9 L1349.48184,3.9 L1349.48184,204 L1309.28184,204 L1225.28184,77.4 Z" id="MAGAZIN" fill="#F8E71C" fill-rule="nonzero"></path>
    </g>
</svg>