<?xml version="1.0" encoding="UTF-8"?>
<svg width="1350px" height="270px" viewBox="0 0 1350 270" version="1.1" xmlns="http://www.w3.org/2000/svg" xmlns:xlink="http://www.w3.org/1999/xlink">
    <!-- Generator: Sketch 55.2 (78181) - https://sketchapp.com -->
    <title>summit</title>
    <desc>Created with Sketch.</desc>
    <g id="summit" stroke="none" stroke-width="1" fill="none" fill-rule="evenodd">
        <path d="M0.00258918243,145.5 L39.9194426,145.5 L39.9194426,148.2 C39.9194426,161.7 51.6243846,171.6 67.2309739,171.6 C82.2373098,171.6 93.642125,162.3 93.642125,150.3 C93.642125,144 90.6408579,138.3 85.5387037,134.4 C80.4365495,130.5 76.8350288,129 61.2284395,123.3 C17.4099388,107.7 1.80334949,91.2 1.80334949,60.6 C1.80334949,24.3 28.5146273,0 67.8312273,0 C106.847701,0 132.058345,22.8 135.359739,61.2 L93.9422517,61.2 C92.4416182,44.4 84.0380701,36.3 67.8312273,36.3 C53.1250182,36.3 43.2208365,44.7 43.2208365,57.3 C43.2208365,65.4 47.4226105,71.7 55.5260319,76.2 C60.9283128,79.2 64.2297067,80.7 78.9359159,86.1 C100.845166,94.2 111.949855,99.9 120.65353,108.3 C131.157965,118.2 136.560246,131.7 136.560246,147 C136.560246,183.6 108.948588,207.9 67.5311006,207.9 C25.5133602,207.9 -0.297537535,183.9 0.00258918243,145.5 Z M219.558929,3.9 L219.558929,121.2 C219.558929,139.8 221.959942,150 228.56273,157.8 C234.565265,165.3 245.369826,170.1 256.474515,170.1 C268.179457,170.1 279.584272,164.7 285.586807,156.3 C291.589341,148.2 293.390101,139.5 293.390101,120.9 L293.390101,3.9 L334.807588,3.9 L334.807588,119.7 C334.807588,149.1 328.504927,169.5 314.999225,184.5 C301.493523,199.5 280.484652,207.9 257.074768,207.9 C232.764504,207.9 210.555127,198.9 196.449172,183 C183.543723,168.6 178.441568,150.6 178.441568,119.7 L178.441568,3.9 L219.558929,3.9 Z M428.01058,79.2 L428.01058,204 L386.893219,204 L386.893219,3.9 L433.412861,3.9 L493.138077,125.4 L553.163421,3.9 L599.683062,3.9 L599.683062,204 L558.565702,204 L558.565702,79.2 L493.138077,210 L428.01058,79.2 Z M695.887321,79.2 L695.887321,204 L654.769961,204 L654.769961,3.9 L701.289602,3.9 L761.014819,125.4 L821.040162,3.9 L867.559803,3.9 L867.559803,204 L826.442443,204 L826.442443,79.2 L761.014819,210 L695.887321,79.2 Z M963.764062,3.9 L963.764062,204 L922.646702,204 L922.646702,3.9 L963.764062,3.9 Z M1087.57998,37.5 L1087.57998,204 L1046.46262,204 L1046.46262,37.5 L998.74247,37.5 L998.74247,3.9 L1135,3.9 L1135,37.5 L1087.57998,37.5 Z" id="SUMMIT" fill="#F8E71C" fill-rule="nonzero"></path>
    </g>
</svg>