<?xml version="1.0" encoding="UTF-8"?>
<svg width="1196px" height="269px" viewBox="0 0 1196 269" version="1.1" xmlns="http://www.w3.org/2000/svg" xmlns:xlink="http://www.w3.org/1999/xlink">
    <!-- Generator: Sketch 55.1 (78136) - https://sketchapp.com -->
    <title>Magazin</title>
    <desc>Created with Sketch.</desc>
    <g id="Pages-Complete-1280" stroke="none" stroke-width="1" fill="none" fill-rule="evenodd">
        <g id="Artboard" fill="#F8E71C" fill-rule="nonzero">
            <path d="M41.1,75.3 L41.1,200.1 L9.09494702e-13,200.1 L9.09494702e-13,-2.84217094e-14 L46.5,-2.84217094e-14 L106.2,121.5 L166.2,-2.84217094e-14 L212.7,-2.84217094e-14 L212.7,200.1 L171.6,200.1 L171.6,75.3 L106.2,206.1 L41.1,75.3 Z M372.16364,78.9 L372.16364,61.2 L410.26364,61.2 L410.26364,200.1 L372.16364,200.1 L372.16364,180.9 C359.26364,197.4 344.26364,204.9 323.86364,204.9 C284.86364,204.9 256.96364,174.6 256.96364,132.3 C256.96364,88.5 286.36364,56.4 326.86364,56.4 C345.76364,56.4 358.66364,63 372.16364,78.9 Z M334.66364,88.5 C313.06364,88.5 297.76364,106.2 297.76364,131.7 C297.76364,156 313.66364,174.3 334.36364,174.3 C355.66364,174.3 372.76364,154.5 372.76364,130.5 C372.76364,105.9 357.16364,88.5 334.66364,88.5 Z M564.62728,78.3 L564.62728,61.2 L602.12728,61.2 L602.12728,189.9 C602.12728,218.4 596.72728,234.9 583.52728,247.8 C570.02728,261.3 549.62728,268.8 525.92728,268.8 C498.92728,268.8 476.72728,259.8 457.82728,241.2 L481.52728,217.2 C493.82728,230.4 507.02728,236.4 524.42728,236.4 C549.92728,236.4 564.62728,221.4 564.62728,195.3 L564.62728,181.2 C552.02728,197.1 535.82728,204.9 515.72728,204.9 C477.62728,204.9 450.02728,174 450.02728,131.7 C450.02728,86.7 477.92728,56.4 519.62728,56.4 C539.12728,56.4 552.62728,63 564.62728,78.3 Z M527.72728,90.3 C505.82728,90.3 490.52728,106.8 490.52728,129.9 C490.52728,153.9 506.12728,171 528.02728,171 C539.12728,171 549.92728,166.2 556.82728,158.1 C561.32728,152.7 564.02728,144 564.02728,133.5 C564.02728,118.5 560.72728,108.3 553.82728,101.1 C546.92728,94.5 537.32728,90.3 527.72728,90.3 Z M759.19092,78.9 L759.19092,61.2 L797.29092,61.2 L797.29092,200.1 L759.19092,200.1 L759.19092,180.9 C746.29092,197.4 731.29092,204.9 710.89092,204.9 C671.89092,204.9 643.99092,174.6 643.99092,132.3 C643.99092,88.5 673.39092,56.4 713.89092,56.4 C732.79092,56.4 745.69092,63 759.19092,78.9 Z M721.69092,88.5 C700.09092,88.5 684.79092,106.2 684.79092,131.7 C684.79092,156 700.69092,174.3 721.39092,174.3 C742.69092,174.3 759.79092,154.5 759.79092,130.5 C759.79092,105.9 744.19092,88.5 721.69092,88.5 Z M891.35456,168 L945.05456,168 L945.05456,200.1 L831.35456,200.1 L889.85456,93.3 L836.75456,93.3 L836.75456,61.2 L949.25456,61.2 L891.35456,168 Z M1022.3182,61.2 L1022.3182,200.1 L984.2182,200.1 L984.2182,61.2 L1022.3182,61.2 Z M1003.4182,0.3 C1015.7182,0.3 1024.4182,9.3 1024.4182,21.9 C1024.4182,33.6 1015.4182,42.6 1003.4182,42.6 C991.1182,42.6 982.1182,33.6 982.1182,21.6 C982.1182,9.3 991.1182,0.3 1003.4182,0.3 Z M1073.48184,61.2 L1111.58184,61.2 L1111.58184,78.3 C1121.78184,62.4 1131.98184,56.4 1149.38184,56.4 C1162.58184,56.4 1175.18184,61.2 1183.58184,69.3 C1192.58184,78.3 1195.88184,89.4 1195.88184,112.2 L1195.88184,200.1 L1157.78184,200.1 L1157.78184,114 C1157.78184,106.2 1156.88184,101.7 1154.48184,97.8 C1150.88184,92.1 1143.68184,88.5 1136.18184,88.5 C1121.48184,88.5 1111.58184,99.6 1111.58184,115.8 L1111.58184,200.1 L1073.48184,200.1 L1073.48184,61.2 Z" id="Magazin"></path>
        </g>
    </g>
</svg>