<?xml version="1.0" standalone="no"?>
<!DOCTYPE svg PUBLIC "-//W3C//DTD SVG 1.1//EN" "http://www.w3.org/Graphics/SVG/1.1/DTD/svg11.dtd">
<svg xmlns="http://www.w3.org/2000/svg"><metadata>This SVG WebFont was generated by YouWorkForThem.
Copyright 2010 URW++ Design &amp; Development</metadata><defs><font horiz-adv-x="1024" id="ywftsvg"><font-face ascent="1366" bbox="-383 -512 1929 1755" cap-height="1366" descent="-682" font-family="" font-stretch="normal" font-weight="300" panose-1="0 0 4 0 0 0 0 0 0 0" underline-position="0" underline-thickness="0" unicode-range="U+0020-FB04" units-per-em="2048" x-height="942"/><missing-glyph horiz-adv-x="614"/><glyph d="M848 846v-846h-103v846h-141v96h141v166q0 124 63 192t163 68q20 0 37 -2v-86q-84 -12 -109 -31q-51 -33 -51 -141v-166h160v-96h-160zM287 846v-846h-103v846h-141v96h141v166q0 124 63 192t163 68q20 0 36 -2v-86q-84 -12 -108 -31q-51 -33 -51 -141v-166h159v-96h-159 z" glyph-name="uniFB00" horiz-adv-x="1062" unicode="ff"/><glyph d="M784 1282q33 0 55 -22q21 -22 21 -55t-22 -55t-55 -22t-55 23t-22 55t23 54q22 22 55 22zM834 942v-942h-103v942h103zM287 846v-846h-103v846h-141v96h141v166q0 124 63 192t163 68q20 0 36 -2v-86q-84 -12 -108 -31q-51 -33 -51 -141v-166h159v-96h-159z" glyph-name="uniFB01" horiz-adv-x="1005" unicode="fi"/><glyph d="M834 0h-103v1366h103v-1366zM287 846v-846h-103v846h-141v96h141v166q0 124 63 192t163 68q20 0 36 -2v-86q-84 -12 -108 -31q-51 -33 -51 -141v-166h159v-96h-159z" glyph-name="uniFB02" horiz-adv-x="1005" unicode="fl"/><glyph d="M1343 1282q33 0 55 -22t22 -55t-24 -55q-22 -22 -54 -22t-54 23t-22 55t22 54t55 22zM1393 942v-942h-103v942h103zM846 846v-846h-103v846h-141v96h141v166q0 124 63 192t163 68q20 0 37 -2v-86q-84 -12 -109 -31q-51 -33 -51 -141v-166h160v-96h-160zM285 846v-846 h-103v846h-141v96h141v166q0 124 63 192t163 68q20 0 36 -2v-86q-84 -12 -108 -31q-51 -33 -51 -141v-166h159v-96h-159z" glyph-name="uniFB03" horiz-adv-x="1562" unicode="ffi"/><glyph d="M1395 0h-103v1366h103v-1366zM848 846v-846h-103v846h-141v96h141v166q0 124 63 192t163 68q20 0 37 -2v-86q-84 -12 -109 -31q-51 -33 -51 -141v-166h160v-96h-160zM287 846v-846h-103v846h-141v96h141v166q0 124 63 192t163 68q20 0 36 -2v-86q-84 -12 -108 -31 q-51 -33 -51 -141v-166h159v-96h-159z" glyph-name="uniFB04" horiz-adv-x="1566" unicode="ffl"/><glyph glyph-name=".notdef" horiz-adv-x="614"/><glyph glyph-name="glyph1" horiz-adv-x="0"/><glyph glyph-name="glyph2" horiz-adv-x="681"/><glyph glyph-name="space" horiz-adv-x="614" unicode=" "/><glyph d="M249 158q35 0 59 -25t24 -61t-25 -59t-59 -23t-60 24q-24 24 -24 61q0 35 24 59t61 24zM301 1366v-1085h-106v1085h106z" glyph-name="exclam" horiz-adv-x="495" unicode="!"/><glyph d="M477 819h-86l-14 547h117zM215 819h-86l-14 547h114z" glyph-name="quotedbl" horiz-adv-x="606" unicode="&quot;"/><glyph d="M633 788h-191l-30 -208h192zM891 586v-84h-217l-62 -447h-86l62 447h-182l-62 -447h-88l61 447h-229v84h240l28 198h-221v86h234l57 414h90l-57 -414h180l59 414h84l-57 -414h209v-86h-221l-27 -198h205z" glyph-name="numbersign" unicode="#"/><glyph d="M784 340q0 180 -252 274v-516q88 6 146 43q106 70 106 199zM455 762v461q-111 -13 -169 -71t-59 -151q1 -169 228 -239zM889 346q0 -143 -95 -236t-262 -110v-197h-77v197q-119 8 -203 66q-137 94 -137 243q0 29 2 45h92l2 -18v-25q10 -84 82 -147t162 -66v551 q-137 51 -197 92q-59 41 -96 111t-37 150t41 153q41 74 110 117q70 39 179 57v148h77v-148q150 -16 240 -109t88 -225h-100q-19 195 -228 228v-494q145 -57 210 -100t106 -120t41 -163z" glyph-name="dollar" unicode="$"/><glyph d="M1098 1337l-957 -1349l-59 43l954 1347zM760 434v-190q0 -68 3 -88t17 -39q33 -47 105 -47t104 53q16 31 17 110v224q0 150 -119 149q-70 0 -103 -39q-16 -19 -20 -41t-4 -92zM1073 211q0 -211 -184 -211q-108 0 -160 63q-27 31 -32 53t-5 97v223q0 135 49 187 q49 53 141 53t144 -53q33 -31 40 -61t7 -126v-225zM174 1122v-190q0 -68 3 -88t18 -39q33 -47 105 -47t103 53q16 31 17 111v223q0 150 -119 149q-70 0 -102 -39q-17 -19 -21 -41t-4 -92zM487 1124v-225q0 -92 -28 -137q-47 -74 -155 -74t-161 64q-27 30 -31 52t-6 97v223 q0 136 50 188t140 52q91 0 144 -53q33 -31 40 -61t7 -126z" glyph-name="percent" horiz-adv-x="1179" unicode="%"/><glyph d="M199 338q0 -98 79 -180q79 -80 184 -80t187 65q41 33 154 150l-311 418q-29 -20 -41 -29q-154 -100 -199 -164q-53 -82 -53 -180zM694 1052q0 62 -37 98t-101 36t-104 -37q-38 -37 -38 -105t67 -155q4 -6 37 -51q108 70 142 110q34 42 34 104zM475 -20q-159 0 -269 112 t-110 273q0 125 73 214t267 207q-82 111 -104 157q-23 46 -23 106q0 99 73 167t175 68t172 -66t70 -153q0 -86 -39 -144t-131 -122l-56 -37l291 -404q72 78 191 199l69 -68q-107 -102 -209 -208l209 -281h-106l-154 215q-133 -141 -212 -188t-177 -47z" glyph-name="ampersand" horiz-adv-x="1179" unicode="&amp;"/><glyph d="M217 819h-88l-14 547h118z" glyph-name="quotesingle" horiz-adv-x="346" unicode="'"/><glyph d="M520 -412l-65 -71q-359 412 -359 940t359 940l65 -74q-324 -389 -323 -870q-1 -233 85 -463t238 -402z" glyph-name="parenleft" horiz-adv-x="587" unicode="("/><glyph d="M68 1325l63 72q361 -411 361 -941t-361 -939l-63 73q324 389 323 869q1 233 -85 463t-238 403z" glyph-name="parenright" horiz-adv-x="587" unicode=")"/><glyph d="M397 1362h76v-254l256 74l23 -74l-256 -80l151 -209l-55 -45l-158 211l-158 -211l-59 45l158 209l-252 80l22 74l252 -74v254z" glyph-name="asterisk" horiz-adv-x="874" unicode="*"/><glyph d="M55 719h422v389h68v-389h422v-66h-422v-391h-68v391h-422v66z" glyph-name="plus" unicode="+"/><glyph d="M305 129l-219 -483l-80 32l201 492z" glyph-name="comma" horiz-adv-x="440" unicode=","/><glyph d="M410 543v-97h-410v97h410z" glyph-name="hyphen" horiz-adv-x="409" unicode="-"/><glyph d="M137 75q1 35 25 59t60 24t60 -25t24 -61t-26 -59q-24 -23 -59 -23t-59 24t-25 61z" glyph-name="period" horiz-adv-x="440" unicode="."/><glyph d="M721 1366l-690 -1817h-109l690 1817h109z" glyph-name="slash" horiz-adv-x="811" unicode="/"/><glyph d="M227 899v-453q1 -135 11 -182t51 -92q83 -88 231 -88t225 100q51 72 52 226v544q0 154 -84 232q-82 72 -201 71q-160 0 -236 -114q-29 -43 -39 -93t-10 -151zM905 958v-548q0 -215 -88 -312q-109 -118 -309 -118t-307 120q-49 55 -66 124q-16 69 -16 222v457 q0 137 15 206t61 126q97 127 299 127t313 -100q55 -53 77 -119t21 -185z" glyph-name="zero" unicode="0"/><glyph d="M664 0h-109v1169l-330 -235v110l439 322v-1366z" glyph-name="one" unicode="1"/><glyph d="M508 1264q-242 0 -248 -271h-110q25 371 366 371q160 0 261 -91t102 -235q0 -84 -33 -160t-115 -190l-424 -579h531v-109h-734l476 655q111 154 149 233q39 79 39 146q0 100 -73 165t-187 65z" glyph-name="two" unicode="2"/><glyph d="M164 1229v108h745l-415 -512q16 2 38 2q162 1 276 -119t114 -300t-128 -304t-323 -124q-153 0 -261 76t-149 214l103 35q80 -221 297 -221q143 0 244 94q100 94 100 232t-96 226q-96 87 -254 87q-92 0 -185 -55l-22 26l436 535h-520z" glyph-name="three" unicode="3"/><glyph d="M653 430v643l-444 -643h444zM653 322h-569v79l678 988v-959h178v-108h-178v-322h-109v322z" glyph-name="four" unicode="4"/><glyph d="M287 1229v-395q109 41 213 40q188 0 310 -124t122 -321q0 -196 -129 -323t-332 -126q-164 0 -281 96q-46 36 -70 70t-50 98l110 39q37 -78 70 -113q82 -86 225 -86t242 100q98 100 98 250t-96 243t-248 93q-88 0 -153 -30t-140 -107v704h537v-108h-428z" glyph-name="five" unicode="5"/><glyph d="M515 723q-132 0 -225 -89t-93 -223q0 -133 92 -231t223 -98t224 95t93 229t-91 225q-91 92 -223 92zM526 821q178 0 298 -118q120 -119 120 -295t-127 -304t-307 -127q-180 0 -305 128t-125 315q0 113 80 242l418 675h135l-351 -551q82 35 164 35z" glyph-name="six" unicode="6"/><glyph d="M186 1229v108h734l-545 -1337h-125l504 1229h-568z" glyph-name="seven" unicode="7"/><glyph d="M514 690q-123 0 -212 -89t-89 -214t88 -215t211 -90t211 90t88 215t-87 214t-210 89zM510 1262q-104 0 -174 -60q-68 -60 -68 -154q0 -95 71 -162t170 -67t174 69q75 68 75 156t-72 153t-176 65zM928 381q0 -174 -118 -289t-300 -115t-298 111t-116 287t115 287 q63 61 178 92q-104 35 -156 88q-77 88 -77 215t102 216t257 89t255 -89t100 -221t-86 -218q-47 -47 -147 -80q115 -29 178 -90q113 -109 113 -283z" glyph-name="eight" unicode="8"/><glyph d="M514 1257q-133 0 -226 -93t-93 -227t91 -227q91 -94 225 -94t224 92t90 227q0 136 -89 229t-222 93zM496 516q-176 0 -296 120t-120 298t128 303t309 125t303 -123t122 -303q0 -127 -68 -238l-419 -698h-138l345 551q-88 -35 -166 -35z" glyph-name="nine" unicode="9"/><glyph d="M137 622q1 36 25 60t60 23q36 0 60 -25t24 -61q0 -35 -26 -59q-24 -24 -59 -24t-59 26q-24 24 -25 60zM137 75q1 35 25 59t60 24t60 -25t24 -61t-26 -59q-24 -23 -59 -23t-59 24t-25 61z" glyph-name="colon" horiz-adv-x="440" unicode=":"/><glyph d="M143 622q1 36 25 60t60 23q36 0 60 -25t24 -61q0 -35 -26 -59q-24 -24 -59 -24t-59 26q-24 24 -25 60zM305 129l-219 -483l-80 32l201 492z" glyph-name="semicolon" horiz-adv-x="440" unicode=";"/><glyph d="M954 1137v-111l-768 -342l768 -342v-109l-886 404v96z" glyph-name="less" unicode="&lt;"/><glyph d="M55 578h912v-66h-912v66zM55 858h912v-65h-912v65z" glyph-name="equal" unicode="="/><glyph d="M70 233v109l768 342l-768 342v111l886 -404v-98z" glyph-name="greater" unicode=">"/><glyph d="M276 75q0 35 24 59t61 24q36 0 60 -25q23 -25 23 -61t-24 -59t-60 -23t-60 24t-24 61zM401 283h-94v141q0 125 31 185q31 61 131 139t135 135t35 155t-67 170t-165 72q-97 0 -163 -60t-66 -149q0 -18 2 -35h-102q0 156 87 248t234 92t247 -99t99 -249q0 -102 -49 -184 q-50 -82 -150 -158t-122 -124q-22 -50 -23 -171v-108z" glyph-name="question" horiz-adv-x="849" unicode="?"/><glyph d="M985 917q0 41 -32 79t-81 38q-104 0 -192 -151q-59 -103 -99 -231t-40 -200q0 -136 108 -137q66 0 125 60t94 162l111 323q6 16 6 57zM829 -27q-289 0 -491 204t-201 496q0 291 202 497t479 206q276 0 460 -168t184 -411q0 -211 -129 -365q-67 -78 -155 -124t-160 -46 t-116 29q-42 29 -52 78q-109 -106 -234 -107q-94 0 -157 75t-64 189q0 219 132 389q133 170 295 170t200 -112l29 86h157l-186 -543q-39 -112 -39 -152t53 -40t140 56q88 56 146 170t58 245q0 205 -162 353t-403 148q-240 0 -418 -181t-178 -440t178 -441t432 -181 q170 0 309 82q138 82 226 234h82q-66 -174 -239 -285t-378 -111z" glyph-name="at" horiz-adv-x="1599" unicode="@"/><glyph d="M895 465l-285 745l-291 -745h576zM936 358h-660l-145 -358h-117l537 1366h127l520 -1366h-129z" glyph-name="A" horiz-adv-x="1212" unicode="A"/><glyph d="M301 631v-527h191q127 0 185 10t111 38q115 66 115 209t-82 206t-258 64h-262zM301 1262v-527h207q164 0 242 58q98 76 98 215q0 160 -130 223q-64 31 -253 31h-164zM184 1366h359q193 0 303 -97t110 -263q0 -133 -73 -218q-43 -51 -140 -92q100 -18 154 -59 q121 -91 121 -281t-152 -286q-63 -38 -140 -54t-216 -16h-326v1366z" glyph-name="B" horiz-adv-x="1105" unicode="B"/><glyph d="M96 684q0 303 182 505t470 202t483 -244l-86 -70q-74 82 -133 123q-123 84 -275 84q-225 0 -372 -172t-147 -432t149 -429q150 -169 376 -169q121 0 217 50t185 163l86 -76q-178 -244 -479 -244q-300 0 -478 203t-178 506z" glyph-name="C" horiz-adv-x="1286" unicode="C"/><glyph d="M301 1262v-1158h64q207 0 306 22t179 85q201 152 201 500q-1 268 -135 409t-388 142h-227zM184 0v1366h351q291 0 463 -177t171 -495q0 -318 -182 -506t-508 -188h-295z" glyph-name="D" horiz-adv-x="1265" unicode="D"/><glyph d="M301 1262v-519h569v-104h-569v-535h569v-104h-686v1366h686v-104h-569z" glyph-name="E" horiz-adv-x="978" unicode="E"/><glyph d="M301 1262v-519h561v-104h-561v-639h-117v1366h678v-104h-561z" glyph-name="F" horiz-adv-x="923" unicode="F"/><glyph d="M748 725h634v-84q0 -186 -78 -337q-78 -152 -224 -240t-326 -89q-287 0 -472 199q-186 199 -186 509t184 509t480 199q295 0 487 -242l-86 -72q-82 88 -119 113q-125 94 -288 94q-229 0 -384 -173t-155 -428t152 -428t376 -173q125 0 246 64t198 178q77 112 83 297h-522 v104z" glyph-name="G" horiz-adv-x="1478" unicode="G"/><glyph d="M301 627v-627h-117v1366h117v-635h741v635h117v-1366h-117v627h-741z" glyph-name="H" horiz-adv-x="1343" unicode="H"/><glyph d="M301 1366v-1366h-117v1366h117z" glyph-name="I" horiz-adv-x="485" unicode="I"/><glyph d="M596 1366v-975q0 -258 -209 -350q-90 -41 -340 -41v98q51 -2 100 -2q257 0 312 192q20 73 20 212v762h-432v104h549z" glyph-name="J" horiz-adv-x="753" unicode="J"/><glyph d="M301 0h-117v1366h117v-647l606 647h144l-635 -686l635 -680h-162l-588 641v-641z" glyph-name="K" horiz-adv-x="1079" unicode="K"/><glyph d="M301 117h494v-117h-611v1366h117v-1249z" glyph-name="L" horiz-adv-x="849" unicode="L"/><glyph d="M301 0h-117v1366h95l557 -1126l563 1126h92v-1366h-117v1077l-538 -1077l-535 1079v-1079z" glyph-name="M" horiz-adv-x="1675" unicode="M"/><glyph d="M301 0h-117v1366h97l809 -1120v1120h116v-1366h-88l-817 1137v-1137z" glyph-name="N" horiz-adv-x="1390" unicode="N"/><glyph d="M1280 674q0 294 -162 452t-380 158q-219 0 -371 -170t-152 -431t150 -431q149 -170 381 -170t393 176q63 74 102 186t39 230zM752 1391q139 1 269 -63t226 -177q152 -178 152 -485q0 -342 -228 -531q-193 -160 -423 -160q-150 0 -289 71t-232 192q-131 172 -131 438 q0 328 198 522t458 193z" glyph-name="O" horiz-adv-x="1497" unicode="O"/><glyph d="M301 653h209q121 0 188 25q90 27 145 104q54 78 54 178t-56 176q-55 76 -145 102q-90 24 -225 24h-170v-609zM301 549v-549h-117v1366h330q240 0 363 -98q135 -112 135 -316t-150 -319q-106 -84 -330 -84h-231z" glyph-name="P" horiz-adv-x="1064" unicode="P"/><glyph d="M1286 676q0 307 -182 471q-156 137 -348 137q-121 0 -233 -56t-187 -157q-115 -153 -115 -403q1 -250 149 -418t384 -168q110 0 192 34t172 115l-102 115l74 70l98 -103q98 168 98 363zM102 688q0 320 196 511t458 192q133 -1 260 -57t219 -156q174 -186 174 -494 q0 -260 -143 -453l164 -176l-80 -78l-156 173q-98 -82 -176 -119q-272 -113 -525 2q-128 57 -227 160q-164 175 -164 495z" glyph-name="Q" horiz-adv-x="1509" unicode="Q"/><glyph d="M301 680h197q172 0 263 76t91 219q0 287 -326 287h-225v-582zM301 0h-117v1366h351q201 0 319 -104t117 -281q1 -125 -61 -220t-158 -134t-246 -39q-27 0 -47 2l612 -590h-160l-610 590v-590z" glyph-name="R" horiz-adv-x="1122" unicode="R"/><glyph d="M193 348q17 -268 255 -268q150 0 234 77t84 190t-66 173t-215 108t-198 72q-196 98 -197 316q0 166 108 270t278 104t274 -102q102 -102 102 -274h-113q-2 104 -37 160q-70 113 -229 112q-115 0 -191 -75t-75 -189q0 -114 76 -174q49 -41 247 -111t265 -145 q84 -96 84 -249t-114 -261q-115 -108 -305 -107q-190 0 -286 111q-90 100 -90 229v33h109z" glyph-name="S" horiz-adv-x="970" unicode="S"/><glyph d="M502 1262v-1262h-117v1262h-358v104h833v-104h-358z" glyph-name="T" horiz-adv-x="888" unicode="T"/><glyph d="M274 1366v-819q0 -150 24 -232q43 -147 205 -205q75 -28 142 -28q150 0 266 102q66 61 88 135q23 74 23 234v813h123v-819q0 -156 -25 -245t-90 -165q-139 -162 -382 -162t-386 172q-61 74 -83 156t-21 244v819h116z" glyph-name="U" horiz-adv-x="1300" unicode="U"/><glyph d="M551 193l420 1173h125l-496 -1366h-98l-488 1366h125z" glyph-name="V" horiz-adv-x="1110" unicode="V"/><glyph d="M1276 225l358 1141h119l-434 -1366h-84l-348 1165l-346 -1165h-86l-441 1366h123l361 -1141l342 1141h102z" glyph-name="W" horiz-adv-x="1765" unicode="W"/><glyph d="M553 580l-391 -580h-148l471 682l-471 684h148l391 -586l395 586h139l-464 -684l464 -682h-139z" glyph-name="X" horiz-adv-x="1099" unicode="X"/><glyph d="M590 0h-117v600l-479 766h137l397 -643l396 643h137l-471 -766v-600z" glyph-name="Y" horiz-adv-x="1054" unicode="Y"/><glyph d="M985 104v-104h-958l843 1262h-751v104h956l-846 -1262h756z" glyph-name="Z" horiz-adv-x="1089" unicode="Z"/><glyph d="M172 1366h272v-76h-176v-1665h176v-76h-272v1817z" glyph-name="bracketleft" horiz-adv-x="587" unicode="["/><glyph d="M88 1366h109l690 -1817h-109z" glyph-name="backslash" horiz-adv-x="811" unicode="\"/><glyph d="M416 1366v-1817h-273v76h176v1665h-176v76h273z" glyph-name="bracketright" horiz-adv-x="587" unicode="]"/><glyph d="M184 782h-108l373 586h126l373 -586h-110l-328 510z" glyph-name="asciicircum" unicode="^"/><glyph d="M0 -158h1024v-78h-1024v78z" glyph-name="underscore" unicode="_"/><glyph d="M403 1337l168 -262h-86l-225 262h143z" glyph-name="grave" unicode="`"/><glyph d="M526 862q-160 0 -246 -119t-85 -281q0 -162 94 -273q94 -109 238 -109t248 119q103 119 103 287t-96 272t-256 104zM877 942h102v-942h-102v209q-137 -225 -353 -225q-190 0 -313 137t-123 350t122 350t312 137q222 0 355 -190v174z" glyph-name="a" horiz-adv-x="1148" unicode="a"/><glyph d="M610 862q-148 0 -244 -108t-96 -284q0 -175 92 -283q92 -107 245 -107t246 105t93 279t-93 287q-95 111 -243 111zM272 0h-102v1366h102v-610q139 202 340 202t321 -136t120 -351t-122 -351t-321 -136t-338 198v-182z" glyph-name="b" horiz-adv-x="1140" unicode="b"/><glyph d="M531 -16q-195 0 -319 136t-124 351t127 351t324 136t329 -133l-63 -69q-115 106 -267 106t-247 -108q-96 -108 -96 -281q0 -174 94 -284q93 -109 247 -109t269 117l63 -74q-141 -139 -337 -139z" glyph-name="c" horiz-adv-x="923" unicode="c"/><glyph d="M870 476q0 174 -92 280t-243 106q-152 0 -246 -110t-94 -283q0 -174 92 -282q91 -107 239 -107t246 112t98 284zM530 958q200 0 338 -178v586h103v-1366h-103v182q-144 -198 -340 -198t-318 135t-122 348t121 352t321 139z" glyph-name="d" horiz-adv-x="1140" unicode="d"/><glyph d="M203 524h698q-8 106 -55 183q-106 156 -297 155q-90 0 -168 -42t-123 -118q-43 -67 -55 -178zM88 469q0 213 130 351t330 138t333 -134t133 -330q0 -9 -4 -66h-811q10 -117 65 -197q106 -152 285 -151q96 0 183 50t134 134l84 -45q-51 -106 -162 -171t-237 -64 q-203 0 -333 136t-130 349z" glyph-name="e" horiz-adv-x="1087" unicode="e"/><glyph d="M287 846v-846h-103v846h-141v96h141v166q0 124 63 192t163 68q20 0 36 -2v-86q-84 -12 -108 -31q-51 -33 -51 -141v-166h159v-96h-159z" glyph-name="f" horiz-adv-x="501" unicode="f"/><glyph d="M540 862q-153 0 -249 -108t-96 -279t96 -283q97 -112 245 -112t259 127q76 92 75 270q0 97 -16 155t-57 109q-104 121 -257 121zM874 942h103v-987q0 -205 -119 -321t-330 -115q-258 0 -391 164l78 75q55 -59 90 -82q90 -57 246 -57t252 100q72 78 71 236v252 q-63 -102 -120 -148q-102 -76 -236 -75q-182 0 -306 139t-124 346q0 113 40 215t110 168q106 106 286 106q110 0 192 -47t158 -153v184z" glyph-name="g" horiz-adv-x="1146" unicode="g"/><glyph d="M272 1366v-569q129 162 297 161q139 0 217 -84q68 -70 68 -235v-639h-102v647q0 215 -195 215q-131 0 -208 -92t-77 -223v-547h-102v1366h102z" glyph-name="h" horiz-adv-x="1017" unicode="h"/><glyph d="M223 1282q33 0 55 -22t22 -55t-24 -55q-22 -22 -54 -22t-54 23t-23 55q1 32 23 54t55 22zM272 942v-942h-102v942h102z" glyph-name="i" horiz-adv-x="444" unicode="i"/><glyph d="M223 1282q33 0 55 -22t22 -55t-24 -55q-22 -22 -54 -22t-54 23t-23 55q1 32 23 54t55 22zM272 942v-1075q0 -164 -78 -255t-208 -91h-31v98h12q90 0 147 70q56 70 56 178v1075h102z" glyph-name="j" horiz-adv-x="444" unicode="j"/><glyph d="M272 0h-102v1366h102v-864l437 440h139l-469 -465l469 -477h-141l-435 436v-436z" glyph-name="k" horiz-adv-x="876" unicode="k"/><glyph d="M272 0h-102v1366h102v-1366z" glyph-name="l" horiz-adv-x="444" unicode="l"/><glyph d="M172 942h100v-137q111 154 271 153q109 0 178 -57q43 -35 76 -121q53 94 125 136t180 42q172 0 246 -104q30 -45 38 -94t9 -164v-596h-103v565q0 119 -4 147t-24 62q-50 88 -178 88q-252 0 -252 -297v-565h-103v565q0 173 -52 235t-162 62q-109 0 -177 -80t-68 -217v-565 h-100v942z" glyph-name="m" horiz-adv-x="1558" unicode="m"/><glyph d="M170 942h102v-141q129 158 293 157q129 0 209 -72t80 -231v-655h-102v610q0 140 -44 196t-161 56t-196 -82t-79 -202v-578h-102v942z" glyph-name="n" horiz-adv-x="1017" unicode="n"/><glyph d="M907 479q1 179 -105 281t-258 102t-251 -108q-98 -108 -98 -284q0 -175 98 -283q98 -107 256 -107t258 110t100 289zM88 485q0 217 135 345t342 128t344 -165q105 -129 105 -328t-135 -340t-332 -141q-102 0 -197 43q-262 120 -262 458z" glyph-name="o" horiz-adv-x="1099" unicode="o"/><glyph d="M616 862q-150 0 -247 -112t-97 -288q0 -174 94 -278t248 -104q152 0 244 108t92 290q0 180 -92 282t-242 102zM170 942h102v-201q72 119 154 168t207 49q193 0 309 -129t117 -348q0 -219 -119 -358t-311 -139q-109 0 -181 37t-102 65q-31 28 -74 84v-621h-102v1393z" glyph-name="p" horiz-adv-x="1144" unicode="p"/><glyph d="M522 862q-142 0 -234 -110t-93 -283q0 -174 92 -282q93 -107 241 -107t240 105t92 287t-96 290q-100 100 -242 100zM866 942h103v-1393h-103v637q-137 -203 -350 -202q-100 0 -189 43q-239 115 -239 452q0 219 119 349t327 130t332 -204v188z" glyph-name="q" horiz-adv-x="1138" unicode="q"/><glyph d="M170 942h102v-170q37 84 88 125q78 61 191 61h41v-100h-35q-119 -2 -192 -82q-92 -100 -93 -284v-492h-102v942z" glyph-name="r" horiz-adv-x="632" unicode="r"/><glyph d="M623 694q1 82 -55 126t-153 44t-153 -43t-57 -115q0 -72 46 -110q45 -37 197 -74q152 -38 221 -108t69 -180t-89 -180q-88 -71 -233 -70q-307 0 -338 278h104q6 -88 68 -137t164 -49q100 0 158 45t58 118t-52 115q-53 42 -194 75q-142 35 -214 99t-72 176t88 183t230 71 t224 -70q83 -70 89 -194h-106z" glyph-name="s" horiz-adv-x="833" unicode="s"/><glyph d="M281 846v-699q0 -35 13 -45t54 -10h86v-92h-110q-78 0 -112 30t-34 99v717h-143v96h143v318h103v-318h153v-96h-153z" glyph-name="t" horiz-adv-x="505" unicode="t"/><glyph d="M721 942h102v-608q0 -92 -19 -148t-69 -102q-104 -100 -256 -100t-246 96t-94 254v608h103v-608q0 -114 66 -184t178 -70t184 78q51 57 51 176v608z" glyph-name="u" horiz-adv-x="962" unicode="u"/><glyph d="M733 942h105l-359 -942h-110l-349 942h107l299 -803z" glyph-name="v" horiz-adv-x="858" unicode="v"/><glyph d="M1253 942h105l-348 -942h-76l-244 786l-256 -786h-82l-332 942h105l268 -756l246 756h102l236 -756z" glyph-name="w" horiz-adv-x="1378" unicode="w"/><glyph d="M436 387l-293 -387h-129l357 467l-357 475h129l293 -395l303 395h125l-364 -475l342 -467h-125z" glyph-name="x" horiz-adv-x="876" unicode="x"/><glyph d="M414 172l315 770h115l-580 -1409h-112l206 502l-338 907h109z" glyph-name="y" horiz-adv-x="864" unicode="y"/><glyph d="M707 96v-96h-656l539 846h-477v96h657l-532 -846h469z" glyph-name="z" horiz-adv-x="800" unicode="z"/><glyph d="M535 1104v-371q0 -96 -24 -145t-87 -80q61 -31 86 -83t25 -151v-354q1 -117 41 -161t151 -48v-90h-16q-164 0 -225 65q-60 65 -60 242v340q0 92 -26 136t-93 65v80q67 20 93 64t26 132v377q0 150 63 212t218 63h20v-94q-109 -5 -151 -49t-41 -150z" glyph-name="braceleft" unicode="{"/><glyph d="M457 1366h108v-1708h-108v1708z" glyph-name="bar" unicode="|"/><glyph d="M489 -86v371q0 94 25 144t86 81q-61 31 -86 83t-25 150v353q0 118 -42 162t-150 49v90h16q165 0 225 -66t60 -241v-340q0 -92 26 -136t93 -65v-80q-67 -21 -93 -65t-26 -132v-376q0 -150 -63 -212t-218 -63h-20v94q109 5 151 49t41 150z" glyph-name="braceright" unicode="}"/><glyph d="M463 1470q82 0 230 -80q147 -80 209 -80t110 39q47 38 96 126l63 -50q-100 -213 -276 -213q-45 0 -90 18t-163 80t-179 62t-107 -38t-98 -126l-63 49q106 213 268 213z" glyph-name="asciitilde" horiz-adv-x="1366" unicode="~"/><glyph glyph-name="uni00A0" horiz-adv-x="614" unicode=" "/><glyph d="M248 961q36 0 60 -25q24 -24 24 -60t-25 -60t-61 -24t-59 26q-23 24 -23 60t24 60t60 23zM195 -416v1086h106v-1086h-106z" glyph-name="exclamdown" horiz-adv-x="495" unicode="¡"/><glyph d="M217 680q0 -164 81 -270t222 -123v784q-143 -19 -223 -123t-80 -268zM598 287q131 0 233 112l64 -71q-65 -66 -131 -97t-166 -41v-157h-78v157q-199 33 -302 155t-103 321q0 130 48 240t132 173t225 88v166h78v-166q84 -2 167 -43t130 -100l-64 -68q-114 109 -233 115 v-784z" glyph-name="cent" unicode="¢"/><glyph d="M729 731v-88h-246q211 -215 -16 -453q29 -8 121 -51t138 -43q48 0 78 31t32 88h110q-8 -82 -40 -127t-84 -75q-52 -29 -107 -29t-193 63t-184 64q-98 0 -102 -111h-111q-4 96 63 160q68 63 162 55q125 94 125 205q0 55 -28 104t-97 119h-225v88h147q-66 82 -89 136 q-24 54 -23 130q0 156 111 260q112 105 288 105t281 -139q53 -70 55 -189h-107v27q0 78 -77 139q-77 62 -181 62t-181 -75t-77 -185t140 -271h317z" glyph-name="sterling" unicode="£"/><glyph d="M696 1069q-150 0 -256 -106q-106 -107 -106 -261t106 -260t256 -106t256 106t107 258q0 152 -106 260q-107 108 -257 109zM1159 702q0 -150 -104 -292l184 -187l-59 -61l-187 186q-133 -108 -287 -108t-303 108l-184 -186l-61 61l180 187q-104 135 -104 285t106 296 l-188 187l61 61l186 -186q298 220 590 0l189 186l61 -61l-186 -185q106 -141 106 -291z" glyph-name="currency" horiz-adv-x="1390" unicode="¤"/><glyph d="M918 860v-88h-252l-97 -184v-15h308v-88h-308v-485h-108v485h-316v88h316v15l-96 184h-261v88h213l-254 477h130l323 -624l311 624h131l-247 -477h207z" glyph-name="yen" unicode="¥"/><glyph d="M457 313h108v-655h-108v655zM457 1366h108v-674h-108v674z" glyph-name="brokenbar" unicode="¦"/><glyph d="M512 770q-113 0 -209 -92q-72 -72 -72 -188t78 -194q78 -77 203 -77t203 77t78 194t-72 188q-96 92 -209 92zM528 1296q-88 0 -148 -55t-60 -137t59 -141q35 -33 63 -45t163 -56q136 -44 213 -140q77 -97 77 -235q0 -227 -221 -325q88 -64 122 -122t33 -140 q0 -140 -95 -232t-255 -92t-257 108t-97 226v29h104q6 -125 76 -196q69 -71 179 -71t176 62t65 154q0 90 -70 151q-39 35 -75 50t-167 48q-130 33 -208 123t-78 223q0 268 248 361q-156 82 -156 262q0 121 87 205t218 84q132 0 222 -79t98 -204h-107q-8 82 -65 133 q-56 51 -144 51z" glyph-name="section" unicode="§"/><glyph d="M710 1276q34 0 54 -22t20 -54t-22 -53t-52 -21q-32 0 -54 20t-21 54q1 32 21 54t54 22zM315 1276q33 0 53 -22t21 -54t-21 -53t-54 -21t-54 20t-20 54q0 32 21 54t54 22z" glyph-name="dieresis" unicode="¨"/><glyph d="M809 1327q-263 0 -451 -187q-188 -188 -188 -456t187 -456t451 -189q264 0 449 188q187 187 187 453t-186 456t-449 191zM809 1389q293 0 498 -208t205 -500t-208 -498q-206 -206 -497 -206t-498 207t-207 501t207 499t500 205zM805 264q-166 0 -275 117 q-108 117 -108 304t110 304q111 117 287 117q141 0 241 -79t114 -200h-64q-23 98 -100 155q-78 56 -206 56t-216 -98t-88 -256t87 -255t221 -97t217 72t97 202h66q-12 -154 -114 -248t-269 -94z" glyph-name="copyright" horiz-adv-x="1611" unicode="©"/><glyph d="M553 840q1 96 -57 156t-149 59t-146 -63t-55 -160t56 -161t142 -63t148 68q61 68 61 164zM551 1116h80v-569h-80v102q-84 -113 -208 -113t-202 84t-78 212t78 211t205 83t205 -96v86z" glyph-name="ordfeminine" horiz-adv-x="747" unicode="ª"/><glyph d="M522 479l213 -338h-98l-213 338l213 352h98zM195 479l213 -338h-99l-213 338l213 352h99z" glyph-name="guillemotleft" horiz-adv-x="843" unicode="«"/><glyph d="M848 0v463h-780v96h886v-559h-106z" glyph-name="logicalnot" unicode="¬"/><glyph d="M410 543v-97h-410v97h410z" glyph-name="uni00AD" horiz-adv-x="409" unicode="­"/><glyph d="M808 1327q-266 0 -452 -187q-186 -188 -186 -456t187 -456t451 -189q264 0 449 188q187 187 187 453t-186 456t-450 191zM809 1389q293 0 498 -208t205 -500t-208 -498q-206 -206 -497 -206t-498 207t-207 501t207 499t500 205zM580 1022v-336h229q240 0 240 168 t-220 168h-249zM504 1079h340q137 0 210 -57t72 -164q0 -145 -151 -199q81 -25 109 -75t30 -181q6 -102 25 -135h-78q-17 24 -21 132t-15 142q-29 89 -216 89h-229v-363h-76v811z" glyph-name="registered" horiz-adv-x="1611" unicode="®"/><glyph d="M786 1247v-84h-546v84h546z" glyph-name="macron" unicode="¯"/><glyph d="M512 1294q-90 0 -154 -64q-63 -65 -63 -155q1 -89 65 -155t152 -66t153 64t65 154q0 91 -64 157q-64 65 -154 65zM513 1354q116 0 197 -82t81 -198t-81 -198t-197 -81q-116 0 -198 82q-82 83 -82 199t82 197t198 81z" glyph-name="degree" unicode="°"/><glyph d="M55 203h912v-66h-912v66zM55 748h422v391h68v-391h422v-66h-422v-387h-68v387h-422v66z" glyph-name="plusminus" unicode="±"/><glyph d="M545 614v-79h-479l303 399q74 94 96 136q23 42 23 90t-44 83t-116 35t-106 -37t-36 -121h-84q12 233 236 234q102 0 168 -56t66 -144q0 -89 -95 -210l-252 -330h320z" glyph-name="uni00B2" horiz-adv-x="669" unicode="²"/><glyph d="M111 1257v80h487l-256 -299q108 0 182 -72t74 -182t-82 -186t-194 -76q-219 0 -277 187l78 24q49 -133 182 -133q86 0 146 53q59 53 59 130t-58 126t-132 49t-138 -32l-22 26l264 305h-313z" glyph-name="uni00B3" horiz-adv-x="669" unicode="³"/><glyph d="M621 1337h143l-225 -262h-86z" glyph-name="acute" unicode="´"/><glyph d="M119 -336v1319h96v-571q0 -113 16 -170t62 -103q84 -84 213 -84q129 -1 216 105t87 274v549h96v-983h-96v207q-94 -236 -313 -236q-180 0 -281 162v-469h-96z" glyph-name="uni00B5" unicode="µ"/><glyph d="M489 -215v848h-32q-168 2 -272 102q-103 100 -103 262q0 101 45 185t130 134t243 50h348v-1581h-96v1513h-166v-1513h-97z" glyph-name="paragraph" unicode="¶"/><glyph d="M137 497q1 35 25 59t60 24t60 -25t24 -61t-26 -59q-24 -23 -59 -23t-59 24t-25 61z" glyph-name="periodcentered" horiz-adv-x="440" unicode="·"/><glyph d="M403 -442l-45 59q160 98 207 283l103 -37q-55 -119 -111 -183t-154 -122z" glyph-name="cedilla" unicode="¸"/><glyph d="M438 535h-84v682l-204 -140v84l288 201v-827z" glyph-name="uni00B9" horiz-adv-x="669" unicode="¹"/><glyph d="M359 1055q-95 -1 -154 -63t-59 -162t58 -160q60 -62 154 -62t154 62t59 162q0 99 -58 161q-59 62 -154 62zM63 834q0 132 82 212t213 80t213 -83t82 -210t-86 -211t-213 -85q-127 0 -209 83t-82 214z" glyph-name="ordmasculine" horiz-adv-x="716" unicode="º"/><glyph d="M322 508l-213 336h98l213 -336l-213 -352h-98zM649 508l-213 336h99l213 -336l-213 -352h-99z" glyph-name="guillemotright" horiz-adv-x="843" unicode="»"/><glyph d="M1333 270v344l-250 -344h250zM1333 190h-352v58l436 604v-582h111v-80h-111v-190h-84v190zM1303 1323l-955 -1350l-61 43l956 1350zM438 535h-84v682l-204 -140v84l288 201v-827z" glyph-name="onequarter" horiz-adv-x="1589" unicode="¼"/><glyph d="M1464 80v-80h-479l303 397q74 97 96 139t23 88q0 46 -43 82t-116 36q-72 0 -106 -38q-34 -36 -36 -120h-84q12 233 235 233q102 0 168 -55q66 -54 66 -144t-94 -210l-252 -328h319zM1303 1323l-955 -1350l-61 43l956 1350zM438 535h-84v682l-204 -140v84l288 201v-827z " glyph-name="onehalf" horiz-adv-x="1589" unicode="½"/><glyph d="M1333 270v344l-250 -344h250zM1333 190h-352v58l436 604v-582h111v-80h-111v-190h-84v190zM1303 1323l-957 -1350l-59 43l954 1350zM111 1257v80h487l-256 -299q108 0 182 -72t74 -182t-82 -186t-194 -76q-219 0 -277 187l78 24q49 -133 182 -133q86 0 146 53 q59 53 59 130t-58 126t-132 49t-138 -32l-22 26l264 305h-313z" glyph-name="threequarters" horiz-adv-x="1589" unicode="¾"/><glyph d="M489 961q35 0 60 -25q25 -24 25 -60t-26 -60q-24 -24 -60 -24t-60 26q-24 24 -22 60q0 36 24 60t59 23zM446 666h97l-2 -76v-66q2 -123 -30 -184t-132 -139t-135 -134t-35 -155q1 -100 67 -172t164 -72t164 60t66 151q0 18 -2 35h102q0 -156 -87 -249t-235 -93t-246 99 q-99 99 -100 249q0 192 199 342q100 76 123 124q23 50 22 171v109z" glyph-name="questiondown" horiz-adv-x="849" unicode="¿"/><glyph d="M496 1731l176 -267h-94l-228 267h146zM895 465l-285 745l-291 -745h576zM936 358h-660l-145 -358h-117l537 1366h127l520 -1366h-129z" glyph-name="Agrave" horiz-adv-x="1212" unicode="À"/><glyph d="M717 1731h145l-227 -267h-94zM895 465l-285 745l-291 -745h576zM936 358h-660l-145 -358h-117l537 1366h127l520 -1366h-129z" glyph-name="Aacute" horiz-adv-x="1212" unicode="Á"/><glyph d="M606 1649l-149 -185h-111l217 271h94l211 -271h-110zM895 465l-285 745l-291 -745h576zM936 358h-660l-145 -358h-117l537 1366h127l520 -1366h-129z" glyph-name="Acircumflex" horiz-adv-x="1212" unicode="Â"/><glyph d="M739 1493q-53 0 -129 46t-108 46q-68 0 -113 -96l-80 45q51 88 91 122t90 34t138 -50q89 -50 115 -49q60 1 109 97l80 -56q-98 -139 -193 -139zM895 465l-285 745l-291 -745h576zM936 358h-660l-145 -358h-117l537 1366h127l520 -1366h-129z" glyph-name="Atilde" horiz-adv-x="1212" unicode="Ã"/><glyph d="M812 1681q36 -1 60 -25t25 -60q0 -36 -25 -60q-24 -24 -60 -25q-36 0 -60 25q-24 24 -25 60q1 36 25 60t60 25zM402 1681q36 -1 61 -25t25 -60t-26 -60q-24 -24 -60 -25q-36 0 -60 25q-24 24 -25 60q1 36 25 60t60 25zM895 465l-285 745l-291 -745h576zM936 358h-660 l-145 -358h-117l537 1366h127l520 -1366h-129z" glyph-name="Adieresis" horiz-adv-x="1212" unicode="Ä"/><glyph d="M608 1704q-44 0 -72 -28t-28 -70t29 -72q29 -29 71 -29t70 29q29 29 29 71q0 43 -28 71t-71 28zM608 1755q62 0 106 -44t44 -107q0 -62 -44 -106t-106 -44t-107 43q-44 43 -44 107t44 108q44 43 107 43zM895 465l-285 745l-291 -745h576zM936 358h-660l-145 -358h-117 l537 1366h127l520 -1366h-129z" glyph-name="Aring" horiz-adv-x="1212" unicode="Å"/><glyph d="M838 483v805l-451 -805h451zM954 639v-535h566v-104h-682v379h-510l-213 -379h-123l778 1366h750v-104h-566v-519h566v-104h-566z" glyph-name="AE" horiz-adv-x="1624" unicode="Æ"/><glyph d="M588 -424l-68 55q76 59 114 115t60 139l115 -43q-51 -151 -221 -266zM96 684q0 303 182 505t470 202t483 -244l-86 -70q-74 82 -133 123q-123 84 -275 84q-225 0 -372 -172t-147 -432t149 -429q150 -169 376 -169q121 0 217 50t185 163l86 -76q-178 -244 -479 -244 q-300 0 -478 203t-178 506z" glyph-name="Ccedilla" horiz-adv-x="1286" unicode="Ç"/><glyph d="M379 1731l176 -267h-94l-228 267h146zM301 1262v-519h569v-104h-569v-535h569v-104h-686v1366h686v-104h-569z" glyph-name="Egrave" horiz-adv-x="978" unicode="È"/><glyph d="M600 1731h145l-227 -267h-94zM301 1262v-519h569v-104h-569v-535h569v-104h-686v1366h686v-104h-569z" glyph-name="Eacute" horiz-adv-x="978" unicode="É"/><glyph d="M489 1649l-149 -185h-111l217 271h95l211 -271h-111zM301 1262v-519h569v-104h-569v-535h569v-104h-686v1366h686v-104h-569z" glyph-name="Ecircumflex" horiz-adv-x="978" unicode="Ê"/><glyph d="M695 1681q36 -1 61 -25q24 -24 24 -60t-24 -60t-61 -25q-37 0 -61 25q-24 24 -24 60t24 60t61 25zM286 1681q36 -1 60 -25t25 -60q0 -36 -25 -60q-24 -24 -60 -25q-36 0 -61 25q-25 24 -25 60t25 61q25 24 61 24zM301 1262v-519h569v-104h-569v-535h569v-104h-686v1366 h686v-104h-569z" glyph-name="Edieresis" horiz-adv-x="978" unicode="Ë"/><glyph d="M131 1731l176 -267h-94l-227 267h145zM299 1366v-1366h-117v1366h117z" glyph-name="Igrave" horiz-adv-x="485" unicode="Ì"/><glyph d="M354 1731h146l-228 -267h-94zM301 1366v-1366h-117v1366h117z" glyph-name="Iacute" horiz-adv-x="485" unicode="Í"/><glyph d="M244 1649l-150 -185h-112l217 271h94l211 -271h-109zM301 1366v-1366h-117v1366h117z" glyph-name="Icircumflex" horiz-adv-x="485" unicode="Î"/><glyph d="M378 1681q36 -1 60 -25t25 -60q0 -36 -25 -60q-24 -24 -60 -25q-36 0 -61 25q-25 24 -25 60t25 61q25 24 61 24zM105 1681q36 -1 61 -25q24 -24 24 -60t-24 -60t-61 -25q-37 0 -61 25q-24 24 -24 60t24 60t61 25zM301 1366v-1366h-117v1366h117z" glyph-name="Idieresis" horiz-adv-x="485" unicode="Ï"/><glyph d="M301 743h379v-96h-379v-543h64q205 0 304 22t179 85q201 152 201 500q-1 266 -135 408t-386 143h-227v-519zM184 743v623h351q291 0 461 -177t171 -495q0 -318 -182 -506t-506 -188h-295v647h-164v96h164z" glyph-name="Eth" horiz-adv-x="1265" unicode="Ð"/><glyph d="M827 1493q-53 0 -129 46t-108 46q-68 0 -113 -96l-80 45q53 90 92 123t89 33t138 -50q89 -50 115 -49q64 1 109 97l82 -56q-102 -139 -195 -139zM301 0h-117v1366h97l809 -1120v1120h116v-1366h-88l-817 1137v-1137z" glyph-name="Ntilde" horiz-adv-x="1390" unicode="Ñ"/><glyph d="M637 1731l176 -267h-94l-227 267h145zM1280 674q0 294 -162 452t-380 158q-219 0 -371 -170t-152 -431t150 -431q149 -170 381 -170t393 176q63 74 102 186t39 230zM752 1391q139 1 269 -63t226 -177q152 -178 152 -485q0 -342 -228 -531q-193 -160 -423 -160 q-150 0 -289 71t-232 192q-131 172 -131 438q0 328 198 522t458 193z" glyph-name="Ograve" horiz-adv-x="1497" unicode="Ò"/><glyph d="M858 1731h146l-228 -267h-94zM1280 674q0 294 -162 452t-380 158q-219 0 -371 -170t-152 -431t150 -431q149 -170 381 -170t393 176q63 74 102 186t39 230zM752 1391q139 1 269 -63t226 -177q152 -178 152 -485q0 -342 -228 -531q-193 -160 -423 -160q-150 0 -289 71 t-232 192q-131 172 -131 438q0 328 198 522t458 193z" glyph-name="Oacute" horiz-adv-x="1497" unicode="Ó"/><glyph d="M748 1649l-150 -185h-111l218 271h94l211 -271h-111zM1280 674q0 294 -162 452t-380 158q-219 0 -371 -170t-152 -431t150 -431q149 -170 381 -170t393 176q63 74 102 186t39 230zM752 1391q139 1 269 -63t226 -177q152 -178 152 -485q0 -342 -228 -531 q-193 -160 -423 -160q-150 0 -289 71t-232 192q-131 172 -131 438q0 328 198 522t458 193z" glyph-name="Ocircumflex" horiz-adv-x="1497" unicode="Ô"/><glyph d="M881 1493q-53 0 -129 46t-109 46q-68 0 -113 -96l-81 45q53 88 93 122t89 34t138 -50t116 -49q61 1 108 97l80 -56q-98 -139 -192 -139zM1280 674q0 294 -162 452t-380 158q-219 0 -371 -170t-152 -431t150 -431q149 -170 381 -170t393 176q63 74 102 186t39 230z M752 1391q139 1 269 -63t226 -177q152 -178 152 -485q0 -342 -228 -531q-193 -160 -423 -160q-150 0 -289 71t-232 192q-131 172 -131 438q0 328 198 522t458 193z" glyph-name="Otilde" horiz-adv-x="1497" unicode="Õ"/><glyph d="M953 1681q36 -1 61 -25q24 -24 24 -60t-24 -60t-61 -25q-37 0 -61 25q-24 24 -24 60t24 60t61 25zM544 1681q36 -1 60 -25t25 -60q0 -36 -25 -60q-24 -24 -60 -25q-36 0 -61 25q-25 24 -25 60t25 61q25 24 61 24zM1280 674q0 294 -162 452t-380 158q-219 0 -371 -170 t-152 -431t150 -431q149 -170 381 -170t393 176q63 74 102 186t39 230zM752 1391q139 1 269 -63t226 -177q152 -178 152 -485q0 -342 -228 -531q-193 -160 -423 -160q-150 0 -289 71t-232 192q-131 172 -131 438q0 328 198 522t458 193z" glyph-name="Odieresis" horiz-adv-x="1497" unicode="Ö"/><glyph d="M180 1063l330 -330l332 330l47 -47l-332 -330l332 -332l-47 -45l-330 330l-332 -332l-47 47l332 332l-330 330z" glyph-name="multiply" unicode="×"/><glyph d="M215 700q0 -246 125 -419l770 854q-170 150 -360 149q-236 0 -386 -169t-149 -415zM1155 1083l-768 -852q162 -150 352 -149q238 0 386 169t149 439q0 123 -27 211q-26 88 -92 182zM96 676q0 313 178 504q199 211 474 211q233 0 436 -172l143 157l51 -43l-147 -164 q90 -121 127 -229t37 -254q0 -330 -195 -520q-190 -190 -459 -191q-125 -1 -219 39t-209 136l-155 -175l-49 45l157 177q-94 113 -132 221t-38 258z" glyph-name="Oslash" horiz-adv-x="1490" unicode="Ø"/><glyph d="M541 1731l176 -267h-94l-228 267h146zM274 1366v-819q0 -150 24 -232q43 -147 205 -205q75 -28 142 -28q150 0 266 102q66 61 88 135q23 74 23 234v813h123v-819q0 -156 -25 -245t-90 -165q-139 -162 -382 -162t-386 172q-61 74 -83 156t-21 244v819h116z" glyph-name="Ugrave" horiz-adv-x="1300" unicode="Ù"/><glyph d="M762 1731h145l-227 -267h-94zM274 1366v-819q0 -150 24 -232q43 -147 205 -205q75 -28 142 -28q150 0 266 102q66 61 88 135q23 74 23 234v813h123v-819q0 -156 -25 -245t-90 -165q-139 -162 -382 -162t-386 172q-61 74 -83 156t-21 244v819h116z" glyph-name="Uacute" horiz-adv-x="1300" unicode="Ú"/><glyph d="M651 1649l-149 -185h-111l217 271h94l211 -271h-110zM274 1366v-819q0 -150 24 -232q43 -147 205 -205q75 -28 142 -28q150 0 266 102q66 61 88 135q23 74 23 234v813h123v-819q0 -156 -25 -245t-90 -165q-139 -162 -382 -162t-386 172q-61 74 -83 156t-21 244v819h116z " glyph-name="Ucircumflex" horiz-adv-x="1300" unicode="Û"/><glyph d="M857 1681q36 -1 61 -25q24 -24 24 -60t-24 -60t-61 -25q-37 0 -61 25q-24 24 -24 60t24 60t61 25zM362 1596q0 36 25 60t61 25q36 -1 60 -25t24 -60t-24 -60t-60 -25q-36 0 -61 25q-25 24 -25 60zM274 1366v-819q0 -150 24 -232q43 -147 205 -205q75 -28 142 -28 q150 0 266 102q66 61 88 135q23 74 23 234v813h123v-819q0 -156 -25 -245t-90 -165q-139 -162 -382 -162t-386 172q-61 74 -83 156t-21 244v819h116z" glyph-name="Udieresis" horiz-adv-x="1300" unicode="Ü"/><glyph d="M639 1731h145l-227 -267h-94zM590 0h-117v600l-479 766h137l397 -643l396 643h137l-471 -766v-600z" glyph-name="Yacute" horiz-adv-x="1054" unicode="Ý"/><glyph d="M287 469h209q121 0 188 25q90 26 144 104t54 178t-56 176t-145 101t-224 24h-170v-608zM287 365v-365h-117v1366h117v-184h213q240 0 368 -105t129 -309q0 -204 -149 -319q-106 -84 -330 -84h-231z" glyph-name="Thorn" horiz-adv-x="1062" unicode="Þ"/><glyph d="M178 846h-117v96h117v123q0 147 82 225t232 78t227 -76q90 -86 90 -208t-61 -199q-37 -49 -132 -92q106 -25 158 -74q115 -104 115 -299q1 -195 -101 -316t-266 -120q-82 0 -151 39l37 83q84 -29 127 -28q111 0 179 93t68 241q0 317 -299 317v107q90 10 133 43 q86 63 86 186q0 90 -58 148q-58 59 -160 59t-160 -68q-43 -45 -43 -139v-1065h-103v846z" glyph-name="germandbls" horiz-adv-x="974" unicode="ß"/><glyph d="M467 1337l168 -262h-86l-225 262h143zM526 862q-160 0 -246 -119t-85 -281q0 -162 94 -273q94 -109 238 -109t248 119q103 119 103 287t-96 272t-256 104zM877 942h102v-942h-102v209q-137 -225 -353 -225q-190 0 -313 137t-123 350t122 350t312 137q222 0 355 -190v174z " glyph-name="agrave" horiz-adv-x="1148" unicode="à"/><glyph d="M684 1337h141l-225 -262h-86zM526 862q-160 0 -246 -119t-85 -281q0 -162 94 -273q94 -109 238 -109t248 119q103 119 103 287t-96 272t-256 104zM877 942h102v-942h-102v209q-137 -225 -353 -225q-190 0 -313 137t-123 350t122 350t312 137q222 0 355 -190v174z" glyph-name="aacute" horiz-adv-x="1148" unicode="á"/><glyph d="M571 1260l-149 -185h-111l215 266h99l213 -266h-111zM526 862q-160 0 -246 -119t-85 -281q0 -162 94 -273q94 -109 238 -109t248 119q103 119 103 287t-96 272t-256 104zM877 942h102v-942h-102v209q-137 -225 -353 -225q-190 0 -313 137t-123 350t122 350t312 137 q222 0 355 -190v174z" glyph-name="acircumflex" horiz-adv-x="1148" unicode="â"/><glyph d="M715 1100q-31 0 -60 13t-94 55t-98 42q-61 0 -113 -86l-71 62q94 125 184 125q41 -1 73 -15t119 -75q35 -23 62 -23q61 0 110 94l72 -51q-92 -141 -184 -141zM526 862q-160 0 -246 -119t-85 -281q0 -162 94 -273q94 -109 238 -109t248 119q103 119 103 287t-96 272 t-256 104zM877 942h102v-942h-102v209q-137 -225 -353 -225q-190 0 -313 137t-123 350t122 350t312 137q222 0 355 -190v174z" glyph-name="atilde" horiz-adv-x="1148" unicode="ã"/><glyph d="M696 1200q0 32 20 54t55 22q34 0 54 -22q21 -22 21 -54t-22 -53t-54 -21t-52 20q-22 20 -22 54zM377 1276q33 0 53 -22t20 -54t-21 -53t-53 -21t-54 20t-21 54q-1 32 21 54t55 22zM526 862q-160 0 -246 -119t-85 -281q0 -162 94 -273q94 -109 238 -109t248 119 q103 119 103 287t-96 272t-256 104zM877 942h102v-942h-102v209q-137 -225 -353 -225q-190 0 -313 137t-123 350t122 350t312 137q222 0 355 -190v174z" glyph-name="adieresis" horiz-adv-x="1148" unicode="ä"/><glyph d="M535 1315q-43 0 -72 -28q-29 -29 -29 -71t29 -71t71 -29t70 29t29 71t-27 70q-28 29 -71 29zM535 1366q63 0 106 -44t43 -108t-44 -106q-44 -43 -106 -43t-107 43q-44 44 -44 108t44 107q45 43 108 43zM526 862q-160 0 -246 -119t-85 -281q0 -162 94 -273 q94 -109 238 -109t248 119q103 119 103 287t-96 272t-256 104zM877 942h102v-942h-102v209q-137 -225 -353 -225q-190 0 -313 137t-123 350t122 350t312 137q222 0 355 -190v174z" glyph-name="aring" horiz-adv-x="1148" unicode="å"/><glyph d="M539 862q-193 0 -279 -149q-66 -109 -66 -261t97 -263q95 -109 243 -109t249 116t101 286t-95 274q-96 106 -250 106zM1341 862q-90 0 -170 -41q-167 -86 -186 -297h709q-18 156 -112 247t-241 91zM1333 80q201 0 328 184l82 -45q-125 -236 -412 -235q-238 0 -346 198 v-182h-102v205q-133 -221 -355 -221q-196 0 -318 136t-122 351t121 351t313 136q143 0 256 -79q51 -37 105 -113v176h102v-176q37 59 67 88t76 53q94 51 215 51q250 0 383 -206q78 -127 78 -267q0 -33 -2 -57h-817q18 -141 84 -223q109 -125 264 -125z" glyph-name="ae" horiz-adv-x="1878" unicode="æ"/><glyph d="M369 -442l-45 59q160 98 206 283l103 -37q-53 -119 -109 -183t-155 -122zM531 -16q-195 0 -319 136t-124 351t127 351t324 136t329 -133l-63 -69q-115 106 -267 106t-247 -108q-96 -108 -96 -281q0 -174 94 -284q93 -109 247 -109t269 117l63 -74q-141 -139 -337 -139z " glyph-name="ccedilla" horiz-adv-x="923" unicode="ç"/><glyph d="M436 1337l168 -262h-86l-225 262h143zM203 524h698q-8 106 -55 183q-106 156 -297 155q-90 0 -168 -42t-123 -118q-43 -67 -55 -178zM88 469q0 213 130 351t330 138t333 -134t133 -330q0 -9 -4 -66h-811q10 -117 65 -197q106 -152 285 -151q96 0 183 50t134 134l84 -45 q-51 -106 -162 -171t-237 -64q-203 0 -333 136t-130 349z" glyph-name="egrave" horiz-adv-x="1087" unicode="è"/><glyph d="M653 1337h144l-226 -262h-88zM203 524h698q-8 106 -55 183q-106 156 -297 155q-90 0 -168 -42t-123 -118q-43 -67 -55 -178zM88 469q0 213 130 351t330 138t333 -134t133 -330q0 -9 -4 -66h-811q10 -117 65 -197q106 -152 285 -151q96 0 183 50t134 134l84 -45 q-51 -106 -162 -171t-237 -64q-203 0 -333 136t-130 349z" glyph-name="eacute" horiz-adv-x="1087" unicode="é"/><glyph d="M543 1260l-152 -185h-108l213 266h98l213 -266h-111zM203 524h698q-8 106 -55 183q-106 156 -297 155q-90 0 -168 -42t-123 -118q-43 -67 -55 -178zM88 469q0 213 130 351t330 138t333 -134t133 -330q0 -9 -4 -66h-811q10 -117 65 -197q106 -152 285 -151q96 0 183 50 t134 134l84 -45q-51 -106 -162 -171t-237 -64q-203 0 -333 136t-130 349z" glyph-name="ecircumflex" horiz-adv-x="1087" unicode="ê"/><glyph d="M742 1276q34 0 54 -22t21 -54t-21 -53t-54 -21t-54 20t-20 54q0 32 20 54t54 22zM348 1276q33 0 53 -22q21 -22 21 -54t-22 -53t-54 -21t-52 20q-22 20 -22 54q0 32 22 54t54 22zM203 524h698q-8 106 -55 183q-106 156 -297 155q-90 0 -168 -42t-123 -118 q-43 -67 -55 -178zM88 469q0 213 130 351t330 138t333 -134t133 -330q0 -9 -4 -66h-811q10 -117 65 -197q106 -152 285 -151q96 0 183 50t134 134l84 -45q-51 -106 -162 -171t-237 -64q-203 0 -333 136t-130 349z" glyph-name="edieresis" horiz-adv-x="1087" unicode="ë"/><glyph d="M115 1337l168 -262h-86l-226 262h144zM274 942v-942h-102v942h102z" glyph-name="igrave" horiz-adv-x="444" unicode="ì"/><glyph d="M330 1337h143l-225 -262h-86zM272 942v-942h-102v942h102z" glyph-name="iacute" horiz-adv-x="444" unicode="í"/><glyph d="M219 1260l-151 -185h-109l213 266h100l213 -266h-110zM272 942v-942h-102v942h102z" glyph-name="icircumflex" horiz-adv-x="444" unicode="î"/><glyph d="M270 1200q0 32 20 54t55 22q34 0 54 -22q21 -22 21 -54t-22 -53t-54 -21t-52 20q-22 20 -22 54zM99 1276q35 0 55 -22t20 -54t-22 -53t-53 -21t-53 20t-21 54q0 32 20 54t54 22zM272 942v-942h-102v942h102z" glyph-name="idieresis" horiz-adv-x="444" unicode="ï"/><glyph d="M909 475q0 173 -102 281t-259 108t-255 -110t-98 -283q0 -174 98 -283q98 -108 257 -108t259 112t100 283zM1016 516q0 -252 -134 -392t-335 -140t-330 137t-129 356t129 348q141 135 336 136q139 0 272 -89q-25 72 -82 160t-118 150l-211 -119l-37 67l194 109 q-115 106 -202 154l47 55q109 -51 235 -166l209 115l39 -66l-188 -104q145 -152 225 -338t80 -373z" glyph-name="eth" horiz-adv-x="1101" unicode="ð"/><glyph d="M649 1100q-31 0 -59 13t-96 55t-97 42q-66 0 -112 -86l-72 62q90 125 184 125q41 -1 72 -15t93 -56t87 -42q64 0 113 94l69 -51q-92 -141 -182 -141zM170 942h102v-141q129 158 293 157q129 0 209 -72t80 -231v-655h-102v610q0 140 -44 196t-161 56t-196 -82t-79 -202 v-578h-102v942z" glyph-name="ntilde" horiz-adv-x="1017" unicode="ñ"/><glyph d="M442 1337l168 -262h-86l-225 262h143zM907 479q1 179 -105 281t-258 102t-251 -108q-98 -108 -98 -284q0 -175 98 -283q98 -107 256 -107t258 110t100 289zM88 485q0 217 135 345t342 128t344 -165q105 -129 105 -328t-135 -340t-332 -141q-102 0 -197 43 q-262 120 -262 458z" glyph-name="ograve" horiz-adv-x="1099" unicode="ò"/><glyph d="M659 1337h144l-225 -262h-89zM907 479q1 179 -105 281t-258 102t-251 -108q-98 -108 -98 -284q0 -175 98 -283q98 -107 256 -107t258 110t100 289zM88 485q0 217 135 345t342 128t344 -165q105 -129 105 -328t-135 -340t-332 -141q-102 0 -197 43q-262 120 -262 458z" glyph-name="oacute" horiz-adv-x="1099" unicode="ó"/><glyph d="M549 1260l-152 -185h-108l213 266h98l213 -266h-111zM907 479q1 179 -105 281t-258 102t-251 -108q-98 -108 -98 -284q0 -175 98 -283q98 -107 256 -107t258 110t100 289zM88 485q0 217 135 345t342 128t344 -165q105 -129 105 -328t-135 -340t-332 -141q-102 0 -197 43 q-262 120 -262 458z" glyph-name="ocircumflex" horiz-adv-x="1099" unicode="ô"/><glyph d="M690 1100q-30 0 -58 13t-94 55t-98 42q-63 0 -114 -86l-72 62q94 125 186 125q39 1 71 -15q31 -16 93 -57t88 -41q60 0 113 94l69 -51q-92 -141 -184 -141zM907 479q1 179 -105 281t-258 102t-251 -108q-98 -108 -98 -284q0 -175 98 -283q98 -107 256 -107t258 110 t100 289zM88 485q0 217 135 345t342 128t344 -165q105 -129 105 -328t-135 -340t-332 -141q-102 0 -197 43q-262 120 -262 458z" glyph-name="otilde" horiz-adv-x="1099" unicode="õ"/><glyph d="M750 1276q33 0 53 -22t20 -54q1 -32 -21 -53t-54 -21t-53 20q-22 20 -21 54q0 32 22 54t54 22zM353 1276q35 0 55 -22t20 -54t-22 -53t-53 -21t-53 20t-21 54q0 32 20 54t54 22zM907 479q1 179 -105 281t-258 102t-251 -108q-98 -108 -98 -284q0 -175 98 -283 q98 -107 256 -107t258 110t100 289zM88 485q0 217 135 345t342 128t344 -165q105 -129 105 -328t-135 -340t-332 -141q-102 0 -197 43q-262 120 -262 458z" glyph-name="odieresis" horiz-adv-x="1099" unicode="ö"/><glyph d="M512 369q29 -1 48 -21q20 -20 20 -48t-20 -48t-48 -20q-29 0 -49 18q-20 20 -21 49q0 29 20 49t50 21zM512 1139q29 -1 48 -21q20 -20 20 -48t-20 -48t-48 -20q-29 0 -49 18q-20 20 -21 49q0 29 20 49t50 21zM55 719h912v-66h-912v66z" glyph-name="divide" unicode="÷"/><glyph d="M532 864q-144 0 -242 -110q-97 -110 -97 -283q-1 -135 75 -248l506 555q-98 86 -242 86zM560 80q145 0 245 112t100 285q0 131 -80 252l-510 -559q100 -90 245 -90zM86 473q0 233 138 361t316 127q178 0 304 -107l131 143l49 -51l-127 -139q115 -147 115 -347t-132 -338 t-343 -138q-164 -1 -293 108l-107 -121l-55 47l115 123q-61 82 -86 157t-25 175z" glyph-name="oslash" horiz-adv-x="1099" unicode="ø"/><glyph d="M373 1337l168 -262h-86l-226 262h144zM721 942h102v-608q0 -92 -19 -148t-69 -102q-104 -100 -256 -100t-246 96t-94 254v608h103v-608q0 -114 66 -184t178 -70t184 78q51 57 51 176v608z" glyph-name="ugrave" horiz-adv-x="962" unicode="ù"/><glyph d="M590 1337h143l-225 -262h-88zM721 942h102v-608q0 -92 -19 -148t-69 -102q-104 -100 -256 -100t-246 96t-94 254v608h103v-608q0 -114 66 -184t178 -70t184 78q51 57 51 176v608z" glyph-name="uacute" horiz-adv-x="962" unicode="ú"/><glyph d="M479 1260l-151 -185h-109l213 266h98l213 -266h-110zM721 942h102v-608q0 -92 -19 -148t-69 -102q-104 -100 -256 -100t-246 96t-94 254v608h103v-608q0 -114 66 -184t178 -70t184 78q51 57 51 176v608z" glyph-name="ucircumflex" horiz-adv-x="962" unicode="û"/><glyph d="M680 1276q33 0 53 -22q21 -22 21 -54t-22 -53t-54 -21t-52 20q-22 20 -22 54q0 32 22 54t54 22zM284 1276q34 0 54 -22t20 -54t-22 -53t-52 -21q-32 0 -54 20t-21 54q1 32 21 54t54 22zM721 942h102v-608q0 -92 -19 -148t-69 -102q-104 -100 -256 -100t-246 96t-94 254 v608h103v-608q0 -114 66 -184t178 -70t184 78q51 57 51 176v608z" glyph-name="udieresis" horiz-adv-x="962" unicode="ü"/><glyph d="M541 1337h143l-225 -262h-88zM414 172l315 770h115l-580 -1409h-112l206 502l-338 907h109z" glyph-name="yacute" horiz-adv-x="864" unicode="ý"/><glyph d="M608 862q-150 0 -246 -112t-96 -288q0 -174 94 -278t247 -104t245 108t92 290q0 180 -92 282q-94 102 -244 102zM164 1366h102v-625q72 119 154 168t207 49q193 0 309 -129t117 -348q0 -219 -119 -358t-299 -139t-295 101q-31 28 -74 85v-621h-102v1817z" glyph-name="thorn" horiz-adv-x="1140" unicode="þ"/><glyph d="M631 1276q33 0 53 -22t20 -54t-21 -53t-53 -21t-54 20t-21 54q-1 32 21 54t55 22zM235 1276q34 0 54 -22t20 -54q1 -32 -21 -53t-54 -21t-53 20q-22 20 -21 54q0 32 20 54t55 22zM414 172l315 770h115l-580 -1409h-112l206 502l-338 907h109z" glyph-name="ydieresis" horiz-adv-x="864" unicode="ÿ"/><glyph d="M893 1636v-90h-574v90h574zM895 465l-285 745l-291 -745h576zM936 358h-660l-145 -358h-117l537 1366h127l520 -1366h-129z" glyph-name="Amacron" horiz-adv-x="1212" unicode="Ā"/><glyph d="M848 1247v-84h-547v84h547zM526 862q-160 0 -246 -119t-85 -281q0 -162 94 -273q94 -109 238 -109t248 119q103 119 103 287t-96 272t-256 104zM877 942h102v-942h-102v209q-137 -225 -353 -225q-190 0 -313 137t-123 350t122 350t312 137q222 0 355 -190v174z" glyph-name="amacron" horiz-adv-x="1148" unicode="ā"/><glyph d="M606 1585q139 0 193 113h106q-23 -94 -102 -149q-80 -54 -197 -54q-117 1 -197 55t-100 148h107q51 -113 190 -113zM895 465l-285 745l-291 -745h576zM936 358h-660l-145 -358h-117l537 1366h127l520 -1366h-129z" glyph-name="Abreve" horiz-adv-x="1212" unicode="Ă"/><glyph d="M575 1092q-113 0 -188 54t-98 148h100q51 -118 186 -118t185 118h100q-20 -94 -96 -148t-189 -54zM526 862q-160 0 -246 -119t-85 -281q0 -162 94 -273q94 -109 238 -109t248 119q103 119 103 287t-96 272t-256 104zM877 942h102v-942h-102v209q-137 -225 -353 -225 q-190 0 -313 137t-123 350t122 350t312 137q222 0 355 -190v174z" glyph-name="abreve" horiz-adv-x="1148" unicode="ă"/><glyph d="M915 487l-253 637q-27 78 -37 127q-8 -25 -13 -32l-30 -91l-258 -641h591zM1102 -162q0 -49 39 -81q72 -59 198 -9v-63q-66 -25 -133 -25t-122 44q-54 44 -54 114q0 100 121 182h-49l-158 403h-649l-160 -403h-115l549 1366h109l539 -1366q-115 -78 -115 -162z" glyph-name="Aogonek" horiz-adv-x="1234" unicode="Ą"/><glyph d="M780 391v162q-35 -35 -77 -44t-215 -23q-174 -14 -244 -70q-70 -58 -70 -160t68 -158t188 -55q178 0 277 131q73 100 73 217zM879 451v-160q0 -176 4 -204t11 -41t42 -46q-104 -72 -105 -156q0 -49 40 -81q74 -59 198 -9v-61q-63 -23 -132 -23t-122 44t-53 127t106 159 h-43q-33 33 -38 52t-5 104v59q-59 -127 -149 -184q-91 -57 -239 -57t-236 72q-88 73 -88 206q0 188 176 256q88 35 274 48t224 36q36 24 36 104t-24 130t-90 80t-154 30q-262 0 -289 -254h-96q23 326 391 326q158 0 251 -64t108 -180q2 -26 2 -313z" glyph-name="aogonek" horiz-adv-x="1011" unicode="ą"/><glyph d="M754 1731h145l-227 -267h-94zM96 684q0 303 182 505t470 202t483 -244l-86 -70q-74 82 -133 123q-123 84 -275 84q-225 0 -372 -172t-147 -432t149 -429q150 -169 376 -169q121 0 217 50t185 163l86 -76q-178 -244 -479 -244q-300 0 -478 203t-178 506z" glyph-name="Cacute" horiz-adv-x="1286" unicode="Ć"/><glyph d="M571 1337h142l-226 -262h-86zM531 -16q-195 0 -319 136t-124 351t127 351t324 136t329 -133l-63 -69q-115 106 -267 106t-247 -108q-96 -108 -96 -281q0 -174 94 -284q93 -109 247 -109t269 117l63 -74q-141 -139 -337 -139z" glyph-name="cacute" horiz-adv-x="923" unicode="ć"/><glyph d="M643 1649l-149 -185h-113l219 271h94l209 -271h-108zM96 684q0 303 182 505t470 202t483 -244l-86 -70q-74 82 -133 123q-123 84 -275 84q-225 0 -372 -172t-147 -432t149 -429q150 -169 376 -169q121 0 217 50t185 163l86 -76q-178 -244 -479 -244q-300 0 -478 203 t-178 506z" glyph-name="Ccircumflex" horiz-adv-x="1286" unicode="Ĉ"/><glyph d="M642 1681q36 -1 60 -25t25 -60q0 -36 -25 -60q-24 -24 -60 -25q-36 0 -60 25q-24 24 -25 60q1 36 25 60t60 25zM96 684q0 303 182 505t470 202t483 -244l-86 -70q-74 82 -133 123q-123 84 -275 84q-225 0 -372 -172t-147 -432t149 -429q150 -169 376 -169q121 0 217 50 t185 163l86 -76q-178 -244 -479 -244q-300 0 -478 203t-178 506z" glyph-name="Cdotaccent" horiz-adv-x="1286" unicode="Ċ"/><glyph d="M463 1276q33 0 53 -22t20 -54t-21 -53t-53 -21t-54 20t-21 54q-1 32 21 54t55 22zM531 -16q-195 0 -319 136t-124 351t127 351t324 136t329 -133l-63 -69q-115 106 -267 106t-247 -108q-96 -108 -96 -281q0 -174 94 -284q93 -109 247 -109t269 117l63 -74 q-141 -139 -337 -139z" glyph-name="cdotaccent" horiz-adv-x="923" unicode="ċ"/><glyph d="M643 1550l150 185h110l-217 -271h-94l-211 271h111zM96 684q0 303 182 505t470 202t483 -244l-86 -70q-74 82 -133 123q-123 84 -275 84q-225 0 -372 -172t-147 -432t149 -429q150 -169 376 -169q121 0 217 50t185 163l86 -76q-178 -244 -479 -244q-300 0 -478 203 t-178 506z" glyph-name="Ccaron" horiz-adv-x="1286" unicode="Č"/><glyph d="M465 1157l151 184h109l-213 -266h-100l-213 266h110zM531 -16q-195 0 -319 136t-124 351t127 351t324 136t329 -133l-63 -69q-115 106 -267 106t-247 -108q-96 -108 -96 -281q0 -174 94 -284q93 -109 247 -109t269 117l63 -74q-141 -139 -337 -139z" glyph-name="ccaron" horiz-adv-x="923" unicode="č"/><glyph d="M633 1550l149 185h111l-217 -271h-94l-211 271h110zM301 1262v-1158h64q207 0 306 22t179 85q201 152 201 500q-1 268 -135 409t-388 142h-227zM184 0v1366h351q291 0 463 -177t171 -495q0 -318 -182 -506t-508 -188h-295z" glyph-name="Dcaron" horiz-adv-x="1265" unicode="Ď"/><glyph d="M1356 1348l-201 -412l-80 35l193 422zM870 476q0 174 -92 280t-243 106q-152 0 -246 -110t-94 -283q0 -174 92 -282q91 -107 239 -107t246 112t98 284zM530 958q200 0 338 -178v586h103v-1366h-103v182q-144 -198 -340 -198t-318 135t-122 348t121 352t321 139z" glyph-name="dcaron" horiz-adv-x="1439" unicode="ď"/><glyph d="M301 743h379v-96h-379v-543h64q205 0 304 22t179 85q201 152 201 500q-1 266 -135 408t-386 143h-227v-519zM184 743v623h351q291 0 461 -177t171 -495q0 -318 -182 -506t-506 -188h-295v647h-164v96h164z" glyph-name="Dcroat" horiz-adv-x="1265" unicode="Đ"/><glyph d="M535 864q-152 0 -246 -110t-94 -285q0 -174 91 -282q92 -107 240 -107t246 112t98 284t-92 280t-243 108zM868 1085h-313v89h313v192h103v-192h164v-89h-164v-1085h-103v182q-78 -104 -160 -151t-188 -47q-188 0 -310 136t-122 348t121 352t307 141q216 0 352 -181v305z " glyph-name="dcroat" horiz-adv-x="1140" unicode="đ"/><glyph d="M815 1636v-90h-573v90h573zM301 1262v-519h569v-104h-569v-535h569v-104h-686v1366h686v-104h-569z" glyph-name="Emacron" horiz-adv-x="978" unicode="Ē"/><glyph d="M817 1247v-84h-547v84h547zM203 524h698q-8 106 -55 183q-106 156 -297 155q-90 0 -168 -42t-123 -118q-43 -67 -55 -178zM88 469q0 213 130 351t330 138t333 -134t133 -330q0 -9 -4 -66h-811q10 -117 65 -197q106 -152 285 -151q96 0 183 50t134 134l84 -45 q-51 -106 -162 -171t-237 -64q-203 0 -333 136t-130 349z" glyph-name="emacron" horiz-adv-x="1087" unicode="ē"/><glyph d="M489 1585q139 0 193 113h106q-23 -94 -102 -149q-80 -54 -197 -54q-117 1 -197 55t-99 148h106q51 -113 190 -113zM301 1262v-519h569v-104h-569v-535h569v-104h-686v1366h686v-104h-569z" glyph-name="Ebreve" horiz-adv-x="978" unicode="Ĕ"/><glyph d="M491 1681q37 -1 61 -25t24 -60t-26 -60q-24 -24 -60 -25q-36 0 -60 25q-24 24 -24 60t24 61q25 24 61 24zM301 1262v-519h569v-104h-569v-535h569v-104h-686v1366h686v-104h-569z" glyph-name="Edotaccent" horiz-adv-x="978" unicode="Ė"/><glyph d="M545 1276q33 0 53 -22t20 -54t-22 -53t-52 -21q-32 0 -54 20t-21 54q-1 32 21 54t55 22zM203 524h698q-8 106 -55 183q-106 156 -297 155q-90 0 -168 -42t-123 -118q-43 -67 -55 -178zM88 469q0 213 130 351t330 138t333 -134t133 -330q0 -9 -4 -66h-811q10 -117 65 -197 q106 -152 285 -151q96 0 183 50t134 134l84 -45q-51 -106 -162 -171t-237 -64q-203 0 -333 136t-130 349z" glyph-name="edotaccent" horiz-adv-x="1087" unicode="ė"/><glyph d="M1096 94v-94q-115 -84 -115 -162q0 -49 39 -81q72 -59 199 -9l-5 -63q-66 -25 -133 -25t-122 45q-54 45 -54 115q0 96 119 180h-889v1366h950v-90h-841v-520h788v-88h-788v-574h852z" glyph-name="Eogonek" horiz-adv-x="1153" unicode="Ę"/><glyph d="M541 934q-94 0 -174 -46q-165 -95 -187 -345h701q-2 143 -60 235q-98 156 -280 156zM446 -164q0 -47 40 -79q70 -56 198 -11v-59q-63 -23 -132 -23t-122 44t-53 119t86 153q-178 27 -281 162q-102 136 -102 355t127 365t330 146t325 -140t121 -368v-23h-803 q2 -197 100 -313t261 -117q131 0 216 75q84 75 115 216h99q-27 -168 -153 -269t-294 -94q-78 -68 -78 -139z" glyph-name="eogonek" horiz-adv-x="1058" unicode="ę"/><glyph d="M489 1550l150 185h113l-220 -271h-92l-211 271h109zM301 1262v-519h569v-104h-569v-535h569v-104h-686v1366h686v-104h-569z" glyph-name="Ecaron" horiz-adv-x="978" unicode="Ě"/><glyph d="M547 1157l151 184h109l-213 -266h-100l-211 266h108zM203 524h698q-8 106 -55 183q-106 156 -297 155q-90 0 -168 -42t-123 -118q-43 -67 -55 -178zM88 469q0 213 130 351t330 138t333 -134t133 -330q0 -9 -4 -66h-811q10 -117 65 -197q106 -152 285 -151q96 0 183 50 t134 134l84 -45q-51 -106 -162 -171t-237 -64q-203 0 -333 136t-130 349z" glyph-name="ecaron" horiz-adv-x="1087" unicode="ě"/><glyph d="M739 1649l-149 -185h-113l219 271h92l211 -271h-108zM748 725h634v-84q0 -186 -78 -337q-78 -152 -224 -240t-326 -89q-287 0 -472 199q-186 199 -186 509t184 509t480 199q295 0 487 -242l-86 -72q-82 88 -119 113q-125 94 -288 94q-229 0 -384 -173t-155 -428t152 -428 t376 -173q125 0 246 64t198 178q77 112 83 297h-522v104z" glyph-name="Gcircumflex" horiz-adv-x="1478" unicode="Ĝ"/><glyph d="M571 1260l-151 -185h-109l213 266h101l213 -266h-111zM540 862q-153 0 -249 -108t-96 -279t96 -283q97 -112 245 -112t259 127q76 92 75 270q0 97 -16 155t-57 109q-104 121 -257 121zM874 942h103v-987q0 -205 -119 -321t-330 -115q-258 0 -391 164l78 75q55 -59 90 -82 q90 -57 246 -57t252 100q72 78 71 236v252q-63 -102 -120 -148q-102 -76 -236 -75q-182 0 -306 139t-124 346q0 113 40 215t110 168q106 106 286 106q110 0 192 -47t158 -153v184z" glyph-name="gcircumflex" horiz-adv-x="1146" unicode="ĝ"/><glyph d="M739 1585q139 0 191 113h106q-23 -94 -101 -149q-79 -54 -197 -54q-118 1 -196 55t-102 148h107q53 -113 192 -113zM748 725h634v-84q0 -186 -78 -337q-78 -152 -224 -240t-326 -89q-287 0 -472 199q-186 199 -186 509t184 509t480 199q295 0 487 -242l-86 -72 q-82 88 -119 113q-125 94 -288 94q-229 0 -384 -173t-155 -428t152 -428t376 -173q125 0 246 64t198 178q77 112 83 297h-522v104z" glyph-name="Gbreve" horiz-adv-x="1478" unicode="Ğ"/><glyph d="M573 1092q-113 0 -189 54t-95 148h100q49 -118 184 -118t187 118h100q-22 -94 -98 -148t-189 -54zM540 862q-153 0 -249 -108t-96 -279t96 -283q97 -112 245 -112t259 127q76 92 75 270q0 97 -16 155t-57 109q-104 121 -257 121zM874 942h103v-987q0 -205 -119 -321 t-330 -115q-258 0 -391 164l78 75q55 -59 90 -82q90 -57 246 -57t252 100q72 78 71 236v252q-63 -102 -120 -148q-102 -76 -236 -75q-182 0 -306 139t-124 346q0 113 40 215t110 168q106 106 286 106q110 0 192 -47t158 -153v184z" glyph-name="gbreve" horiz-adv-x="1146" unicode="ğ"/><glyph d="M738 1681q36 -1 61 -25t25 -60t-26 -60q-24 -24 -60 -25q-36 0 -60 25q-24 24 -25 60q1 36 25 60t60 25zM748 725h634v-84q0 -186 -78 -337q-78 -152 -224 -240t-326 -89q-287 0 -472 199q-186 199 -186 509t184 509t480 199q295 0 487 -242l-86 -72q-82 88 -119 113 q-125 94 -288 94q-229 0 -384 -173t-155 -428t152 -428t376 -173q125 0 246 64t198 178q77 112 83 297h-522v104z" glyph-name="Gdotaccent" horiz-adv-x="1478" unicode="Ġ"/><glyph d="M574 1276q34 0 54 -22t21 -54t-21 -53t-54 -21t-54 20t-20 54q0 32 20 54t54 22zM540 862q-153 0 -249 -108t-96 -279t96 -283q97 -112 245 -112t259 127q76 92 75 270q0 97 -16 155t-57 109q-104 121 -257 121zM874 942h103v-987q0 -205 -119 -321t-330 -115 q-258 0 -391 164l78 75q55 -59 90 -82q90 -57 246 -57t252 100q72 78 71 236v252q-63 -102 -120 -148q-102 -76 -236 -75q-182 0 -306 139t-124 346q0 113 40 215t110 168q106 106 286 106q110 0 192 -47t158 -153v184z" glyph-name="gdotaccent" horiz-adv-x="1146" unicode="ġ"/><glyph d="M784 -84v-149q0 -182 -120 -220v56q68 39 65 145h-41v168h96zM748 725h634v-84q0 -186 -78 -337q-78 -152 -224 -240t-326 -89q-287 0 -472 199q-186 199 -186 509t184 509t480 199q295 0 487 -242l-86 -72q-82 88 -119 113q-125 94 -288 94q-229 0 -384 -173t-155 -428 t152 -428t376 -173q125 0 246 64t198 178q77 112 83 297h-522v104z" glyph-name="Gcommaaccent" horiz-adv-x="1478" unicode="Ģ"/><glyph d="M459 1167l200 412l80 -37l-192 -422zM540 862q-153 0 -249 -108t-96 -279t96 -283q97 -112 245 -112t259 127q76 92 75 270q0 97 -16 155t-57 109q-104 121 -257 121zM874 942h103v-987q0 -205 -119 -321t-330 -115q-258 0 -391 164l78 75q55 -59 90 -82q90 -57 246 -57 t252 100q72 78 71 236v252q-63 -102 -120 -148q-102 -76 -236 -75q-182 0 -306 139t-124 346q0 113 40 215t110 168q106 106 286 106q110 0 192 -47t158 -153v184z" glyph-name="gcommaaccent" horiz-adv-x="1146" unicode="ģ"/><glyph d="M672 1649l-150 -185h-112l219 271h94l209 -271h-109zM301 627v-627h-117v1366h117v-635h741v635h117v-1366h-117v627h-741z" glyph-name="Hcircumflex" horiz-adv-x="1343" unicode="Ĥ"/><glyph d="M244 1036v-282h852v282h-852zM1206 1108h148v-72h-148v-1036h-110v666h-852v-666h-109v1036h-147v72h147v258h109v-258h852v258h110v-258z" glyph-name="Hbar" horiz-adv-x="1341" unicode="Ħ"/><glyph d="M233 1192h318v-70h-318v-374q41 104 93 155q104 105 274 105t274 -138q66 -92 66 -247v-623h-102v604q0 141 -58 213q-82 105 -228 105t-233 -111q-86 -111 -86 -299v-512h-102v1122h-158v70h158v174h102v-174z" glyph-name="hbar" horiz-adv-x="1073" unicode="ħ"/><glyph d="M528 1636v-90h-573v90h573zM301 1366v-1366h-117v1366h117z" glyph-name="Imacron" horiz-adv-x="485" unicode="Ī"/><glyph d="M496 1247v-84h-547v84h547zM272 942v-942h-102v942h102z" glyph-name="imacron" horiz-adv-x="444" unicode="ī"/><glyph d="M223 1092q-113 0 -188 54t-98 148h100q51 -118 186 -118t185 118h100q-20 -94 -96 -148t-189 -54zM274 942v-942h-102v942h102z" glyph-name="ibreve" horiz-adv-x="444" unicode="ĭ"/><glyph d="M479 -184q0 -45 34 -73t80 -28t89 15l20 -82q-54 -20 -126 -20t-133 46q-60 47 -60 119q0 121 141 207h97q-80 -59 -111 -99t-31 -85zM301 1366v-1366h-117v1366h117z" glyph-name="Iogonek" horiz-adv-x="485" unicode="Į"/><glyph d="M223 1282q33 0 55 -22t22 -55t-24 -55q-22 -22 -54 -22t-54 23t-23 55q1 32 23 54t55 22zM172 0v942h102v-942h27q-141 -94 -141 -184q0 -45 34 -73t76 -28t92 15l21 -82q-55 -20 -128 -20t-132 46q-59 47 -60 119q1 121 142 207h-33z" glyph-name="iogonek" horiz-adv-x="444" unicode="į"/><glyph d="M243 1681q37 -1 61 -25t24 -60t-25 -60t-61 -25q-36 0 -60 25q-24 24 -24 60t24 61q25 24 61 24zM301 1366v-1366h-117v1366h117z" glyph-name="Idotaccent" horiz-adv-x="485" unicode="İ"/><glyph d="M272 942v-942h-102v942h102z" glyph-name="dotlessi" horiz-adv-x="444" unicode="ı"/><glyph d="M1081 1366v-975q0 -258 -209 -350q-90 -41 -340 -41v98q51 -2 101 -2q256 0 311 192q20 73 21 212v762h-433v104h549zM301 1366v-1366h-117v1366h117z" glyph-name="IJ" horiz-adv-x="1239" unicode="Ĳ"/><glyph d="M668 1282q32 0 54 -22t22 -55t-24 -55q-22 -22 -54 -22t-54 23t-22 55t22 54q23 22 56 22zM717 942v-1075q0 -164 -79 -255t-208 -91h-31v98h13q90 0 146 70t56 178v1075h103zM223 1282q33 0 55 -22t22 -55t-24 -55q-22 -22 -54 -22t-54 23t-23 55q1 32 23 54t55 22z M272 942v-942h-102v942h102z" glyph-name="ij" horiz-adv-x="886" unicode="ĳ"/><glyph d="M586 -84v-149q0 -182 -121 -220v56q68 39 65 145h-41v168h97zM301 0h-117v1366h117v-647l606 647h144l-635 -686l635 -680h-162l-588 641v-641z" glyph-name="Kcommaaccent" horiz-adv-x="1079" unicode="Ķ"/><glyph d="M481 -111v-114q1 -84 -27 -132t-100 -85v59q29 27 48 46q18 18 24 91h-41v135h96zM272 0h-102v1366h102v-864l437 440h139l-469 -465l469 -477h-141l-435 436v-436z" glyph-name="kcommaaccent" horiz-adv-x="876" unicode="ķ"/><glyph d="M233 0h-102v985h102v-532l582 532h127l-450 -407l491 -578h-123l-436 510l-191 -170v-340z" glyph-name="kgreenlandic" horiz-adv-x="966" unicode="ĸ"/><glyph d="M537 1731h145l-229 -267h-93zM301 117h494v-117h-611v1366h117v-1249z" glyph-name="Lacute" horiz-adv-x="849" unicode="Ĺ"/><glyph d="M334 1731h145l-227 -267h-94zM274 0h-102v1366h102v-1366z" glyph-name="lacute" horiz-adv-x="444" unicode="ĺ"/><glyph d="M471 -84v-149q0 -186 -123 -220v56q70 37 68 145h-41v168h96zM301 117h494v-117h-611v1366h117v-1249z" glyph-name="Lcommaaccent" horiz-adv-x="849" unicode="Ļ"/><glyph d="M266 -111v-114q0 -84 -28 -132t-99 -85v59q29 27 48 46q18 18 24 91h-41v135h96zM274 0h-102v1366h102v-1366z" glyph-name="lcommaaccent" horiz-adv-x="444" unicode="ļ"/><glyph d="M831 1348l-200 -412l-80 35l192 422zM301 117h494v-117h-611v1366h117v-1249z" glyph-name="Lcaron" horiz-adv-x="849" unicode="Ľ"/><glyph d="M795 1348l-201 -412l-80 35l193 422zM272 0h-102v1366h102v-1366z" glyph-name="lcaron" horiz-adv-x="880" unicode="ľ"/><glyph d="M698 786q39 0 65 -26q25 -26 25 -65q0 -37 -26 -63t-64 -26t-64 26t-26 64t26 64t64 26zM301 117h494v-117h-611v1366h117v-1249z" glyph-name="Ldot" horiz-adv-x="849" unicode="Ŀ"/><glyph d="M532 786q39 0 65 -26t26 -65q0 -37 -26 -63t-65 -26q-38 0 -64 26t-26 64t26 64t64 26zM272 0h-102v1366h102v-1366z" glyph-name="ldot" horiz-adv-x="624" unicode="ŀ"/><glyph d="M184 1366h117v-604l246 186v-117l-246 -186v-528h496v-117h-613v578l-149 -115v117l149 114v672z" glyph-name="Lslash" horiz-adv-x="849" unicode="Ł"/><glyph d="M170 1366h102v-547l152 117v-109l-152 -114v-713h-102v655l-150 -114v106l150 115v604z" glyph-name="lslash" horiz-adv-x="444" unicode="ł"/><glyph d="M807 1731h145l-229 -267h-92zM301 0h-117v1366h97l809 -1120v1120h116v-1366h-88l-817 1137v-1137z" glyph-name="Nacute" horiz-adv-x="1390" unicode="Ń"/><glyph d="M616 1337h144l-225 -262h-86zM170 942h102v-141q129 158 293 157q129 0 209 -72t80 -231v-655h-102v610q0 140 -44 196t-161 56t-196 -82t-79 -202v-578h-102v942z" glyph-name="nacute" horiz-adv-x="1017" unicode="ń"/><glyph d="M741 -84v-149q0 -186 -123 -220v56q70 37 68 145h-41v168h96zM301 0h-117v1366h97l809 -1120v1120h116v-1366h-88l-817 1137v-1137z" glyph-name="Ncommaaccent" horiz-adv-x="1390" unicode="Ņ"/><glyph d="M553 -111v-114q0 -86 -29 -134t-100 -83v59l12 12q35 27 46 49t16 76h-41v135h96zM170 942h102v-141q129 158 293 157q129 0 209 -72t80 -231v-655h-102v610q0 140 -44 196t-161 56t-196 -82t-79 -202v-578h-102v942z" glyph-name="ncommaaccent" horiz-adv-x="1017" unicode="ņ"/><glyph d="M694 1550l150 185h112l-217 -271h-94l-211 271h109zM301 0h-117v1366h97l809 -1120v1120h116v-1366h-88l-817 1137v-1137z" glyph-name="Ncaron" horiz-adv-x="1390" unicode="Ň"/><glyph d="M510 1157l152 184h108l-213 -266h-98l-213 266h110zM170 942h102v-141q129 158 293 157q129 0 209 -72t80 -231v-655h-102v610q0 140 -44 196t-161 56t-196 -82t-79 -202v-578h-102v942z" glyph-name="ncaron" horiz-adv-x="1017" unicode="ň"/><glyph d="M608 942h103v-141q129 158 293 157q126 0 206 -72t80 -231v-655h-102v610q0 140 -44 196t-158 56t-195 -82t-80 -202v-578h-103v942zM352 1348l-200 -412l-80 35l192 422z" glyph-name="napostrophe" horiz-adv-x="1454" unicode="ŉ"/><glyph d="M723 1372q236 0 371 -162q53 -66 72 -140t20 -204v-1026q0 -112 -47 -150t-187 -38h-69v69h8q117 0 151 37t33 164v922q1 124 -21 194t-77 127q-109 109 -285 109q-121 0 -218 -53t-155 -152q-76 -129 -75 -373v-696h-109v1339h105v-327q120 360 483 360z" glyph-name="Eng" horiz-adv-x="1320" unicode="Ŋ"/><glyph d="M131 979h96v-223q94 252 363 252q178 0 278 -117q44 -49 60 -107t16 -166v-774q0 -156 -110 -180q-47 -6 -119 -6h-66v59h6q111 0 149 29t38 117v737q0 127 -34 188q-34 60 -100 96t-150 36q-85 0 -159 -40t-112 -110q-55 -92 -56 -254v-516h-100v979z" glyph-name="eng" horiz-adv-x="1075" unicode="ŋ"/><glyph d="M1034 1636v-90h-573v90h573zM1280 674q0 294 -162 452t-380 158q-219 0 -371 -170t-152 -431t150 -431q149 -170 381 -170t393 176q63 74 102 186t39 230zM752 1391q139 1 269 -63t226 -177q152 -178 152 -485q0 -342 -228 -531q-193 -160 -423 -160q-150 0 -289 71 t-232 192q-131 172 -131 438q0 328 198 522t458 193z" glyph-name="Omacron" horiz-adv-x="1497" unicode="Ō"/><glyph d="M823 1247v-84h-547v84h547zM907 479q1 179 -105 281t-258 102t-251 -108q-98 -108 -98 -284q0 -175 98 -283q98 -107 256 -107t258 110t100 289zM88 485q0 217 135 345t342 128t344 -165q105 -129 105 -328t-135 -340t-332 -141q-102 0 -197 43q-262 120 -262 458z" glyph-name="omacron" horiz-adv-x="1099" unicode="ō"/><glyph d="M977 1731h141l-186 -267h-90zM676 1731h141l-186 -267h-90zM1280 674q0 294 -162 452t-380 158q-219 0 -371 -170t-152 -431t150 -431q149 -170 381 -170t393 176q63 74 102 186t39 230zM752 1391q139 1 269 -63t226 -177q152 -178 152 -485q0 -342 -228 -531 q-193 -160 -423 -160q-150 0 -289 71t-232 192q-131 172 -131 438q0 328 198 522t458 193z" glyph-name="Ohungarumlaut" horiz-adv-x="1497" unicode="Ő"/><glyph d="M764 1337h139l-184 -262h-84zM489 1337h140l-185 -262h-82zM907 479q1 179 -105 281t-258 102t-251 -108q-98 -108 -98 -284q0 -175 98 -283q98 -107 256 -107t258 110t100 289zM88 485q0 217 135 345t342 128t344 -165q105 -129 105 -328t-135 -340t-332 -141 q-102 0 -197 43q-262 120 -262 458z" glyph-name="ohungarumlaut" horiz-adv-x="1099" unicode="ő"/><glyph d="M1251 670q-1 282 -139 448t-372 166t-380 -163q-145 -163 -145 -428t146 -438t372 -173q105 0 207 47q202 93 274 311q37 113 37 230zM1366 639v-535h563v-104h-680v276q-49 -76 -85 -116t-91 -76q-156 -109 -342 -109q-127 1 -247 53t-207 144t-134 229t-47 295 q0 307 182 501t470 194q178 0 323 -93q57 -34 94 -74t84 -112v254h680v-104h-563v-519h563v-104h-563z" glyph-name="OE" horiz-adv-x="2039" unicode="Œ"/><glyph d="M915 472q0 170 -101 280t-260 110t-259 -108t-100 -282q0 -173 100 -283q100 -109 259 -109t260 110t101 282zM1372 862q-166 0 -276 -129q-68 -84 -78 -209h711q-9 121 -57 190q-48 68 -128 108t-172 40zM1367 -16q-159 0 -288 108q-39 33 -62 69q-24 36 -52 105 q-49 -119 -121 -180q-124 -102 -310 -102t-316 136t-130 350t129 351t334 137q162 0 287 -96q80 -61 127 -172q57 125 141 182q120 86 278 86t281 -103t156 -267q12 -57 12 -160h-817q14 -136 68 -204t133 -106q78 -38 155 -38q127 0 225 72q48 32 105 114l78 -43 q-59 -98 -125 -147q-129 -92 -288 -92z" glyph-name="oe" horiz-adv-x="1906" unicode="œ"/><glyph d="M672 1731h145l-227 -267h-94zM301 680h197q172 0 263 76t91 219q0 287 -326 287h-225v-582zM301 0h-117v1366h351q201 0 319 -104t117 -281q1 -125 -61 -220t-158 -134t-246 -39q-27 0 -47 2l612 -590h-160l-610 590v-590z" glyph-name="Racute" horiz-adv-x="1122" unicode="Ŕ"/><glyph d="M424 1337h143l-225 -262h-86zM170 942h102v-170q37 84 88 125q78 61 191 61h41v-100h-35q-119 -2 -192 -82q-92 -100 -93 -284v-492h-102v942z" glyph-name="racute" horiz-adv-x="632" unicode="ŕ"/><glyph d="M606 -84v-149q0 -182 -121 -220v56q68 39 66 145h-41v168h96zM301 680h197q172 0 263 76t91 219q0 287 -326 287h-225v-582zM301 0h-117v1366h351q201 0 319 -104t117 -281q1 -125 -61 -220t-158 -134t-246 -39q-27 0 -47 2l612 -590h-160l-610 590v-590z" glyph-name="Rcommaaccent" horiz-adv-x="1122" unicode="Ŗ"/><glyph d="M424 -111v-114q0 -84 -28 -132t-99 -85v59q20 20 41 37q25 27 31 100h-41v135h96zM170 942h102v-170q37 84 88 125q78 61 191 61h41v-100h-35q-119 -2 -192 -82q-92 -100 -93 -284v-492h-102v942z" glyph-name="rcommaaccent" horiz-adv-x="632" unicode="ŗ"/><glyph d="M561 1550l150 185h110l-217 -271h-94l-211 271h111zM301 680h197q172 0 263 76t91 219q0 287 -326 287h-225v-582zM301 0h-117v1366h351q201 0 319 -104t117 -281q1 -125 -61 -220t-158 -134t-246 -39q-27 0 -47 2l612 -590h-160l-610 590v-590z" glyph-name="Rcaron" horiz-adv-x="1122" unicode="Ř"/><glyph d="M319 1157l150 184h111l-215 -266h-99l-213 266h111zM170 942h102v-170q37 84 88 125q78 61 191 61h41v-100h-35q-119 -2 -192 -82q-92 -100 -93 -284v-492h-102v942z" glyph-name="rcaron" horiz-adv-x="632" unicode="ř"/><glyph d="M596 1731h145l-227 -267h-94zM193 348q17 -268 255 -268q150 0 234 77t84 190t-66 173t-215 108t-198 72q-196 98 -197 316q0 166 108 270t278 104t274 -102q102 -102 102 -274h-113q-2 104 -37 160q-70 113 -229 112q-115 0 -191 -75t-75 -189q0 -114 76 -174 q49 -41 247 -111t265 -145q84 -96 84 -249t-114 -261q-115 -108 -305 -107q-190 0 -286 111q-90 100 -90 229v33h109z" glyph-name="Sacute" horiz-adv-x="970" unicode="Ś"/><glyph d="M524 1337h144l-226 -262h-86zM623 694q1 82 -55 126t-153 44t-153 -43t-57 -115q0 -72 46 -110q45 -37 197 -74q152 -38 221 -108t69 -180t-89 -180q-88 -71 -233 -70q-307 0 -338 278h104q6 -88 68 -137t164 -49q100 0 158 45t58 118t-52 115q-53 42 -194 75 q-142 35 -214 99t-72 176t88 183t230 71t224 -70q83 -70 89 -194h-106z" glyph-name="sacute" horiz-adv-x="833" unicode="ś"/><glyph d="M485 1649l-149 -185h-113l219 271h95l208 -271h-108zM193 348q17 -268 255 -268q150 0 234 77t84 190t-66 173t-215 108t-198 72q-196 98 -197 316q0 166 108 270t278 104t274 -102q102 -102 102 -274h-113q-2 104 -37 160q-70 113 -229 112q-115 0 -191 -75t-75 -189 q0 -114 76 -174q49 -41 247 -111t265 -145q84 -96 84 -249t-114 -261q-115 -108 -305 -107q-190 0 -286 111q-90 100 -90 229v33h109z" glyph-name="Scircumflex" horiz-adv-x="970" unicode="Ŝ"/><glyph d="M414 1260l-152 -185h-108l213 266h100l213 -266h-111zM623 694q1 82 -55 126t-153 44t-153 -43t-57 -115q0 -72 46 -110q45 -37 197 -74q152 -38 221 -108t69 -180t-89 -180q-88 -71 -233 -70q-307 0 -338 278h104q6 -88 68 -137t164 -49q100 0 158 45t58 118t-52 115 q-53 42 -194 75q-142 35 -214 99t-72 176t88 183t230 71t224 -70q83 -70 89 -194h-106z" glyph-name="scircumflex" horiz-adv-x="833" unicode="ŝ"/><glyph d="M782 -234q0 -62 -55 -104q-55 -43 -146 -43t-194 45l21 47q90 -41 156 -41t105 27q38 27 38 67t-30 62q-60 46 -175 0l-33 29l86 116q-337 13 -451 249q-47 97 -47 210v23h109q6 -172 82 -265q106 -131 350 -131q190 0 298 80t108 217t-99 199q-63 37 -281 92t-283 77 t-120 58q-123 84 -123 252t126 265t356 97t359 -106q130 -106 140 -311h-104q-20 330 -410 330q-168 0 -264 -72t-96 -199q0 -152 137 -211q66 -29 310 -88t321 -106q139 -84 139 -265t-129 -285t-367 -112l-61 -82q123 29 185 -24q42 -35 42 -97z" glyph-name="Scedilla" horiz-adv-x="1198" unicode="Ş"/><glyph d="M651 -230q0 -60 -55 -101q-55 -42 -143 -42t-187 43l21 47q85 -41 151 -41t103 27t37 66t-29 61t-73 23q-44 0 -97 -23l-33 27l86 116q-178 9 -276 105t-97 258h99q6 -117 45 -174q78 -117 264 -117q131 0 211 59q80 58 80 148t-62 133t-246 85t-249 79q-109 63 -109 190 t96 198t286 71t288 -111q61 -70 69 -203h-96q-10 128 -78 186q-67 58 -197 58t-199 -50t-68 -140q-1 -64 31 -98t84 -54t202 -53t225 -72q123 -66 123 -200t-100 -212t-269 -86l-61 -84q43 11 92 11t90 -35t41 -95z" glyph-name="scedilla" horiz-adv-x="921" unicode="ş"/><glyph d="M485 1550l150 185h110l-217 -271h-94l-211 271h111zM193 348q17 -268 255 -268q150 0 234 77t84 190t-66 173t-215 108t-198 72q-196 98 -197 316q0 166 108 270t278 104t274 -102q102 -102 102 -274h-113q-2 104 -37 160q-70 113 -229 112q-115 0 -191 -75t-75 -189 q0 -114 76 -174q49 -41 247 -111t265 -145q84 -96 84 -249t-114 -261q-115 -108 -305 -107q-190 0 -286 111q-90 100 -90 229v33h109z" glyph-name="Scaron" horiz-adv-x="970" unicode="Š"/><glyph d="M420 1157l151 184h109l-215 -266h-98l-213 266h110zM623 694q1 82 -55 126t-153 44t-153 -43t-57 -115q0 -72 46 -110q45 -37 197 -74q152 -38 221 -108t69 -180t-89 -180q-88 -71 -233 -70q-307 0 -338 278h104q6 -88 68 -137t164 -49q100 0 158 45t58 118t-52 115 q-53 42 -194 75q-142 35 -214 99t-72 176t88 183t230 71t224 -70q83 -70 89 -194h-106z" glyph-name="scaron" horiz-adv-x="833" unicode="š"/><glyph d="M489 -84v-149q0 -186 -122 -220v56q70 37 67 145h-41v168h96zM502 1262v-1262h-117v1262h-358v104h833v-104h-358z" glyph-name="Tcommaaccent" horiz-adv-x="888" unicode="Ţ"/><glyph d="M297 -111v-114q0 -84 -28 -132t-99 -85v59q20 20 41 37q25 27 31 100h-41v135h96zM281 846v-699q0 -35 13 -45t54 -10h86v-92h-110q-78 0 -112 30t-34 99v717h-143v96h143v318h103v-318h153v-96h-153z" glyph-name="tcommaaccent" horiz-adv-x="505" unicode="ţ"/><glyph d="M442 1550l150 185h113l-218 -271h-94l-211 271h109zM502 1262v-1262h-117v1262h-358v104h833v-104h-358z" glyph-name="Tcaron" horiz-adv-x="888" unicode="Ť"/><glyph d="M856 1348l-199 -412l-82 35l193 422zM281 846v-699q0 -35 13 -45t54 -10h86v-92h-110q-78 0 -112 30t-34 99v717h-143v96h143v318h103v-318h153v-96h-153z" glyph-name="tcaron" horiz-adv-x="942" unicode="ť"/><glyph d="M561 825h395v-82h-395v-743h-108v743h-396v82h396v447h-476v94h1059v-94h-475v-447z" glyph-name="Tbar" horiz-adv-x="1013" unicode="Ŧ"/><glyph d="M287 711h168v-70h-168v-373q0 -104 16 -137q29 -55 115 -55q25 0 82 8v-82q-63 -8 -103 -8q-133 0 -182 76q-31 49 -31 188v383h-141v70h141v198h-182v76h182v307h103v-307h213v-76h-213v-198z" glyph-name="tbar" horiz-adv-x="528" unicode="ŧ"/><glyph d="M621 1100q-29 0 -58 13t-95 55t-97 42q-63 0 -115 -86l-72 62q94 125 187 125q39 1 71 -15t92 -57q62 -41 89 -41q59 0 112 94l70 -51q-92 -141 -184 -141zM721 942h102v-608q0 -92 -19 -148t-69 -102q-104 -100 -256 -100t-246 96t-94 254v608h103v-608q0 -114 66 -184 t178 -70t184 78q51 57 51 176v608z" glyph-name="utilde" horiz-adv-x="962" unicode="ũ"/><glyph d="M938 1636v-90h-573v90h573zM274 1366v-819q0 -150 24 -232q43 -147 205 -205q75 -28 142 -28q150 0 266 102q66 61 88 135q23 74 23 234v813h123v-819q0 -156 -25 -245t-90 -165q-139 -162 -382 -162t-386 172q-61 74 -83 156t-21 244v819h116z" glyph-name="Umacron" horiz-adv-x="1300" unicode="Ū"/><glyph d="M754 1247v-84h-547v84h547zM721 942h102v-608q0 -92 -19 -148t-69 -102q-104 -100 -256 -100t-246 96t-94 254v608h103v-608q0 -114 66 -184t178 -70t184 78q51 57 51 176v608z" glyph-name="umacron" horiz-adv-x="962" unicode="ū"/><glyph d="M481 1092q-113 0 -188 54t-98 148h102q49 -118 184 -118t185 118h100q-20 -94 -96 -148t-189 -54zM721 942h102v-608q0 -92 -19 -148t-69 -102q-104 -100 -256 -100t-246 96t-94 254v608h103v-608q0 -114 66 -184t178 -70t184 78q51 57 51 176v608z" glyph-name="ubreve" horiz-adv-x="962" unicode="ŭ"/><glyph d="M653 1704q-43 0 -71 -28t-29 -70q0 -42 29 -72q28 -29 70 -29t71 29t29 71q0 43 -28 71t-71 28zM653 1755q63 0 107 -44t43 -107q0 -62 -44 -106q-45 -44 -107 -44t-106 43t-44 107t44 108q44 43 107 43zM274 1366v-819q0 -150 24 -232q43 -147 205 -205q75 -28 142 -28 q150 0 266 102q66 61 88 135q23 74 23 234v813h123v-819q0 -156 -25 -245t-90 -165q-139 -162 -382 -162t-386 172q-61 74 -83 156t-21 244v819h116z" glyph-name="Uring" horiz-adv-x="1300" unicode="Ů"/><glyph d="M481 1315q-43 0 -71 -28q-28 -29 -29 -71q0 -42 29 -71q28 -29 70 -29t71 29t29 71t-28 70q-28 29 -71 29zM481 1366q63 0 107 -44t43 -108q0 -64 -44 -106q-45 -43 -107 -43t-106 43q-44 44 -44 108t44 107t107 43zM721 942h102v-608q0 -92 -19 -148t-69 -102 q-104 -100 -256 -100t-246 96t-94 254v608h103v-608q0 -114 66 -184t178 -70t184 78q51 57 51 176v608z" glyph-name="uring" horiz-adv-x="962" unicode="ů"/><glyph d="M881 1731h141l-186 -267h-91zM580 1731h141l-186 -267h-91zM274 1366v-819q0 -150 24 -232q43 -147 205 -205q75 -28 142 -28q150 0 266 102q66 61 88 135q23 74 23 234v813h123v-819q0 -156 -25 -245t-90 -165q-139 -162 -382 -162t-386 172q-61 74 -83 156t-21 244v819 h116z" glyph-name="Uhungarumlaut" horiz-adv-x="1300" unicode="Ű"/><glyph d="M694 1337h140l-185 -262h-84zM420 1337h139l-184 -262h-82zM721 942h102v-608q0 -92 -19 -148t-69 -102q-104 -100 -256 -100t-246 96t-94 254v608h103v-608q0 -114 66 -184t178 -70t184 78q51 57 51 176v608z" glyph-name="uhungarumlaut" horiz-adv-x="962" unicode="ű"/><glyph d="M889 -184q0 -45 34 -73t79 -28t90 15l18 -82q-155 -54 -258 26q-59 47 -59 119q0 121 141 207h96q-80 -59 -110 -99t-31 -85zM274 1366v-819q0 -150 24 -232q43 -147 205 -205q75 -28 142 -28q150 0 266 102q66 61 88 135q23 74 23 234v813h123v-819q0 -156 -25 -245 t-90 -165q-139 -162 -382 -162t-386 172q-61 74 -83 156t-21 244v819h116z" glyph-name="Uogonek" horiz-adv-x="1300" unicode="Ų"/><glyph d="M721 942h102v-608q0 -92 -19 -148t-69 -102q-83 -80 -194 -96q-123 -88 -123 -172q0 -45 34 -73t76 -28t93 15l20 -82q-57 -20 -129 -20t-131 46q-59 47 -59 119q0 111 118 193q-126 12 -214 101t-87 247v608h103v-608q0 -114 66 -184t178 -70t184 78q51 57 51 176v608z " glyph-name="uogonek" horiz-adv-x="962" unicode="ų"/><glyph d="M885 1649l-150 -185h-112l219 271h92l211 -271h-109zM1276 225l358 1141h119l-434 -1366h-84l-348 1165l-346 -1165h-86l-441 1366h123l361 -1141l342 1141h102z" glyph-name="Wcircumflex" horiz-adv-x="1765" unicode="Ŵ"/><glyph d="M528 1649l-149 -185h-113l219 271h93l210 -271h-108zM590 0h-117v600l-479 766h137l397 -643l396 643h137l-471 -766v-600z" glyph-name="Ycircumflex" horiz-adv-x="1054" unicode="Ŷ"/><glyph d="M430 1260l-151 -185h-109l213 266h98l213 -266h-110zM414 172l315 770h115l-580 -1409h-112l206 502l-338 907h109z" glyph-name="ycircumflex" horiz-adv-x="864" unicode="ŷ"/><glyph d="M732 1681q36 -1 61 -25t25 -60t-26 -60q-24 -24 -60 -25q-36 0 -60 25q-24 24 -25 60q1 36 25 60t60 25zM325 1681q37 -1 61 -25t24 -60t-25 -60t-61 -25q-36 0 -60 25q-24 24 -24 60t24 61q25 24 61 24zM590 0h-117v600l-479 766h137l397 -643l396 643h137l-471 -766 v-600z" glyph-name="Ydieresis" horiz-adv-x="1054" unicode="Ÿ"/><glyph d="M655 1731h146l-228 -267h-94zM985 104v-104h-958l843 1262h-751v104h956l-846 -1262h756z" glyph-name="Zacute" horiz-adv-x="1089" unicode="Ź"/><glyph d="M508 1337h143l-225 -262h-86zM707 96v-96h-656l539 846h-477v96h657l-532 -846h469z" glyph-name="zacute" horiz-adv-x="800" unicode="ź"/><glyph d="M546 1681q36 -1 60 -25t25 -60q0 -36 -25 -60q-24 -24 -60 -25q-36 0 -61 25q-25 24 -25 60t25 61q25 24 61 24zM985 104v-104h-958l843 1262h-751v104h956l-846 -1262h756z" glyph-name="Zdotaccent" horiz-adv-x="1089" unicode="Ż"/><glyph d="M401 1276q33 0 53 -22t21 -54t-21 -53t-54 -21t-54 20t-20 54q0 32 21 54t54 22zM707 96v-96h-656l539 846h-477v96h657l-532 -846h469z" glyph-name="zdotaccent" horiz-adv-x="800" unicode="ż"/><glyph d="M545 1550l149 185h111l-217 -271h-94l-211 271h110zM985 104v-104h-958l843 1262h-751v104h956l-846 -1262h756z" glyph-name="Zcaron" horiz-adv-x="1089" unicode="Ž"/><glyph d="M403 1157l150 184h111l-215 -266h-99l-213 266h111zM707 96v-96h-656l539 846h-477v96h657l-532 -846h469z" glyph-name="zcaron" horiz-adv-x="800" unicode="ž"/><glyph d="M840 1481q20 0 37 -2l-17 -86q-94 -10 -132 -44t-56 -126l-49 -281h157l-14 -88h-160l-137 -780q-21 -152 -111 -246t-223 -100l17 96q80 4 135 70t78 176l139 784h-142l15 88h143l49 281q21 123 97 191t174 67z" glyph-name="florin" unicode="ƒ"/><glyph d="M606 1550l150 185h112l-219 -271h-92l-211 271h109zM895 465l-285 745l-291 -745h576zM936 358h-660l-145 -358h-117l537 1366h127l520 -1366h-129z" glyph-name="uni01CD" horiz-adv-x="1212" unicode="Ǎ"/><glyph d="M578 1157l151 184h109l-213 -266h-101l-213 266h111zM526 862q-160 0 -246 -119t-85 -281q0 -162 94 -273q94 -109 238 -109t248 119q103 119 103 287t-96 272t-256 104zM877 942h102v-942h-102v209q-137 -225 -353 -225q-190 0 -313 137t-123 350t122 350t312 137 q222 0 355 -190v174z" glyph-name="uni01CE" horiz-adv-x="1148" unicode="ǎ"/><glyph d="M651 1550l150 185h112l-219 -271h-94l-209 271h109zM274 1366v-819q0 -150 24 -232q43 -147 205 -205q75 -28 142 -28q150 0 266 102q66 61 88 135q23 74 23 234v813h123v-819q0 -156 -25 -245t-90 -165q-139 -162 -382 -162t-386 172q-61 74 -83 156t-21 244v819h116z " glyph-name="uni01D3" horiz-adv-x="1300" unicode="Ǔ"/><glyph d="M737 1550l152 185h110l-217 -271h-94l-211 271h109zM748 725h634v-84q0 -186 -78 -337q-78 -152 -224 -240t-326 -89q-287 0 -472 199q-186 199 -186 509t184 509t480 199q295 0 487 -242l-86 -72q-82 88 -119 113q-125 94 -288 94q-229 0 -384 -173t-155 -428t152 -428 t376 -173q125 0 246 64t198 178q77 112 83 297h-522v104z" glyph-name="Gcaron" horiz-adv-x="1478" unicode="Ǧ"/><glyph d="M578 1157l149 184h111l-215 -266h-99l-213 266h111zM540 862q-153 0 -249 -108t-96 -279t96 -283q97 -112 245 -112t259 127q76 92 75 270q0 97 -16 155t-57 109q-104 121 -257 121zM874 942h103v-987q0 -205 -119 -321t-330 -115q-258 0 -391 164l78 75q55 -59 90 -82 q90 -57 246 -57t252 100q72 78 71 236v252q-63 -102 -120 -148q-102 -76 -236 -75q-182 0 -306 139t-124 346q0 113 40 215t110 168q106 106 286 106q110 0 192 -47t158 -153v184z" glyph-name="gcaron" horiz-adv-x="1146" unicode="ǧ"/><glyph d="M850 1731h145l-227 -267h-94zM748 725h634v-84q0 -186 -78 -337q-78 -152 -224 -240t-326 -89q-287 0 -472 199q-186 199 -186 509t184 509t480 199q295 0 487 -242l-86 -72q-82 88 -119 113q-125 94 -288 94q-229 0 -384 -173t-155 -428t152 -428t376 -173q125 0 246 64 t198 178q77 112 83 297h-522v104z" glyph-name="uni01F4" horiz-adv-x="1478" unicode="Ǵ"/><glyph d="M461 -111v-114q0 -84 -28 -132t-99 -85v59q20 20 41 37q25 27 31 100h-41v135h96zM623 694q1 82 -55 126t-153 44t-153 -43t-57 -115q0 -72 46 -110q45 -37 197 -74q152 -38 221 -108t69 -180t-89 -180q-88 -71 -233 -70q-307 0 -338 278h104q6 -88 68 -137t164 -49 q100 0 158 45t58 118t-52 115q-53 42 -194 75q-142 35 -214 99t-72 176t88 183t230 71t224 -70q83 -70 89 -194h-106z" glyph-name="scommaaccent" horiz-adv-x="833" unicode="ș"/><glyph d="M489 -84v-149q0 -186 -122 -220v56q70 37 67 145h-41v168h96zM502 1262v-1262h-117v1262h-358v104h833v-104h-358z" glyph-name="uni021A" horiz-adv-x="888" unicode="Ț"/><glyph d="M297 -111v-114q0 -84 -28 -132t-99 -85v59q20 20 41 37q25 27 31 100h-41v135h96zM281 846v-699q0 -35 13 -45t54 -10h86v-92h-110q-78 0 -112 30t-34 99v717h-143v96h143v318h103v-318h153v-96h-153z" glyph-name="uni021B" horiz-adv-x="505" unicode="ț"/><glyph d="M352 1348l-200 -412l-80 35l192 422z" glyph-name="afii57929" horiz-adv-x="436" unicode="ʼ"/><glyph d="M510 1260l-152 -185h-108l213 266h100l213 -266h-110z" glyph-name="circumflex" unicode="ˆ"/><glyph d="M516 1157l150 184h110l-215 -266h-98l-213 266h110z" glyph-name="caron" unicode="ˇ"/><glyph d="M786 1247v-84h-546v84h546z" glyph-name="uni02C9" unicode="ˉ"/><glyph d="M512 1092q-112 0 -188 54t-99 148h101q51 -118 186 -118t184 118h101q-21 -94 -97 -148t-188 -54z" glyph-name="breve" unicode="˘"/><glyph d="M512 1276q33 0 53 -22q21 -22 21 -54t-22 -53t-54 -21t-52 20q-22 20 -22 54q0 32 22 54t54 22z" glyph-name="dotaccent" unicode="˙"/><glyph d="M514 1315q-43 0 -72 -28q-28 -29 -28 -71t28 -71t71 -29q42 0 71 29q28 29 28 71t-27 70q-28 29 -71 29zM514 1366q62 0 106 -44t44 -108t-44 -106q-44 -43 -106 -43t-107 43q-45 44 -45 108t44 107t108 43z" glyph-name="ring" unicode="˚"/><glyph d="M449 -184q-1 -45 33 -73t76 -28t93 15l21 -82q-57 -20 -129 -20t-131 46q-59 47 -60 119q1 121 142 207h96q-141 -94 -141 -184z" glyph-name="ogonek" unicode="˛"/><glyph d="M651 1100q-31 0 -59 13t-94 55t-99 42q-61 0 -112 -86l-72 62q94 125 184 125q41 -1 72 -15t93 -56t87 -42q64 0 113 94l72 -51q-94 -141 -185 -141z" glyph-name="tilde" unicode="˜"/><glyph d="M725 1337h137l-184 -262h-82zM451 1337h139l-184 -262h-82z" glyph-name="hungarumlaut" unicode="˝"/><glyph d="M137 497q1 35 25 59t60 24t60 -25t24 -61t-26 -59q-24 -23 -59 -23t-59 24t-25 61z" glyph-name="anoteleia" horiz-adv-x="440" unicode="·"/><glyph d="M477 543v-97h-409v97h409z" glyph-name="Wacute" horiz-adv-x="546" unicode="Ẃ"/><glyph d="M1089 1681q37 -1 61 -25t24 -60t-25 -60t-61 -25q-36 0 -60 25q-24 24 -24 60t24 61q25 24 61 24zM679 1681q37 -1 61 -25t24 -60t-25 -60t-61 -25q-36 0 -60 25q-24 24 -24 60t24 61q25 24 61 24zM1276 225l358 1141h119l-434 -1366h-84l-348 1165l-346 -1165h-86 l-441 1366h123l361 -1141l342 1141h102z" glyph-name="Wdieresis" horiz-adv-x="1765" unicode="Ẅ"/><glyph glyph-name="uni2006" horiz-adv-x="137" unicode=" "/><glyph glyph-name="uni2007" horiz-adv-x="1138" unicode=" "/><glyph d="M410 543v-97h-410v97h410z" glyph-name="uni2011" horiz-adv-x="409" unicode="‑"/><glyph d="M852 543v-97h-682v97h682z" glyph-name="figuredash" unicode="‒"/><glyph d="M852 543v-97h-682v97h682z" glyph-name="endash" unicode="–"/><glyph d="M1225 543v-97h-1225v97h1225z" glyph-name="emdash" horiz-adv-x="1224" unicode="—"/><glyph d="M1225 543v-97h-1225v97h1225z" glyph-name="afii00208" horiz-adv-x="1224" unicode="―"/><glyph d="M0 -365h1024v-61h-1024v61zM0 -127h1024v-59h-1024v59z" glyph-name="underscoredbl" unicode="‗"/><glyph d="M84 981l201 412l80 -37l-191 -420z" glyph-name="quoteleft" horiz-adv-x="436" unicode="‘"/><glyph d="M352 1348l-200 -412l-80 35l192 422z" glyph-name="quoteright" horiz-adv-x="436" unicode="’"/><glyph d="M352 123l-200 -412l-80 37l192 422z" glyph-name="quotesinglbase" horiz-adv-x="436" unicode="‚"/><glyph d="M84 909l221 484l80 -37l-207 -492zM426 909l223 484l78 -37l-205 -490z" glyph-name="quotedblleft" horiz-adv-x="790" unicode="“"/><glyph d="M707 1350l-224 -486l-80 37l207 492zM362 1350l-221 -486l-78 37l205 490z" glyph-name="quotedblright" horiz-adv-x="790" unicode="”"/><glyph d="M707 127l-224 -485l-80 36l207 492zM362 127l-221 -485l-78 36l205 490z" glyph-name="quotedblbase" horiz-adv-x="790" unicode="„"/><glyph d="M465 1366h96v-369h299v-88h-299v-1360h-96v1360h-301v88h301v369z" glyph-name="dagger" unicode="†"/><glyph d="M465 1366h96v-369h299v-88h-299v-903h299v-88h-299v-369h-96v369h-301v88h301v903h-301v88h301v369z" glyph-name="daggerdbl" unicode="‡"/><glyph d="M686 977q117 0 200 -84t83 -201q0 -118 -83 -200t-200 -82t-201 83t-84 201t84 200q84 83 201 83z" glyph-name="bullet" horiz-adv-x="1366" unicode="•"/><glyph d="M1103 158q35 0 59 -25t24 -61t-25 -59t-59 -23t-60 24q-24 24 -24 61q0 35 24 59t61 24zM663 158q35 0 59 -25t24 -61t-26 -59q-24 -23 -58 -23t-60 24q-24 24 -24 61q0 35 24 59t61 24zM137 75q1 35 25 59t60 24t60 -25t24 -61t-26 -59q-24 -23 -59 -23t-59 24t-25 61z " glyph-name="ellipsis" horiz-adv-x="1320" unicode="…"/><glyph d="M1292 434v-190q0 -68 3 -88t18 -39q33 -47 105 -47t104 53q16 31 16 110v224q0 150 -119 149q-70 0 -102 -39q-17 -19 -21 -41t-4 -92zM1606 211q0 -211 -184 -211q-108 0 -160 63q-27 31 -32 53t-5 97v223q0 135 49 187q49 53 140 53t145 -53q33 -31 40 -61t7 -126v-225 zM1098 1337l-957 -1349l-59 43l954 1347zM760 434v-190q0 -68 3 -88t17 -39q33 -47 105 -47t104 53q16 31 17 110v224q0 150 -119 149q-70 0 -103 -39q-16 -19 -20 -41t-4 -92zM1073 211q0 -211 -184 -211q-108 0 -160 63q-27 31 -32 53t-5 97v223q0 135 49 187 q49 53 141 53t144 -53q33 -31 40 -61t7 -126v-225zM174 1122v-190q0 -68 3 -88t18 -39q33 -47 105 -47t103 53q16 31 17 111v223q0 150 -119 149q-70 0 -102 -39q-17 -19 -21 -41t-4 -92zM487 1124v-225q0 -92 -28 -137q-47 -74 -155 -74t-161 64q-27 30 -31 52t-6 97v223 q0 136 50 188t140 52q91 0 144 -53q33 -31 40 -61t7 -126z" glyph-name="perthousand" horiz-adv-x="1712" unicode="‰"/><glyph d="M195 479l213 -338h-99l-213 338l213 352h99z" glyph-name="guilsinglleft" horiz-adv-x="516" unicode="‹"/><glyph d="M322 494l-213 337h98l213 -337l-213 -353h-98z" glyph-name="guilsinglright" horiz-adv-x="516" unicode="›"/><glyph d="M633 217v-217h-111v217h111zM633 1366v-365l-21 -632h-65l-21 632v365h107zM246 217v-217h-111v217h111zM244 1366v-365l-21 -632h-65l-21 632v365h107z" glyph-name="exclamdbl" horiz-adv-x="768" unicode="‼"/><glyph d="M0 1731h1024v-74h-1024v74z" glyph-name="uni203E" unicode="‾"/><glyph d="M633 1323l-957 -1350l-59 43l954 1350z" glyph-name="fraction" horiz-adv-x="249" unicode="⁄"/><glyph d="M166 1071v-264q0 -80 6 -106t31 -50q49 -49 131 -49q168 0 168 182v320q0 88 -49 129q-51 41 -131 41t-127 -64q-29 -39 -29 -139zM586 784q0 -260 -256 -260q-126 0 -195 74q-33 33 -43 75t-10 134v268q0 82 10 124t39 75q61 78 191 78t196 -58q68 -58 68 -186v-324z " glyph-name="uni2070" horiz-adv-x="669" unicode="⁰"/><glyph d="M412 805v344l-250 -344h250zM412 725h-353v57l437 604v-581h110v-80h-110v-190h-84v190z" glyph-name="uni2074" horiz-adv-x="669" unicode="⁴"/><glyph d="M203 1257v-213q61 20 125 21q120 0 198 -76q78 -77 78 -195t-83 -195t-212 -77q-193 0 -260 168l82 29q27 -49 47 -70q45 -49 132 -49t147 57q59 57 59 141t-57 137q-57 52 -132 52t-115 -19t-93 -73v442h350v-80h-266z" glyph-name="uni2075" horiz-adv-x="669" unicode="⁵"/><glyph d="M522 781q0 75 -54 127t-133 53q-79 -1 -134 -51t-55 -126t54 -130q56 -54 134 -54t133 53t55 128zM342 1034q115 0 192 -72q76 -72 76 -179q0 -109 -82 -185t-196 -76t-195 78q-80 78 -80 191q0 70 52 147l260 399h104l-211 -315q35 12 80 12z" glyph-name="uni2076" horiz-adv-x="669" unicode="⁶"/><glyph d="M125 1257v80h475l-344 -802h-96l313 722h-348z" glyph-name="uni2077" horiz-adv-x="669" unicode="⁷"/><glyph d="M335 942q-73 0 -126 -50t-53 -121t52 -121t126 -50t126 50t52 121t-52 121t-125 50zM332 1276q-62 0 -102 -33t-40 -85t41 -88t101 -36t102 38q43 38 43 85t-42 83q-41 36 -103 36zM229 987q-125 45 -125 185q0 72 66 125q66 55 165 55t164 -54t65 -126 q-1 -142 -124 -185q160 -49 160 -233q0 -94 -76 -162q-76 -70 -192 -70t-190 68t-74 161q0 182 161 236z" glyph-name="uni2078" horiz-adv-x="669" unicode="⁸"/><glyph d="M337 1274q-79 0 -134 -52t-55 -128t54 -128t134 -52t133 50t53 128t-53 130t-132 52zM326 838q-113 0 -190 72t-77 181t82 185t198 76q115 0 193 -75t78 -168t-43 -159l-262 -415h-104l207 317q-39 -14 -82 -14z" glyph-name="uni2079" horiz-adv-x="669" unicode="⁹"/><glyph d="M166 537v-267q0 -78 6 -104t31 -51q49 -49 131 -49q168 0 168 184v319q0 88 -49 129q-51 41 -131 41t-127 -63q-29 -39 -29 -139zM332 817q254 0 254 -246v-321q0 -264 -254 -262q-127 0 -197 73q-33 33 -43 75t-10 134v269q0 84 10 126t39 74q61 78 201 78z" glyph-name="uni2080" horiz-adv-x="669" unicode="₀"/><glyph d="M438 0h-84v680l-204 -137v84l288 200v-827z" glyph-name="uni2081" horiz-adv-x="669" unicode="₁"/><glyph d="M545 80v-80h-479l303 397q75 97 97 139q56 106 -22 171q-44 35 -116 35t-106 -38q-34 -36 -36 -120h-84q12 233 236 233q102 0 168 -55q66 -54 66 -144t-95 -210l-252 -328h320z" glyph-name="uni2082" horiz-adv-x="669" unicode="₂"/><glyph d="M111 723v80h487l-256 -301q108 0 182 -71t74 -181t-82 -187q-82 -75 -194 -75q-218 1 -277 184l78 27q49 -133 182 -133q86 0 146 53q59 53 59 130t-58 126t-132 49t-138 -33l-22 27l264 305h-313z" glyph-name="uni2083" horiz-adv-x="669" unicode="₃"/><glyph d="M412 270v344l-250 -344h250zM412 190h-353v58l437 604v-582h110v-80h-110v-190h-84v190z" glyph-name="uni2084" horiz-adv-x="669" unicode="₄"/><glyph d="M203 723v-213q59 20 125 20q120 0 198 -76t78 -194q0 -120 -83 -196t-212 -76q-193 0 -260 168l82 28q35 -68 75 -94t116 -24q76 0 135 57t59 141t-57 136t-132 52t-115 -18q-40 -20 -93 -74v443h350v-80h-266z" glyph-name="uni2085" horiz-adv-x="669" unicode="₅"/><glyph d="M335 426q-79 0 -134 -50t-55 -126t54 -131q56 -55 134 -55t133 52q55 54 55 130t-54 128t-133 52zM57 254q0 70 52 147l260 402h104l-211 -316q35 12 80 13q115 0 192 -72q76 -72 76 -180t-81 -185t-197 -77t-195 78q-80 78 -80 190z" glyph-name="uni2086" horiz-adv-x="669" unicode="₆"/><glyph d="M125 723v80h475l-344 -803h-96l313 723h-348z" glyph-name="uni2087" horiz-adv-x="669" unicode="₇"/><glyph d="M512 236q0 70 -52 120t-125 50t-126 -50t-53 -120t52 -120t126 -50t126 50t52 120zM477 622q0 48 -42 84q-41 36 -103 35t-102 -33t-40 -84t41 -89t101 -37t102 38q43 38 43 86zM229 453q-125 44 -125 182q0 72 66 127t165 55t164 -54t64 -138q0 -127 -123 -172 q160 -49 160 -233q0 -94 -76 -163t-192 -69t-190 68t-74 160q0 183 161 237z" glyph-name="uni2088" horiz-adv-x="669" unicode="₈"/><glyph d="M337 739q-79 0 -134 -52t-55 -128t54 -128t134 -52t133 50t53 128t-53 130t-132 52zM326 303q-113 0 -190 73q-77 72 -77 180t82 184t198 77q115 0 193 -75t78 -167t-43 -161l-262 -414h-104l207 317q-39 -14 -82 -14z" glyph-name="uni2089" horiz-adv-x="669" unicode="₉"/><glyph d="M889 942h102v-170q37 84 88 125q78 61 191 61h41v-100h-35q-119 -2 -202 -92t-83 -274v-492h-102v942zM301 1262v-519h561v-104h-561v-639h-117v1366h678v-104h-561z" glyph-name="franc" horiz-adv-x="1351" unicode="₣"/><glyph d="M684 743v-51h-254q57 -106 76 -207h184v-53h-188q0 -180 -180 -342q29 12 32 16q88 41 154 41q66 -1 185 -41t179 -40t137 40t126 101l47 -84q-152 -156 -318 -156q-74 0 -200 46t-189 46q-102 0 -223 -86l-64 86q100 72 158 172q57 100 55 201h-251v53h247 q-18 96 -86 207h-161v51h133q-86 152 -86 248q0 160 128 259t334 100q457 0 463 -467h-98q-8 375 -349 377q-169 0 -266 -75t-98 -198q1 -53 17 -98t73 -146h283z" glyph-name="lira" horiz-adv-x="1193" unicode="₤"/><glyph d="M1481 510q-53 0 -86 -24t-33 -64t27 -60t120 -42t133 -62q50 -45 50 -113q0 -67 -58 -111t-149 -44q-201 0 -219 178h82q6 -111 139 -111q55 0 89 25q34 24 34 64t-32 64t-108 40q-190 45 -190 170q0 72 57 116t149 44t146 -44t56 -126h-84q-2 100 -123 100zM1059 500 v-406q0 -16 6 -21t29 -5h61v-68h-78q-98 0 -98 82v418h-88v69h88v189h80v-189h96v-69h-96zM301 653h209q121 0 188 25q90 27 145 104q54 78 54 178t-56 176q-55 76 -145 102q-90 24 -225 24h-170v-609zM301 549v-549h-117v1366h330q240 0 363 -98q135 -112 135 -316 t-150 -319q-106 -84 -330 -84h-231z" glyph-name="peseta" horiz-adv-x="1761" unicode="₧"/><glyph d="M621 1391q98 -1 196 -55t172 -148l-53 -113q-127 209 -320 209q-125 0 -219 -125t-123 -328h566l-43 -96h-533q-2 -18 -2 -57t4 -60h484l-43 -96h-433q29 -200 122 -320t222 -120q94 0 180 53q85 53 142 150v-160q-150 -150 -322 -150q-139 0 -262 109q-171 152 -202 438 h-131l40 96h82q-2 25 -2 60t2 57h-122l40 96h91q16 109 39 175q51 170 171 278t257 107z" glyph-name="Euro" unicode="€"/><glyph d="M1630 598q0 158 -155 160q-70 0 -114 -42t-44 -106t39 -95q40 -29 158 -67t168 -92t50 -146q0 -93 -72 -159q-73 -65 -191 -65t-182 60t-62 173h82q6 -82 44 -121q37 -39 117 -39t129 43q49 44 49 108t-38 98q-39 34 -153 69t-159 74q-68 57 -68 156t69 163t180 64 t175 -62t64 -174h-86zM1542 1323l-956 -1350l-60 43l955 1350zM590 834l-164 411l-170 -411h334zM623 758h-398l-90 -211h-90l338 819h90l330 -819h-98z" glyph-name="uni2101" horiz-adv-x="1802" unicode="℁"/><glyph d="M225 713q1 33 23 57t56 23q34 0 56 -23q22 -24 23 -56q0 -32 -23 -56q-24 -24 -56 -24t-56 24q-24 22 -23 55z" glyph-name="afii61248" horiz-adv-x="606" unicode="℅"/><glyph d="M795 1231q0 90 -56 90q-63 -1 -112 -145t-115 -531q170 184 238 371q45 125 45 215zM428 106q0 -53 41 -53q53 0 101 104q24 50 46 50t21 -29q0 -29 -35 -86q-68 -125 -166 -125q-59 0 -95 42t-36 113t29 304q-94 -98 -121 -98q-8 0 -15 8q-8 8 -8 21t52 57t106 110 q86 444 181 654t212 208q53 0 85 -42t32 -113q0 -307 -362 -682q-68 -350 -68 -443z" glyph-name="afii61289" unicode="ℓ"/><glyph d="M156 1321q23 0 38 -16q15 -15 15 -37t-16 -38t-38 -18q-22 0 -38 16t-17 40q0 23 16 38t40 15zM197 1116v-569h-80v569h80z" glyph-name="uni2117" horiz-adv-x="311" unicode="℗"/><glyph d="M805 547h-88v819h71l340 -653l347 653h69v-819h-88v610l-328 -620l-323 620v-610zM340 1290v-743h-88v743h-223v76h532v-76h-221z" glyph-name="trademark" horiz-adv-x="1671" unicode="™"/><glyph d="M55 0v92h408q-410 231 -410 647q0 279 181 469q180 190 446 190t447 -190t182 -469q0 -416 -410 -647h408v-92h-527v88q152 82 238 180q184 201 184 452t-150 418q-151 167 -371 167t-371 -167t-150 -411q0 -295 223 -502q70 -63 199 -137v-88h-527z" glyph-name="uni2126" horiz-adv-x="1363" unicode="Ω"/><glyph d="M1030 723v80h488l-256 -301q108 0 182 -71t74 -181t-82 -187q-82 -75 -194 -75q-218 1 -277 184l77 27q49 -133 183 -133q86 0 145 53q60 53 60 130t-58 126t-132 49t-138 -33l-23 27l264 305h-313zM1303 1323l-955 -1350l-61 43l956 1350zM438 535h-84v682l-204 -140v84 l288 201v-827z" glyph-name="onethird" horiz-adv-x="1589" unicode="⅓"/><glyph d="M1030 723v80h488l-256 -301q108 0 182 -71t74 -181t-82 -187q-82 -75 -194 -75q-218 1 -277 184l77 27q49 -133 183 -133q86 0 145 53q60 53 60 130t-58 126t-132 49t-138 -33l-23 27l264 305h-313zM1303 1323l-957 -1350l-59 43l956 1350zM545 614v-79h-479l303 399 q74 94 96 136q23 42 23 90t-44 83t-116 35t-106 -37t-36 -121h-84q12 233 236 234q102 0 168 -56t66 -144q0 -89 -95 -210l-252 -330h320z" glyph-name="twothirds" horiz-adv-x="1589" unicode="⅔"/><glyph d="M1256 406q-73 0 -126 -50t-53 -120t52 -120t126 -50t126 50t53 120q0 70 -52 120t-126 50zM1252 741q-62 -1 -100 -33q-40 -32 -40 -84t41 -89t100 -37t103 38q43 38 43 86t-42 84q-43 35 -105 35zM1151 453q-125 44 -125 182q0 72 66 127t164 55t164 -54q65 -53 65 -125 q0 -141 -123 -185q160 -49 160 -233q0 -94 -76 -163t-192 -69t-190 68t-75 160q0 185 162 237zM1303 1323l-955 -1350l-61 43l956 1350zM438 535h-84v682l-204 -140v84l288 201v-827z" glyph-name="oneeighth" horiz-adv-x="1589" unicode="⅛"/><glyph d="M1254 406q-73 0 -126 -50t-53 -120t52 -120t126 -50t126 50t53 120q0 70 -52 120t-126 50zM1252 741q-62 -1 -100 -33q-40 -32 -40 -84t41 -89t100 -37t103 38q43 38 43 86t-42 84q-43 35 -105 35zM1149 453q-123 43 -123 182q0 72 66 127t164 55t164 -54q65 -54 65 -138 q0 -127 -125 -172q160 -49 160 -233q0 -94 -76 -163t-192 -69t-190 68t-75 160q0 184 162 237zM1303 1323l-957 -1350l-59 43l954 1350zM111 1257v80h487l-256 -299q108 0 182 -72t74 -182t-82 -186t-194 -76q-219 0 -277 187l78 24q49 -133 182 -133q86 0 146 53 q59 53 59 130t-58 126t-132 49t-138 -32l-22 26l264 305h-313z" glyph-name="threeeighths" horiz-adv-x="1589" unicode="⅜"/><glyph d="M1254 406q-73 0 -126 -50t-53 -120t52 -120t126 -50t126 50t53 120q0 70 -52 120t-126 50zM1250 741q-62 -1 -100 -33q-40 -32 -40 -84t42 -89t100 -37t103 38q44 38 44 86t-43 84q-44 35 -106 35zM1149 453q-125 44 -125 182q0 72 66 127t166 55t164 -54q65 -53 65 -125 q0 -141 -125 -185q160 -49 160 -233q0 -94 -76 -163t-192 -69t-190 68t-75 160q0 184 162 237zM1303 1323l-957 -1350l-59 43l954 1350zM203 1257v-213q61 20 125 21q120 0 198 -76q78 -77 78 -195t-83 -195t-212 -77q-193 0 -260 168l82 29q27 -49 47 -70q45 -49 132 -49 t147 57q59 57 59 141t-57 137q-57 52 -132 52t-115 -19t-93 -73v442h350v-80h-266z" glyph-name="fiveeighths" horiz-adv-x="1589" unicode="⅝"/><glyph d="M1255 406q-74 0 -127 -50t-53 -120t52 -120t127 -50t127 49q53 49 53 120t-52 121t-127 50zM1252 741q-62 -1 -100 -33q-40 -32 -40 -84t41 -89t100 -37t103 38q43 38 43 86t-42 84q-43 35 -105 35zM1151 453q-125 44 -125 182q0 72 66 127t164 55t164 -54 q65 -54 65 -138q0 -123 -125 -172q162 -49 162 -233q0 -94 -76 -163t-193 -69t-191 68t-75 160q0 184 164 237zM1303 1323l-957 -1350l-59 43l956 1350zM125 1257v80h475l-344 -802h-96l313 722h-348z" glyph-name="seveneighths" horiz-adv-x="1589" unicode="⅞"/><glyph d="M1337 743v-104h-1024q31 -39 69 -115t38 -98q0 -29 -31 -29q-16 0 -45 35q-92 109 -270 213q-47 23 -47 42t32 38q125 74 178 116q52 42 119 122q16 18 33 18q31 0 31 -31q0 -59 -107 -207h1024z" glyph-name="arrowleft" horiz-adv-x="1366" unicode="←"/><glyph d="M737 27h-104v1024q-41 -31 -116 -69t-97 -38q-29 0 -29 31q0 16 35 47q109 90 211 270q27 47 45 47t37 -34q76 -127 118 -179t119 -118q18 -16 19 -33q0 -31 -31 -31q-55 0 -207 107v-1024z" glyph-name="arrowup" horiz-adv-x="1366" unicode="↑"/><glyph d="M27 635v104h1024q-31 39 -69 115t-38 98q0 29 31 29q16 0 45 -35q96 -115 270 -213q47 -27 47 -41q0 -20 -32 -39q-127 -76 -179 -116q-51 -41 -118 -121q-16 -18 -33 -19q-31 0 -31 31q0 59 107 207h-1024z" glyph-name="arrowright" horiz-adv-x="1366" unicode="→"/><glyph d="M629 1337h104v-1024q39 33 115 70t98 37q29 0 29 -31q0 -16 -35 -45q-113 -96 -211 -270q-27 -47 -45 -47t-37 32q-76 127 -117 179t-120 118q-18 16 -19 33q0 31 31 31q55 0 207 -107v1024z" glyph-name="arrowdown" horiz-adv-x="1366" unicode="↓"/><glyph d="M420 428q0 -31 -31 -31q-13 -1 -29 17t-46 53q-69 80 -267 195q-20 12 -20 29t47 44q170 96 270 211q29 35 45 35q31 0 31 -29q0 -24 -38 -98t-71 -115h740q-31 39 -69 115t-38 98q0 29 31 29q16 0 45 -35q102 -119 270 -211q47 -27 47 -45t-32 -37q-127 -78 -180 -118 q-52 -41 -117 -119q-18 -18 -33 -19q-31 0 -31 31q1 60 107 207h-740q45 -59 77 -121t32 -86z" glyph-name="arrowboth" horiz-adv-x="1366" unicode="↔"/><glyph d="M944 420q31 0 31 -31q1 -13 -17 -29q-91 -81 -133 -136q-41 -54 -114 -177q-11 -20 -29 -20t-43 47q-100 174 -213 270q-35 29 -35 45q0 31 29 31q24 0 98 -38t115 -71v740q-41 -31 -116 -69t-97 -38q-29 0 -29 31q0 16 35 47q113 94 213 270q25 47 43 47t37 -34 q76 -127 118 -179t119 -118q18 -16 19 -33q0 -31 -31 -31q-55 1 -207 107v-740q145 109 207 109z" glyph-name="arrowupdn" horiz-adv-x="1366" unicode="↕"/><glyph d="M412 -139h540v-88h-540v88zM944 420q31 0 31 -31q1 -13 -17 -29q-91 -81 -133 -136q-41 -54 -114 -177q-12 -20 -31 -20q-14 0 -43 47q-98 174 -211 270q-35 29 -35 45q0 31 29 31q24 0 98 -38t115 -71v740q-41 -31 -116 -69t-97 -38q-29 0 -29 31q0 16 35 47 q113 94 213 270q25 47 43 47t37 -34q76 -127 118 -179t119 -118q18 -16 19 -33q0 -31 -31 -31q-55 1 -207 107v-740q145 109 207 109z" glyph-name="arrowupdnbse" horiz-adv-x="1366" unicode="↨"/><glyph d="M528 811q-152 0 -254 -109q-102 -110 -102 -266t101 -266t243 -109q142 0 239 110q95 111 95 287t-115 275q-94 78 -207 78zM76 436q0 192 125 324q125 133 303 133q143 0 233 -74q33 -25 90 -102q-2 6 -10 25q-8 20 -23 62t-32 83q-76 166 -225 271t-344 132l14 88 q297 -45 475 -215q125 -123 196 -304q70 -181 70 -375t-78 -312q-57 -92 -152 -144t-204 -53q-182 1 -310 135t-128 326z" glyph-name="partialdiff" unicode="∂"/><glyph d="M252 717q0 -184 158 -311l340 673q-57 16 -111 17q-159 0 -273 -112t-114 -267zM633 336q159 0 271 112t112 267q0 96 -44 182t-120 131l-338 -676q66 -16 119 -16zM1130 717q0 -209 -147 -353t-360 -145q-94 0 -162 33l-129 -252l-99 51l125 250q-221 162 -221 414 q-1 209 145 353t355 144q80 0 166 -28l96 182l98 -51l-98 -180q231 -164 231 -418z" glyph-name="emptyset" horiz-adv-x="1265" unicode="∅"/><glyph d="M150 92h952l-475 1157zM10 0l561 1366h109l561 -1366h-1231z" glyph-name="uni2206" horiz-adv-x="1253" unicode="∆"/><glyph d="M61 1536h1244v-88h-152v-1872h152v-88h-414v88h166v1872h-746v-1872h162v-88h-412v88h154v1872h-154v88z" glyph-name="product" horiz-adv-x="1366" unicode="∏"/><glyph d="M1206 1536v-451h-98l-8 353h-914l516 -883l-514 -971h932l4 353h101v-449h-1153v113l508 954l-508 872v109h1134z" glyph-name="summation" horiz-adv-x="1366" unicode="∑"/><glyph d="M55 719h912v-66h-912v66z" glyph-name="minus" unicode="−"/><glyph d="M698 696q0 78 -53 134t-131 55q-78 1 -132 -55t-54 -134t54 -133t131 -55t131 55t54 133zM515 983q118 0 199 -84t81 -203q0 -118 -82 -202t-199 -84t-200 84t-83 202t83 203q83 84 201 84z" glyph-name="uni2218" unicode="∘"/><glyph d="M1366 1694v-90h-414l-495 -1604h-107l-192 629h-158v90h223l96 -311q23 -72 78 -273h4l13 47q96 319 215 715l245 797h492z" glyph-name="radical" horiz-adv-x="1366" unicode="√"/><glyph d="M123 697q0 -101 61 -166q60 -65 150 -65t156 52q66 51 149 178q-78 125 -147 178q-70 54 -159 54t-149 -65t-61 -166zM1031 467q89 0 150 64q60 65 60 165t-61 165q-60 65 -150 65t-157 -50q-66 -51 -148 -178q77 -125 147 -178t159 -53zM39 698q0 136 84 220t215 83 q184 0 342 -245q88 131 169 187t197 56t197 -85q82 -85 82 -219t-82 -218q-81 -84 -197 -84q-116 -1 -198 57t-164 189q-88 -131 -169 -188t-197 -57t-197 84q-82 85 -82 220z" glyph-name="infinity" horiz-adv-x="1366" unicode="∞"/><glyph d="M49 954h606v-77h-606v77z" glyph-name="orthogonal" horiz-adv-x="704" unicode="∟"/><glyph d="M1016 0h-105v662q0 211 -12 299t-51 145q-47 76 -131 120t-177 44q-94 0 -182 -50t-125 -118t-48 -160q-11 -90 -11 -280v-662h-104v655q0 254 15 345t69 169q139 197 389 197q131 0 239 -60q189 -104 222 -328q12 -89 12 -323v-655z" glyph-name="intersection" horiz-adv-x="1087" unicode="∩"/><glyph d="M70 1366h104v-661q0 -211 12 -299t52 -146q47 -76 131 -120t177 -44t181 50t125 118t48 158t11 283v661h105v-655q0 -254 -16 -345t-68 -169q-139 -197 -389 -197q-131 0 -240 60q-191 105 -221 329q-12 90 -12 322v655z" glyph-name="union" horiz-adv-x="1087" unicode="∪"/><glyph d="M664 1536q64 0 122 -23l-26 -96q-39 20 -78 21q-82 0 -104 -70q-10 -29 -11 -147v-1375q0 -135 -5 -181q-11 -103 -115 -152q-104 -48 -209 -2l26 96q41 -20 78 -21q84 0 104 70q10 31 11 172v1352q2 139 4 168q2 30 16 74q15 44 69 79t118 35z" glyph-name="integral" unicode="∫"/><glyph d="M242 528q0 -100 62 -175t155 -87v522q-93 -12 -155 -86t-62 -174zM784 527q0 101 -63 175q-64 74 -160 86v-522q100 14 162 87q61 73 61 174zM459 -195v400q-117 12 -199 106t-82 217t79 214t202 108v377q0 158 28 209q49 100 181 100q53 0 116 -23l-26 -96 q-43 20 -82 21q-86 0 -105 -70q-10 -29 -10 -141v-375q129 -18 208 -108t79 -216q0 -127 -81 -218t-206 -105v-402q0 -111 -4 -147t-20 -66q-51 -102 -195 -102q-57 0 -106 23l24 96q47 -20 82 -21q84 0 107 70q10 35 10 149z" glyph-name="uni222E" unicode="∮"/><glyph d="M304 479q28 0 48 -20t20 -48q0 -29 -18 -49q-20 -20 -49 -20t-49 19t-20 49t20 49q20 20 48 20zM305 1083q29 0 48 -20t19 -48t-20 -48q-20 -21 -48 -21t-48 20t-20 50q0 29 20 48t49 19z" glyph-name="uni2236" horiz-adv-x="606" unicode="∶"/><glyph d="M291 813q80 0 231 -80q150 -80 210 -80t108 38q47 38 96 126l63 -49q-102 -213 -270 -213q-47 0 -93 17q-46 18 -165 80t-180 62t-109 -37q-48 -38 -96 -126l-63 49q106 213 268 213z" glyph-name="similar" unicode="∼"/><glyph d="M291 651q80 0 231 -79q150 -78 210 -78t106 34q45 35 98 123l63 -43q-100 -213 -276 -213q-43 -1 -89 17t-164 80t-179 61q-61 0 -107 -35t-98 -123l-63 43q106 213 268 213zM291 969q80 0 231 -79q150 -79 210 -79t105 34q44 34 99 122l63 -43q-100 -211 -276 -211 q-45 0 -90 17q-45 16 -163 78t-179 62t-107 -35q-45 -36 -98 -122l-63 43q106 213 268 213z" glyph-name="approxequal" unicode="≈"/><glyph d="M956 872v-92h-338l-102 -217h440v-92h-479l-125 -260l-80 27l111 233h-315v92h352l104 217h-456v92h495l121 246l80 -26l-105 -220h297z" glyph-name="notequal" unicode="≠"/><glyph d="M68 422h886v-96h-886v96zM68 731h886v-96h-886v96zM68 1038h886v-96h-886v96z" glyph-name="equivalence" unicode="≡"/><glyph d="M954 285v-97h-886v97h886zM954 1182v-105l-766 -313l766 -313v-105l-886 369v98z" glyph-name="lessequal" unicode="≤"/><glyph d="M68 188v97h886v-97h-886zM68 346v105l766 313l-766 313v105l886 -369v-98z" glyph-name="greaterequal" unicode="≥"/><glyph d="M137 497q1 35 25 59t60 24t60 -25t24 -61t-26 -59q-24 -23 -59 -23t-59 24t-25 61z" glyph-name="dotmath" horiz-adv-x="440" unicode="⋅"/><glyph d="M276 104h986v672l-494 553l-492 -553v-672zM172 0v821l596 672l598 -672v-821h-1194z" glyph-name="house" horiz-adv-x="1538" unicode="⌂"/><glyph d="M174 0h-106v559h886v-96h-780v-463z" glyph-name="revlogicalnot" unicode="⌐"/><glyph d="M174 559v-463h780v-96h-886v559h106z" glyph-name="uni2319" unicode="⌙"/><glyph d="M567 -512h-110v1692q2 139 4 168q2 30 16 74q15 44 69 79t118 35t122 -23l-26 -96q-39 20 -78 21q-82 0 -104 -70q-10 -29 -11 -147v-1733z" glyph-name="integraltp" unicode="⌠"/><glyph d="M457 1536h110v-1692q0 -182 -17 -234q-18 -52 -72 -87t-118 -35t-122 23l26 96q41 -20 78 -21q82 0 104 70q10 29 11 147v1733z" glyph-name="integralbt" unicode="⌡"/><glyph d="M1366 0h-1366v1366h1366v-1366z" glyph-name="filledbox" horiz-adv-x="1366" unicode="■"/><glyph d="M1270 96v1174h-1174v-1174h1174zM1366 0h-1366v1366h1366v-1366z" glyph-name="H22073" horiz-adv-x="1366" unicode="□"/><glyph d="M49 954h260v256h82v-256h266v-77h-266v-256h-82v256h-260v77z" glyph-name="H18551" horiz-adv-x="704" unicode="▫"/><glyph d="M1366 682v-682h-1366v682h1366z" glyph-name="filledrect" horiz-adv-x="1366" unicode="▬"/><glyph d="M1024 0h-682v1366h682v-1366z" glyph-name="uni25AE" horiz-adv-x="1366" unicode="▮"/><glyph d="M684 1206q219 0 376 -152t157 -370q0 -217 -157 -372q-157 -154 -379 -154t-377 154q-154 154 -154 373q0 218 157 370q158 151 377 151z" glyph-name="uni25AF" horiz-adv-x="1366" unicode="▯"/><glyph d="M1296 137h-1228l614 1149z" glyph-name="triagup" horiz-adv-x="1366" unicode="▲"/><glyph d="M954 301h-886l444 829z" glyph-name="uni25B4" unicode="▴"/><glyph d="M145 244v886l830 -444z" glyph-name="uni25B8" unicode="▸"/><glyph d="M68 1229h1228l-614 -1149z" glyph-name="triagdn" horiz-adv-x="1366" unicode="▼"/><glyph d="M68 1065h886l-442 -829z" glyph-name="uni25BE" unicode="▾"/><glyph d="M877 1130v-886l-830 442z" glyph-name="uni25C2" unicode="◂"/><glyph d="M684 1237l-403 -553l403 -555l403 555zM684 1419l530 -735l-530 -737l-532 737z" glyph-name="lozenge" horiz-adv-x="1366" unicode="◊"/><glyph d="M684 1112q-180 0 -309 -125t-129 -303t127 -305t309 -127t310 127t128 304t-128 303t-308 126zM684 1206q219 0 376 -152t157 -370q0 -217 -157 -372q-157 -154 -379 -154t-377 154q-154 154 -154 373q0 218 157 370q158 151 377 151z" glyph-name="circle" horiz-adv-x="1366" unicode="○"/><glyph d="M684 969q-117 0 -200 -83t-83 -202t83 -203t200 -84t199 84t82 202t-82 202t-199 84zM0 0v1366h1366v-1366h-1366z" glyph-name="invbullet" horiz-adv-x="1366" unicode="◘"/><glyph d="M684 1112q180 0 308 -126t128 -303t-128 -304t-310 -127t-309 127t-127 305t129 303t309 125zM684 1208q-219 0 -377 -152q-157 -152 -157 -370q0 -219 154 -374q154 -154 377 -154q222 0 379 154t157 372q0 216 -157 370t-376 154zM1366 0h-1366v1366h1366v-1366z" glyph-name="invcircle" horiz-adv-x="1366" unicode="◙"/><glyph d="M698 696q0 78 -53 134t-131 55q-78 1 -132 -55t-54 -134t54 -133t131 -55t131 55t54 133zM515 983q118 0 199 -84t81 -203q0 -118 -82 -202t-199 -84t-200 84t-83 202t83 203q83 84 201 84z" glyph-name="openbullet" unicode="◦"/><glyph d="M675 289q-214 0 -327 168q-41 59 -58 124t-28 181q25 -111 86 -182q125 -144 335 -144t339 144q59 71 84 182q-8 -123 -31 -195t-71 -135q-115 -143 -329 -143zM887 952q37 0 63 -26t27 -64q0 -38 -27 -64q-28 -26 -64 -26t-63 27t-27 65t27 63t64 25zM401 866 q0 38 27 62q27 26 64 26q38 0 64 -26t26 -64t-27 -64t-63 -26t-64 27q-27 27 -27 65zM676 1245q-242 0 -410 -186q-145 -161 -145 -385t164 -388t398 -165q234 0 399 165t165 396t-165 397q-164 166 -406 166zM687 1331q267 0 455 -191q188 -192 189 -458q0 -266 -189 -456 q-188 -190 -458 -191q-270 0 -460 190q-189 191 -189 461t192 458q193 187 460 187z" glyph-name="smileface" horiz-adv-x="1366" unicode="☺"/><glyph d="M696 289q214 0 326 168q72 108 84 305q-25 -111 -84 -182q-129 -144 -339 -144t-335 144q-61 72 -86 182q10 -125 32 -196t73 -134q115 -143 329 -143zM887 772q37 0 63 27t27 63q-1 36 -27 64q-26 26 -63 26t-64 -26t-27 -63q0 -39 28 -65q26 -26 63 -26zM492 952 q-37 0 -64 -26t-27 -63t26 -63t64 -26q37 0 63 26t26 62t-26 64q-26 26 -62 26zM687 1331q267 0 455 -191q188 -192 189 -458q0 -266 -189 -456q-188 -190 -458 -191q-270 0 -460 190q-189 191 -189 461t192 458q193 187 460 187z" glyph-name="invsmileface" horiz-adv-x="1366" unicode="☻"/><glyph d="M684 1010q-135 0 -232 -94q-98 -94 -98 -231q0 -136 96 -232q96 -97 231 -97q136 0 231 96q96 96 96 231t-94 231t-230 96zM631 1352h102v-215q135 -16 232 -97l153 152l72 -72l-152 -151q78 -98 97 -234h215v-104h-215q-18 -131 -97 -234l152 -151l-72 -72l-153 152 q-102 -82 -232 -97v-215h-102v215q-123 12 -234 97l-153 -152l-72 72l152 151q-82 104 -95 234h-215v104h215q15 126 97 232l-154 153l72 72l153 -154q100 82 234 99v215z" glyph-name="sun" horiz-adv-x="1366" unicode="☼"/><glyph d="M954 1016q0 114 -78 196t-193 82q-114 0 -194 -81q-79 -81 -79 -197t80 -196q80 -81 192 -81t192 81t80 196zM631 428v215q-139 19 -229 125t-89 255q0 149 108 259q109 110 261 109q152 0 260 -110t109 -259q0 -148 -90 -252t-232 -127v-215h334v-88h-334v-340h-98v340 h-330v88h330z" glyph-name="female" horiz-adv-x="1366" unicode="♀"/><glyph d="M562 766q-114 0 -194 -80t-79 -196q0 -116 80 -196q81 -80 193 -81q112 0 192 81q80 82 80 196t-79 195t-193 81zM930 473q0 -139 -109 -249t-261 -110t-260 110t-108 264t109 265q109 109 247 109t243 -80l309 310q-106 25 -217 82q-43 24 -43 48t26 23q6 0 66 -12 t160 -12q102 0 200 28l21 2q20 0 20 -20q0 -9 -15 -69t-15 -152t12 -152t12 -65q0 -27 -24 -27q-14 0 -22 7q-7 7 -26 36q-63 90 -88 213l-311 -309q74 -100 74 -240z" glyph-name="male" horiz-adv-x="1366" unicode="♂"/><glyph d="M221 0v37q143 29 209 59t129 101q106 123 115 325q-25 -53 -27 -57q-41 -68 -115 -110t-164 -42t-164 76q-73 76 -73 180q0 166 213 346q291 236 336 490q53 -164 105 -240t203 -214t200 -213t49 -176t-73 -174t-177 -73q-172 0 -287 207q12 -221 120 -334t343 -151v-37 h-942z" glyph-name="spade" horiz-adv-x="1366" unicode="♠"/><glyph d="M1149 0h-932v37q231 33 342 161t111 363q-45 -78 -70 -106q-55 -70 -136 -112t-163 -42q-121 0 -208 91t-87 218t79 214t191 87q59 0 146 -41l31 -16q-72 110 -72 218t89 194t214 86t213 -86t88 -196t-72 -216q80 39 108 48t69 9q114 0 192 -87t78 -215t-87 -218 t-212 -90q-76 0 -156 39t-123 92t-86 129q4 -133 31 -217t90 -156q66 -66 128 -96t204 -55v-37z" glyph-name="club" horiz-adv-x="1366" unicode="♣"/><glyph d="M115 1048q0 102 76 181q77 80 188 80q156 0 246 -140q27 -39 55 -127q76 268 301 269q113 0 191 -79q78 -80 79 -186q0 -106 -49 -209t-176 -264q-293 -367 -346 -596q-33 137 -107 263t-274 395q-111 151 -147 231t-37 182z" glyph-name="heart" horiz-adv-x="1366" unicode="♥"/><glyph d="M682 1419q45 -96 228 -354t292 -381q-146 -174 -290 -378t-230 -359q-145 276 -518 737q368 463 518 735z" glyph-name="diamond" horiz-adv-x="1366" unicode="♦"/><glyph d="M627 1366h94v-125q29 -37 31 -37l106 -129q186 -219 186 -461q0 -186 -116 -331h-58q68 158 68 298t-65 244t-152 117v-623q0 -147 -87 -242t-224 -95q-66 0 -104 32t-38 92q0 92 75 164t173 72q60 0 111 -23v1047z" glyph-name="musicalnote" horiz-adv-x="1366" unicode="♪"/><glyph d="M494 918l673 184v143l-673 -184v-143zM1262 393q0 -199 -149 -290q-75 -46 -152 -46t-113 33t-37 90q0 94 75 165t171 71q59 0 110 -23v553l-673 -184v-483q0 -145 -87 -239t-225 -95q-66 1 -104 33t-37 90q0 90 75 160t173 71q53 0 110 -20v923l863 219v-1028z" glyph-name="uni266C" horiz-adv-x="1366" unicode="♬"/><glyph d="M272 942v-1075q0 -164 -78 -255t-208 -91h-31v98h12q90 0 147 70q56 70 56 178v1075h102z" glyph-name="uniF6BE" horiz-adv-x="444" unicode=""/><glyph d="M555 -111v-114q0 -84 -28 -132t-99 -85v59q20 20 41 37q25 27 31 100h-41v135h96z" glyph-name="uniF6C3" unicode=""/><glyph d="M623 1731h145l-227 -267h-95z" glyph-name="uniF6C9" unicode=""/><glyph d="M512 1550l150 185h112l-217 -271h-94l-211 271h108z" glyph-name="uniF6CA" unicode=""/><glyph d="M718 1681q36 -1 60 -25t25 -60q0 -36 -25 -60q-24 -24 -60 -25q-36 0 -61 25q-25 24 -25 60t25 61q25 24 61 24zM308 1681q36 -1 61 -25t25 -60t-26 -60q-24 -24 -60 -25q-36 0 -60 25q-24 24 -25 60q1 36 25 60t60 25z" glyph-name="uniF6CB" unicode=""/><glyph d="M401 1731l177 -267h-95l-227 267h145z" glyph-name="uniF6CE" unicode=""/><glyph d="M741 1731h142l-187 -267h-90zM440 1731h142l-187 -267h-90z" glyph-name="uniF6CF" unicode=""/><glyph d="M799 1636v-90h-574v90h574z" glyph-name="uniF6D0" unicode=""/><glyph d="M223 637l-141 -313l-62 26l130 318z" glyph-name="uniF6E2" horiz-adv-x="280" unicode=""/><glyph d="M140 657q24 0 41 -17t17 -41t-16 -41q-18 -17 -42 -17t-41 17t-17 41t17 41t41 17z" glyph-name="uniF6E8" horiz-adv-x="280" unicode=""/><glyph d="M632 1585q140 0 193 113h107q-23 -94 -103 -148q-81 -54 -197 -55q-116 0 -196 54q-79 55 -102 149h106q52 -113 192 -113zM301 1262v-1158h64q207 0 306 22t179 85q201 152 201 500q-1 268 -135 409t-388 142h-227zM184 0v1366h351q291 0 463 -177t171 -495 q0 -318 -182 -506t-508 -188h-295z" glyph-name="glyph465" horiz-adv-x="1265"/><glyph d="M607 1681q36 -1 61 -25q24 -24 24 -60t-24 -60t-61 -25q-37 0 -61 25q-24 24 -24 60t24 60t61 25zM895 465l-285 745l-291 -745h576zM936 358h-660l-145 -358h-117l537 1366h127l520 -1366h-129z" glyph-name="glyph466" horiz-adv-x="1212"/><glyph d="M462 1681q36 -1 60 -25t25 -60q0 -36 -25 -60q-24 -24 -60 -25q-36 0 -61 25q-25 24 -25 60t25 61q25 24 61 24zM301 1262v-519h561v-104h-561v-639h-117v1366h678v-104h-561z" glyph-name="glyph467" horiz-adv-x="923"/><glyph d="M788 1337h138l-185 -262h-82zM514 1337h139l-184 -262h-82zM526 862q-160 0 -246 -119t-85 -281q0 -162 94 -273q94 -109 238 -109t248 119q103 119 103 287t-96 272t-256 104zM877 942h102v-942h-102v209q-137 -225 -353 -225q-190 0 -313 137t-123 350t122 350t312 137 q222 0 355 -190v174z" glyph-name="glyph468" horiz-adv-x="1148"/><glyph d="M574 1276q34 0 54 -22t21 -54t-21 -53t-54 -21t-54 20t-20 54q0 32 20 54t54 22zM526 862q-160 0 -246 -119t-85 -281q0 -162 94 -273q94 -109 238 -109t248 119q103 119 103 287t-96 272t-256 104zM877 942h102v-942h-102v209q-137 -225 -353 -225q-190 0 -313 137 t-123 350t122 350t312 137q222 0 355 -190v174z" glyph-name="glyph469" horiz-adv-x="1148"/><glyph d="M307 805h-59v467l-144 -96v57l203 139v-567z" glyph-name="one.numr" horiz-adv-x="468"/><glyph d="M381 860v-55h-336l213 272q82 105 82 147t-31 66t-78 23q-100 0 -100 -109h-61q12 160 166 160q72 0 118 -38t45 -98q0 -60 -65 -145l-176 -223h223z" glyph-name="two.numr" horiz-adv-x="468"/><glyph d="M76 1298v56h342l-180 -207q74 2 126 -47t52 -125t-58 -127t-135 -51q-158 0 -192 127l55 16q31 -90 125 -90q59 0 101 37t42 89t-40 85t-93 33t-94 -23l-16 19l184 208h-219z" glyph-name="three.numr" horiz-adv-x="468"/><glyph d="M289 989v236l-174 -236h174zM289 934h-246v41l305 411v-397h78v-55h-78v-129h-59v129z" glyph-name="four.numr" horiz-adv-x="468"/><glyph d="M143 1298v-145q41 14 86 14q81 0 137 -52t56 -132t-57 -133t-148 -53q-133 0 -182 114l59 19q40 -80 112 -80t113 39t41 96t-39 93q-40 36 -106 36t-131 -63v303h244v-56h-185z" glyph-name="five.numr" horiz-adv-x="468"/><glyph d="M236 1096q-54 0 -94 -34t-40 -85t38 -89t93 -38t95 37q39 37 39 87t-38 86t-93 36zM240 1147q82 0 135 -49t53 -123t-57 -126t-139 -52t-136 52q-55 53 -55 115t37 115l182 275h72l-148 -215q25 8 56 8z" glyph-name="six.numr" horiz-adv-x="468"/><glyph d="M88 1298v56h332l-240 -549h-67l219 493h-244z" glyph-name="seven.numr" horiz-adv-x="468"/><glyph d="M235 1083q-52 0 -90 -33q-37 -34 -37 -82t38 -83q36 -35 88 -35t89 34q35 34 35 82t-35 83q-36 34 -88 34zM336 1231q0 33 -30 57t-72 25q-43 0 -72 -23q-29 -22 -29 -58t30 -61q29 -25 69 -25t72 26t32 59zM420 967q0 -76 -52 -123t-134 -47t-135 46q-52 47 -52 111 q0 126 113 160q-86 33 -86 119q0 57 46 94t116 37t114 -37t45 -94q0 -88 -88 -117q113 -35 113 -149z" glyph-name="eight.numr" horiz-adv-x="468"/><glyph d="M236 1311q-54 0 -94 -37t-40 -88t38 -87t93 -36t94 36q38 36 38 88t-37 88t-92 36zM227 1012q-78 0 -132 50t-54 124t56 126q57 52 139 52t136 -50t54 -116t-29 -108l-184 -285h-74l146 217q-29 -10 -58 -10z" glyph-name="nine.numr" horiz-adv-x="468"/><glyph d="M117 1174v-183q0 -55 4 -72t20 -34q37 -33 92 -33q117 0 117 125v217q0 117 -117 117q-61 -1 -89 -33t-27 -104zM410 1196v-219q0 -178 -177 -178q-88 0 -132 45t-44 147v185q0 94 39 141t128 47t141 -41q45 -39 45 -127z" glyph-name="zero.numr" horiz-adv-x="468"/><glyph d="M307 0h-59v465l-144 -94v57l203 137v-565z" glyph-name="one.dnom" horiz-adv-x="468"/><glyph d="M381 55v-55h-336l213 272q82 106 82 148t-31 64q-31 24 -78 24q-100 0 -100 -109h-61q12 160 166 160q72 0 118 -38t45 -98q0 -60 -65 -144l-176 -224h223z" glyph-name="two.dnom" horiz-adv-x="468"/><glyph d="M76 494v55h342l-180 -205q74 0 126 -50t52 -125t-58 -126t-135 -51q-78 0 -127 34t-65 93l55 16q31 -90 125 -90q59 0 101 37t42 89t-40 85t-93 33t-94 -23l-16 19l184 209h-219z" glyph-name="three.dnom" horiz-adv-x="468"/><glyph d="M289 184v236l-174 -236h174zM289 129h-246v41l305 412v-398h78v-55h-78v-129h-59v129z" glyph-name="four.dnom" horiz-adv-x="468"/><glyph d="M143 494v-146q41 14 86 14q81 0 137 -52t56 -132t-57 -133t-148 -53q-133 0 -182 114l59 21q25 -45 51 -64q27 -18 80 -18t94 39t41 96t-39 93q-40 36 -106 36t-131 -63v303h244v-55h-185z" glyph-name="five.dnom" horiz-adv-x="468"/><glyph d="M236 291q-54 0 -94 -34t-40 -85t38 -89t93 -38t95 37q39 37 39 87t-38 86t-93 36zM240 342q82 0 135 -49t53 -123t-57 -126t-139 -52t-136 52q-55 52 -55 114t37 116l182 275h72l-148 -215q25 8 56 8z" glyph-name="six.dnom" horiz-adv-x="468"/><glyph d="M88 494v55h332l-240 -549h-67l219 494h-244z" glyph-name="seven.dnom" horiz-adv-x="468"/><glyph d="M235 276q-52 0 -90 -33q-37 -34 -37 -81t38 -82q36 -35 88 -35t89 34q35 34 35 82t-35 82q-36 33 -88 33zM336 426q0 32 -30 58q-30 24 -73 24q-42 0 -71 -23t-29 -59t30 -60q31 -26 71 -26t71 27t31 59zM420 160q0 -74 -53 -121t-135 -47t-133 46q-52 46 -52 118 q0 117 113 153q-86 31 -86 117q0 57 46 95t116 38t114 -38t45 -95q0 -88 -88 -117q113 -33 113 -149z" glyph-name="eight.dnom" horiz-adv-x="468"/><glyph d="M236 506q-54 0 -94 -37t-40 -88t38 -87t93 -36t94 36q38 36 38 88t-37 88t-92 36zM227 207q-78 0 -132 50t-54 124t56 126q57 52 139 52t136 -50q54 -51 54 -117t-29 -109l-184 -283h-74l146 217q-29 -10 -58 -10z" glyph-name="nine.dnom" horiz-adv-x="468"/><glyph d="M117 367v-183q0 -55 4 -72t20 -34q37 -33 92 -33q117 0 117 125v219q0 117 -117 117q-61 0 -89 -32t-27 -107zM231 559q179 0 179 -168v-221q0 -178 -177 -178q-88 0 -132 45t-44 147v185q0 94 39 142t135 48z" glyph-name="zero.dnom" horiz-adv-x="468"/><glyph d="M1358 0h-84v680l-205 -137v84l289 200v-827zM1303 1323l-955 -1350l-61 43l956 1350zM438 535h-84v682l-204 -140v84l288 201v-827z" glyph-name="one_slash_one.frac" horiz-adv-x="1589"/><glyph d="M1124 723v-213q59 20 123 20q121 0 199 -76t78 -193t-83 -195t-210 -78q-188 0 -260 168l82 28q35 -68 73 -94t116 -24q77 0 135 57t59 141q0 84 -58 136t-130 52q-74 0 -114 -18q-40 -20 -94 -74v443h349v-80h-265zM1303 1323l-955 -1350l-61 43l956 1350zM438 535h-84 v682l-204 -140v84l288 201v-827z" glyph-name="one_slash_five.frac" horiz-adv-x="1589"/><glyph d="M1124 723v-213q59 20 123 20q121 0 199 -76t78 -193t-83 -195t-210 -78q-188 0 -260 168l82 28q35 -68 73 -94t116 -24q77 0 135 57t59 141q0 84 -58 136t-130 52q-74 0 -114 -18q-40 -20 -94 -74v443h349v-80h-265zM1303 1323l-957 -1350l-59 43l956 1350zM545 614v-79 h-479l303 399q74 94 96 136q23 42 23 90t-44 83t-116 35t-106 -37t-36 -121h-84q12 233 236 234q102 0 168 -56t66 -144q0 -89 -95 -210l-252 -330h320z" glyph-name="two_slash_five.frac" horiz-adv-x="1589"/><glyph d="M1122 723v-213q59 20 125 20q121 0 199 -76t78 -194q0 -120 -83 -196t-212 -76q-188 0 -260 168l82 28q35 -68 75 -94t115 -24q76 0 135 57t60 141q0 84 -58 136t-132 52t-114 -18q-40 -20 -94 -74v443h351v-80h-267zM1303 1323l-957 -1350l-59 43l954 1350zM111 1257v80 h487l-256 -299q108 0 182 -72t74 -182t-82 -186t-194 -76q-219 0 -277 187l78 24q49 -133 182 -133q86 0 146 53q59 53 59 130t-58 126t-132 49t-138 -32l-22 26l264 305h-313z" glyph-name="three_slash_five.frac" horiz-adv-x="1589"/><glyph d="M1122 723v-213q59 20 123 20q121 0 199 -76t78 -193t-83 -195t-210 -78q-188 0 -260 168l82 28q35 -68 73 -94t116 -24q77 0 135 57t59 141q0 84 -58 136t-130 52q-74 0 -114 -18q-40 -20 -94 -74v443h348v-80h-264zM1300 1323l-954 -1350l-59 43l954 1350zM412 805v344 l-250 -344h250zM412 725h-353v57l437 604v-581h110v-80h-110v-190h-84v190z" glyph-name="four_slash_five.frac" horiz-adv-x="1589"/><glyph d="M1256 426q-79 0 -134 -50t-55 -126t55 -131t133 -55q77 0 133 52q56 54 56 130t-54 128q-55 52 -134 52zM1532 248q0 -108 -81 -185t-197 -77t-196 78t-79 190q0 72 51 147l260 402h105l-213 -316q37 12 82 13q116 0 192 -72t76 -180zM1303 1323l-955 -1350l-61 43 l956 1350zM438 535h-84v682l-204 -140v84l288 201v-827z" glyph-name="one_slash_six.frac" horiz-adv-x="1589"/><glyph d="M1254 426q-79 0 -134 -50t-55 -126t55 -131t133 -55t133 52q55 54 56 130q0 76 -54 128q-55 52 -134 52zM1530 248q0 -108 -81 -185t-197 -77t-196 78t-79 190q0 68 51 147l262 402h105l-213 -316q35 12 80 13q116 0 192 -72t76 -180zM1303 1323l-957 -1350l-59 43 l954 1350zM203 1257v-213q61 20 125 21q120 0 198 -76q78 -77 78 -195t-83 -195t-212 -77q-193 0 -260 168l82 29q27 -49 47 -70q45 -49 132 -49t147 57q59 57 59 141t-57 137q-57 52 -132 52t-115 -19t-93 -73v442h350v-80h-266z" glyph-name="five_slash_six.frac" horiz-adv-x="1589"/><glyph d="M513 1681q37 -1 61 -25t24 -60t-25 -60t-61 -25q-36 0 -60 25q-24 24 -24 60t24 60t61 25z" glyph-name="dotaccent.aalt"/><glyph d="M514 1704q-43 0 -72 -28q-28 -28 -28 -70t28 -72q28 -29 71 -29q42 0 71 29q28 29 28 71q0 43 -28 71t-70 28zM514 1755q62 0 106 -44t44 -107q0 -62 -44 -106t-106 -44t-107 43t-45 107t44 108q44 43 108 43z" glyph-name="ring.aalt"/><glyph d="M514 1649l-149 -185h-113l217 271h94l211 -271h-108z" glyph-name="circumflex.aalt"/><glyph d="M512 1585q140 0 190 113h107q-23 -94 -101 -149q-79 -54 -197 -54t-197 54q-78 55 -101 149h106q53 -113 193 -113z" glyph-name="breve.aalt"/><glyph d="M645 1493q-51 0 -129 46t-110 46q-68 0 -113 -96l-80 45q53 90 92 123t89 33t138 -50t115 -49q64 1 109 97l82 -56q-102 -139 -193 -139z" glyph-name="tilde.aalt"/><glyph d="M436 -424l-67 55q75 59 113 115t61 139l114 -43q-49 -151 -221 -266z" glyph-name="cedilla.aalt"/><glyph d="M863 -285q46 0 89 15l21 -82q-55 -20 -127 -20t-132 46q-60 47 -61 119q1 121 142 207h96q-80 -59 -111 -99q-30 -40 -30 -85t34 -73t79 -28z" glyph-name="ogonek.aalt"/><glyph d="M557 -84v-149q0 -182 -121 -220v56q68 39 66 145h-41v168h96z" glyph-name="uniF6C3.aalt"/><glyph d="M215 1348l-201 -412l-80 35l193 422z" glyph-name="glyph505" horiz-adv-x="301"/><glyph d="M648 1681q36 -1 61 -25t25 -60t-26 -60q-24 -24 -60 -25q-36 0 -60 25q-24 24 -25 60q1 36 25 60t60 25zM376 1681q36 -1 60 -25t25 -60q0 -36 -25 -60q-24 -24 -60 -25q-36 0 -61 25q-25 24 -25 60t25 61q25 24 61 24z" glyph-name="glyph506"/><glyph d="M215 1348l-201 -412l-80 35l193 422z" glyph-name="glyph507" horiz-adv-x="301"/><glyph d="M561 1200q1 32 21 54t54 22t54 -22t20 -54t-21 -53t-53 -21t-54 20t-21 54zM315 1200q1 32 21 54t54 22t54 -22t20 -54t-21 -53t-53 -21t-54 20t-21 54z" glyph-name="glyph508"/><glyph d="M162 367v-183q0 -55 4 -72t20 -34q37 -33 95 -33q117 0 116 125v219q0 55 -30 86q-31 31 -90 31t-87 -32t-28 -107zM279 559q178 0 178 -168v-221q0 -178 -178 -178q-89 0 -133 45t-44 147v185q0 94 39 142t138 48zM162 1174v-183q0 -55 4 -72t20 -34q37 -33 95 -33 q117 0 116 125v217q0 117 -116 117q-63 -1 -91 -33t-28 -104zM279 1364q178 0 178 -168v-219q0 -178 -178 -178q-89 0 -133 45t-44 147v185q0 94 39 141t138 47zM559 709v-60h-559v60h559z" glyph-name="glyph509" horiz-adv-x="559"/></font>
</defs>
</svg>
