<?xml version="1.0" encoding="UTF-8"?>
<svg width="512px" height="256px" viewBox="0 0 512 256" version="1.1" xmlns="http://www.w3.org/2000/svg" xmlns:xlink="http://www.w3.org/1999/xlink">
    <!-- Generator: Sketch 55.2 (78181) - https://sketchapp.com -->
    <title>bg-l-06</title>
    <desc>Created with Sketch.</desc>
    <g id="bg-l-06" stroke="none" stroke-width="1" fill="none" fill-rule="evenodd">
        <polygon id="Fill-15-Copy-4" fill="#FFFFFF" points="351.021228 56 351 126 417 89.8937566"></polygon>
        <path d="M135,-4 L135,256 L223.540049,256 C249.814061,256 264.572123,252.491754 277.170164,243.526237 C292.644071,232.221889 302,210.782609 302,186.614693 C302,166.734633 295.882022,150.752624 284.728156,139.838081 C277.170164,132.431784 270.690101,129.313343 256.294124,125.805097 C269.250087,121.127436 274.648059,117.61919 281.486044,110.212894 C291.566142,98.5187406 296.60619,83.7061469 296.60619,65.7751124 C296.60619,42.7766117 288.324029,22.8965517 273.570129,10.8125937 C260.972088,0.677661169 241.898146,-4 212.382022,-4 L135,-4 Z M185,37 L202.379743,37 C216.502093,37 226.638533,38.5418994 233.517578,42.0111732 C242.209543,46.6368715 248,57.8156425 248,70.9217877 C248,94.8212291 234.241909,106 204.912807,106 L185,106 L185,37 Z M185,146 L206.227117,146 C224.217327,146 231.772883,147.546961 239.328439,152.187845 C248.323544,157.98895 253,167.657459 253,181.58011 C253,193.955801 249.043319,203.237569 241.125795,209.038674 C233.932208,214.453039 226.018845,216 209.106216,216 L185,216 L185,146 Z" id="Stroke-12-Copy-8" fill="#FFFFFF"></path>
    </g>
</svg>