<?xml version="1.0" encoding="UTF-8"?>
<svg width="512px" height="256px" viewBox="0 0 512 256" version="1.1" xmlns="http://www.w3.org/2000/svg" xmlns:xlink="http://www.w3.org/1999/xlink">
    <!-- Generator: Sketch 55.2 (78181) - https://sketchapp.com -->
    <title>bg-l-02</title>
    <desc>Created with Sketch.</desc>
    <g id="bg-l-02" stroke="none" stroke-width="1" fill="none" fill-rule="evenodd">
        <path d="M440.190812,111.5 L404.5,227.5 L475.5,227.5 L440.190812,111.5 Z M388.434343,272.901616 L372.986667,321 L317,321 L405.810747,42 L471.838404,42 L538,260.851208 L501.956909,321 L487.281616,272.901616 L388.434343,272.901616 Z" id="Stroke-14-Copy-4" fill="#FFFFFF" transform="translate(427.500000, 181.500000) rotate(-360.000000) translate(-427.500000, -181.500000) "></path>
        <polygon id="Fill-15-Copy-4" fill="#FFFFFF" points="284.021228 70 284 140 350 103.893757"></polygon>
        <path d="M33,-74 L33,213 L130.553108,213 C159.50172,213 175.762099,209.127436 189.642576,199.230885 C206.691671,186.752624 217,163.086957 217,136.409295 C217,114.464768 210.259233,96.8230885 197.969945,84.7751124 C189.642576,76.5997001 182.502866,73.1574213 166.641429,69.2848576 C180.916264,64.1214393 186.863729,60.2488756 194.397797,52.0734633 C205.504012,39.1649175 211.05712,22.814093 211.05712,3.02098951 C211.05712,-22.3658171 201.931865,-44.3103448 185.67607,-57.6491754 C171.795594,-68.8365817 150.779993,-74 118.259233,-74 L33,-74 Z M87,-29 L106.310826,-29 C122.002326,-29 133.265036,-27.301676 140.90842,-23.4804469 C150.566159,-18.3854749 157,-6.0726257 157,8.36312849 C157,34.6871508 141.713232,47 109.125341,47 L87,47 L87,-29 Z M88,92 L111.100098,92 C130.67768,92 138.899902,93.7237569 147.122124,98.8950276 C156.910915,105.359116 162,116.132597 162,131.646409 C162,145.436464 157.6942,155.779006 149.078071,162.243094 C141.249755,168.276243 132.638155,170 114.233235,170 L88,170 L88,92 Z" id="Stroke-12-Copy-6" fill="#FFFFFF"></path>
    </g>
</svg>