<?xml version="1.0" encoding="UTF-8"?>
<svg width="512px" height="256px" viewBox="0 0 512 256" version="1.1" xmlns="http://www.w3.org/2000/svg" xmlns:xlink="http://www.w3.org/1999/xlink">
    <!-- Generator: Sketch 55.2 (78181) - https://sketchapp.com -->
    <title>bg-l-04</title>
    <desc>Created with Sketch.</desc>
    <g id="bg-l-04" stroke="none" stroke-width="1" fill="none" fill-rule="evenodd">
        <polygon id="Stroke-11-Copy-3" fill="#FFFFFF" transform="translate(40.500000, 180.975836) rotate(-270.000000) translate(-40.500000, -180.975836) " points="69 31 12 31 12 330.951672 69 330.951672"></polygon>
        <polygon id="Fill-15-Copy-4" fill="#FFFFFF" points="190.021228 46 190 116 256 79.8937566"></polygon>
        <path d="M286,-31 L286,256 L383.553108,256 C412.50172,256 428.762099,252.127436 442.642576,242.230885 C459.691671,229.752624 470,206.086957 470,179.409295 C470,157.464768 463.259233,139.823088 450.969945,127.775112 C442.642576,119.5997 435.502866,116.157421 419.641429,112.284858 C433.916264,107.121439 439.863729,103.248876 447.397797,95.0734633 C458.504012,82.1649175 464.05712,65.814093 464.05712,46.0209895 C464.05712,20.6341829 454.931865,-1.31034483 438.67607,-14.6491754 C424.795594,-25.8365817 403.779993,-31 371.259233,-31 L286,-31 Z M340,14 L359.310826,14 C375.002326,14 386.265036,15.698324 393.90842,19.5195531 C403.566159,24.6145251 410,36.9273743 410,51.3631285 C410,77.6871508 394.713232,90 362.125341,90 L340,90 L340,14 Z M341,135 L364.100098,135 C383.67768,135 391.899902,136.723757 400.122124,141.895028 C409.910915,148.359116 415,159.132597 415,174.646409 C415,188.436464 410.6942,198.779006 402.078071,205.243094 C394.249755,211.276243 385.638155,213 367.233235,213 L341,213 L341,135 Z" id="Stroke-12-Copy-7" fill="#FFFFFF"></path>
    </g>
</svg>