<?xml version="1.0" encoding="UTF-8"?>
<svg width="512px" height="256px" viewBox="0 0 512 256" version="1.1" xmlns="http://www.w3.org/2000/svg" xmlns:xlink="http://www.w3.org/1999/xlink">
    <!-- Generator: Sketch 55.2 (78181) - https://sketchapp.com -->
    <title>bg-l-03</title>
    <desc>Created with Sketch.</desc>
    <g id="bg-l-03" stroke="none" stroke-width="1" fill="none" fill-rule="evenodd">
        <polygon id="Stroke-11-Copy-3" fill="#FFFFFF" points="146 -71 89 -71 89 228.951672 146 228.951672"></polygon>
        <polygon id="Fill-15-Copy-4" fill="#FFFFFF" points="198.021228 128 198 198 264 161.893757"></polygon>
        <path d="M301,34 L301,321 L398.553108,321 C427.50172,321 443.762099,317.127436 457.642576,307.230885 C474.691671,294.752624 485,271.086957 485,244.409295 C485,222.464768 478.259233,204.823088 465.969945,192.775112 C457.642576,184.5997 450.502866,181.157421 434.641429,177.284858 C448.916264,172.121439 454.863729,168.248876 462.397797,160.073463 C473.504012,147.164918 479.05712,130.814093 479.05712,111.02099 C479.05712,85.6341829 469.931865,63.6896552 453.67607,50.3508246 C439.795594,39.1634183 418.779993,34 386.259233,34 L301,34 Z M355,79 L374.310826,79 C390.002326,79 401.265036,80.698324 408.90842,84.5195531 C418.566159,89.6145251 425,101.927374 425,116.363128 C425,142.687151 409.713232,155 377.125341,155 L355,155 L355,79 Z M356,200 L379.100098,200 C398.67768,200 406.899902,201.723757 415.122124,206.895028 C424.910915,213.359116 430,224.132597 430,239.646409 C430,253.436464 425.6942,263.779006 417.078071,270.243094 C409.249755,276.276243 400.638155,278 382.233235,278 L356,278 L356,200 Z" id="Stroke-12-Copy-7" fill="#FFFFFF"></path>
    </g>
</svg>