<?xml version="1.0" encoding="UTF-8"?>
<svg width="512px" height="256px" viewBox="0 0 512 256" version="1.1" xmlns="http://www.w3.org/2000/svg" xmlns:xlink="http://www.w3.org/1999/xlink">
    <!-- Generator: Sketch 55.2 (78181) - https://sketchapp.com -->
    <title>bg-l-08</title>
    <desc>Created with Sketch.</desc>
    <g id="bg-l-08" stroke="none" stroke-width="1" fill="none" fill-rule="evenodd">
        <polygon id="Fill-15-Copy-4" fill="#FFFFFF" points="371.021228 36 371 106 437 69.8937566"></polygon>
        <path d="M132,43 L132,303 L220.540049,303 C246.814061,303 261.572123,299.491754 274.170164,290.526237 C289.644071,279.221889 299,257.782609 299,233.614693 C299,213.734633 292.882022,197.752624 281.728156,186.838081 C274.170164,179.431784 267.690101,176.313343 253.294124,172.805097 C266.250087,168.127436 271.648059,164.61919 278.486044,157.212894 C288.566142,145.518741 293.60619,130.706147 293.60619,112.775112 C293.60619,89.7766117 285.324029,69.8965517 270.570129,57.8125937 C257.972088,47.6776612 238.898146,43 209.382022,43 L132,43 Z M182,84 L199.379743,84 C213.502093,84 223.638533,85.5418994 230.517578,89.0111732 C239.209543,93.6368715 245,104.815642 245,117.921788 C245,141.821229 231.241909,153 201.912807,153 L182,153 L182,84 Z M182,193 L203.227117,193 C221.217327,193 228.772883,194.546961 236.328439,199.187845 C245.323544,204.98895 250,214.657459 250,228.58011 C250,240.955801 246.043319,250.237569 238.125795,256.038674 C230.932208,261.453039 223.018845,263 206.106216,263 L182,263 L182,193 Z" id="Stroke-12-Copy-8" fill="#FFFFFF" transform="translate(215.500000, 173.000000) rotate(-90.000000) translate(-215.500000, -173.000000) "></path>
    </g>
</svg>