<?xml version="1.0" encoding="UTF-8"?>
<svg width="512px" height="256px" viewBox="0 0 512 256" version="1.1" xmlns="http://www.w3.org/2000/svg" xmlns:xlink="http://www.w3.org/1999/xlink">
    <!-- Generator: Sketch 55.2 (78181) - https://sketchapp.com -->
    <title>bg-m-06</title>
    <desc>Created with Sketch.</desc>
    <g id="bg-m-06" stroke="none" stroke-width="1" fill="none" fill-rule="evenodd">
        <path d="M158.203125,91.734375 L158.203125,292.734375 L226.596336,292.734375 C246.891831,292.734375 258.291771,290.022231 268.023192,283.091197 C279.97609,274.352066 287.203125,257.777853 287.203125,239.094195 C287.203125,223.725379 282.477261,211.370057 273.861401,202.932276 C268.023192,197.206639 263.017634,194.795844 251.897388,192.0837 C261.905288,188.467508 266.074979,185.755365 271.357015,180.029727 C279.143438,170.989248 283.036649,159.537973 283.036649,145.675904 C283.036649,127.896294 276.639052,112.527478 265.242327,103.185649 C255.510905,95.3505669 240.777142,91.734375 217.977261,91.734375 L158.203125,91.734375 Z M196.703125,122.234375 L210.220703,122.234375 C221.204753,122.234375 229.08865,123.441079 234.439019,126.156163 C241.199437,129.776274 245.703125,138.524878 245.703125,148.781861 C245.703125,167.485772 235.002387,176.234375 212.190863,176.234375 L196.703125,176.234375 L196.703125,122.234375 Z M197.203125,206.734375 L213.435626,206.734375 C227.192846,206.734375 232.970624,207.927745 238.748402,211.507856 C245.627011,215.982994 249.203125,223.441557 249.203125,234.181889 C249.203125,243.72885 246.177427,250.889071 240.122851,255.364209 C234.621872,259.541005 228.570477,260.734375 215.63729,260.734375 L197.203125,260.734375 L197.203125,206.734375 Z" id="Stroke-12-Copy-2" fill="#FFFFFF" transform="translate(222.703125, 192.234375) rotate(-360.000000) translate(-222.703125, -192.234375) "></path>
        <polygon id="Stroke-11-Copy" fill="#FFFFFF" points="119.352679 -47 80 -47 80 158 119.352679 158"></polygon>
        <polygon id="Fill-15-Copy-2" fill="#FFFFFF" points="223.013509 23 223 67 265 44.304647"></polygon>
        <path d="M403.13975,41 L377,124 L429,124 L403.13975,41 Z M368.040404,158.003685 L356.786667,193 L316,193 L380.699232,-10 L428.800828,-10 L477,149.235825 L450.742364,193 L440.051313,158.003685 L368.040404,158.003685 Z" id="Stroke-14-Copy-3" fill="#FFFFFF" transform="translate(396.500000, 91.500000) rotate(-180.000000) translate(-396.500000, -91.500000) "></path>
    </g>
</svg>