<?xml version="1.0" encoding="UTF-8"?>
<svg width="512px" height="256px" viewBox="0 0 512 256" version="1.1" xmlns="http://www.w3.org/2000/svg" xmlns:xlink="http://www.w3.org/1999/xlink">
    <!-- Generator: Sketch 55.2 (78181) - https://sketchapp.com -->
    <title>bg-m-02</title>
    <desc>Created with Sketch.</desc>
    <g id="bg-m-02" stroke="none" stroke-width="1" fill="none" fill-rule="evenodd">
        <path d="M151,93 L151,294 L219.393211,294 C239.688706,294 251.088646,291.287856 260.820067,284.356822 C272.772965,275.617691 280,259.043478 280,240.35982 C280,224.991004 275.274136,212.635682 266.658276,204.197901 C260.820067,198.472264 255.814509,196.061469 244.694263,193.349325 C254.702163,189.733133 258.871854,187.02099 264.15389,181.295352 C271.940313,172.254873 275.833524,160.803598 275.833524,146.941529 C275.833524,129.161919 269.435927,113.793103 258.039202,104.451274 C248.30778,96.6161919 233.574017,93 210.774136,93 L151,93 Z M189.5,123.5 L203.017578,123.5 C214.001628,123.5 221.885525,124.706704 227.235894,127.421788 C233.996312,131.041899 238.5,139.790503 238.5,150.047486 C238.5,168.751397 227.799262,177.5 204.987738,177.5 L189.5,177.5 L189.5,123.5 Z M190,208 L206.232501,208 C219.989721,208 225.767499,209.19337 231.545277,212.773481 C238.423886,217.248619 242,224.707182 242,235.447514 C242,244.994475 238.974302,252.154696 232.919726,256.629834 C227.418747,260.80663 221.367352,262 208.434165,262 L190,262 L190,208 Z" id="Stroke-12-Copy-2" fill="#FFFFFF"></path>
        <polygon id="Stroke-11-Copy" fill="#FFFFFF" points="104 93 61 93 61 317 104 317"></polygon>
        <path d="M380.626313,36 L357,112 L404,112 L380.626313,36 Z M348.515152,143.106806 L338.24,175 L301,175 L360.073212,-10 L403.992061,-10 L448,135.116393 L424.025636,175 L414.264242,143.106806 L348.515152,143.106806 Z" id="Stroke-14-Copy-2" fill="#FFFFFF"></path>
        <polygon id="Fill-15-Copy-2" fill="#FFFFFF" points="425.013509 193 425 237 467 214.304647"></polygon>
    </g>
</svg>