<?xml version="1.0" encoding="UTF-8"?>
<svg width="512px" height="256px" viewBox="0 0 512 256" version="1.1" xmlns="http://www.w3.org/2000/svg" xmlns:xlink="http://www.w3.org/1999/xlink">
    <!-- Generator: Sketch 55.2 (78181) - https://sketchapp.com -->
    <title>bg-m-05</title>
    <desc>Created with Sketch.</desc>
    <g id="bg-m-05" stroke="none" stroke-width="1" fill="none" fill-rule="evenodd">
        <path d="M149,-14 L149,187 L217.393211,187 C237.688706,187 249.088646,184.287856 258.820067,177.356822 C270.772965,168.617691 278,152.043478 278,133.35982 C278,117.991004 273.274136,105.635682 264.658276,97.197901 C258.820067,91.4722639 253.814509,89.0614693 242.694263,86.3493253 C252.702163,82.7331334 256.871854,80.0209895 262.15389,74.2953523 C269.940313,65.2548726 273.833524,53.8035982 273.833524,39.9415292 C273.833524,22.161919 267.435927,6.79310345 256.039202,-2.54872564 C246.30778,-10.3838081 231.574017,-14 208.774136,-14 L149,-14 Z M187.5,16.5 L201.017578,16.5 C212.001628,16.5 219.885525,17.7067039 225.235894,20.4217877 C231.996312,24.0418994 236.5,32.7905028 236.5,43.047486 C236.5,61.7513966 225.799262,70.5 202.987738,70.5 L187.5,70.5 L187.5,16.5 Z M188,101 L204.232501,101 C217.989721,101 223.767499,102.19337 229.545277,105.773481 C236.423886,110.248619 240,117.707182 240,128.447514 C240,137.994475 236.974302,145.154696 230.919726,149.629834 C225.418747,153.80663 219.367352,155 206.434165,155 L188,155 L188,101 Z" id="Stroke-12-Copy-2" fill="#FFFFFF" transform="translate(213.500000, 86.500000) rotate(-180.000000) translate(-213.500000, -86.500000) "></path>
        <polygon id="Stroke-11-Copy" fill="#FFFFFF" points="120.352679 -18 81 -18 81 187 120.352679 187"></polygon>
        <polygon id="Fill-15-Copy-2" fill="#FFFFFF" points="312.013509 165 312 209 354 186.304647"></polygon>
        <path d="M462.13975,78 L436,161 L488,161 L462.13975,78 Z M427.040404,195.003685 L415.786667,230 L375,230 L439.699232,27 L487.800828,27 L536,186.235825 L509.742364,230 L499.051313,195.003685 L427.040404,195.003685 Z" id="Stroke-14-Copy-3" fill="#FFFFFF" transform="translate(455.500000, 128.500000) rotate(-90.000000) translate(-455.500000, -128.500000) "></path>
    </g>
</svg>