<?xml version="1.0" encoding="UTF-8"?>
<svg width="512px" height="256px" viewBox="0 0 512 256" version="1.1" xmlns="http://www.w3.org/2000/svg" xmlns:xlink="http://www.w3.org/1999/xlink">
    <!-- Generator: Sketch 55.2 (78181) - https://sketchapp.com -->
    <title>bg-m-03</title>
    <desc>Created with Sketch.</desc>
    <g id="bg-m-03" stroke="none" stroke-width="1" fill="none" fill-rule="evenodd">
        <path d="M214,-17 L214,184 L282.393211,184 C302.688706,184 314.088646,181.287856 323.820067,174.356822 C335.772965,165.617691 343,149.043478 343,130.35982 C343,114.991004 338.274136,102.635682 329.658276,94.197901 C323.820067,88.4722639 318.814509,86.0614693 307.694263,83.3493253 C317.702163,79.7331334 321.871854,77.0209895 327.15389,71.2953523 C334.940313,62.2548726 338.833524,50.8035982 338.833524,36.9415292 C338.833524,19.161919 332.435927,3.79310345 321.039202,-5.54872564 C311.30778,-13.3838081 296.574017,-17 273.774136,-17 L214,-17 Z M252.5,13.5 L266.017578,13.5 C277.001628,13.5 284.885525,14.7067039 290.235894,17.4217877 C296.996312,21.0418994 301.5,29.7905028 301.5,40.047486 C301.5,58.7513966 290.799262,67.5 267.987738,67.5 L252.5,67.5 L252.5,13.5 Z M253,98 L269.232501,98 C282.989721,98 288.767499,99.1933702 294.545277,102.773481 C301.423886,107.248619 305,114.707182 305,125.447514 C305,134.994475 301.974302,142.154696 295.919726,146.629834 C290.418747,150.80663 284.367352,152 271.434165,152 L253,152 L253,98 Z" id="Stroke-12-Copy-2" fill="#FFFFFF"></path>
        <polygon id="Stroke-11-Copy" fill="#FFFFFF" points="112 83 69 83 69 307 112 307"></polygon>
        <path d="M402.626313,117 L379,193 L426,193 L402.626313,117 Z M370.515152,224.106806 L360.24,256 L323,256 L382.073212,71 L425.992061,71 L470,216.116393 L446.025636,256 L436.264242,224.106806 L370.515152,224.106806 Z" id="Stroke-14-Copy-2" fill="#FFFFFF"></path>
        <polygon id="Fill-15-Copy-2" fill="#FFFFFF" points="142.013509 150 142 194 184 171.304647"></polygon>
    </g>
</svg>