<?xml version="1.0" encoding="UTF-8"?>
<svg width="512px" height="256px" viewBox="0 0 512 256" version="1.1" xmlns="http://www.w3.org/2000/svg" xmlns:xlink="http://www.w3.org/1999/xlink">
    <!-- Generator: Sketch 55.2 (78181) - https://sketchapp.com -->
    <title>bg-m-01</title>
    <desc>Created with Sketch.</desc>
    <g id="bg-m-01" stroke="none" stroke-width="1" fill="none" fill-rule="evenodd">
        <path d="M176,92 L176,293 L244.393211,293 C264.688706,293 276.088646,290.287856 285.820067,283.356822 C297.772965,274.617691 305,258.043478 305,239.35982 C305,223.991004 300.274136,211.635682 291.658276,203.197901 C285.820067,197.472264 280.814509,195.061469 269.694263,192.349325 C279.702163,188.733133 283.871854,186.02099 289.15389,180.295352 C296.940313,171.254873 300.833524,159.803598 300.833524,145.941529 C300.833524,128.161919 294.435927,112.793103 283.039202,103.451274 C273.30778,95.6161919 258.574017,92 235.774136,92 L176,92 Z M214.5,122.5 L228.017578,122.5 C239.001628,122.5 246.885525,123.706704 252.235894,126.421788 C258.996312,130.041899 263.5,138.790503 263.5,149.047486 C263.5,167.751397 252.799262,176.5 229.987738,176.5 L214.5,176.5 L214.5,122.5 Z M215,207 L231.232501,207 C244.989721,207 250.767499,208.19337 256.545277,211.773481 C263.423886,216.248619 267,223.707182 267,234.447514 C267,243.994475 263.974302,251.154696 257.919726,255.629834 C252.418747,259.80663 246.367352,261 233.434165,261 L215,261 L215,207 Z" id="Stroke-12-Copy-2" fill="#FFFFFF" transform="translate(240.500000, 192.500000) rotate(-90.000000) translate(-240.500000, -192.500000) "></path>
        <polygon id="Stroke-11-Copy" fill="#FFFFFF" points="82 -89 38 -89 38 138 82 138"></polygon>
        <path d="M436.626313,61 L413,137 L460,137 L436.626313,61 Z M404.515152,168.106806 L394.24,200 L357,200 L416.073212,15 L459.992061,15 L504,160.116393 L480.025636,200 L470.264242,168.106806 L404.515152,168.106806 Z" id="Stroke-14-Copy-2" fill="#FFFFFF"></path>
        <polygon id="Fill-15-Copy-3" fill="#FFFFFF" points="82.0135089 162 82 206 124 183.304647"></polygon>
    </g>
</svg>