<?xml version="1.0" encoding="UTF-8"?>
<svg width="512px" height="256px" viewBox="0 0 512 256" version="1.1" xmlns="http://www.w3.org/2000/svg" xmlns:xlink="http://www.w3.org/1999/xlink">
    <!-- Generator: Sketch 55.2 (78181) - https://sketchapp.com -->
    <title>bg-m-04</title>
    <desc>Created with Sketch.</desc>
    <g id="bg-m-04" stroke="none" stroke-width="1" fill="none" fill-rule="evenodd">
        <path d="M185,-50 L185,151 L253.393211,151 C273.688706,151 285.088646,148.287856 294.820067,141.356822 C306.772965,132.617691 314,116.043478 314,97.3598201 C314,81.9910045 309.274136,69.6356822 300.658276,61.197901 C294.820067,55.4722639 289.814509,53.0614693 278.694263,50.3493253 C288.702163,46.7331334 292.871854,44.0209895 298.15389,38.2953523 C305.940313,29.2548726 309.833524,17.8035982 309.833524,3.94152924 C309.833524,-13.838081 303.435927,-29.2068966 292.039202,-38.5487256 C282.30778,-46.3838081 267.574017,-50 244.774136,-50 L185,-50 Z M223.5,-19.5 L237.017578,-19.5 C248.001628,-19.5 255.885525,-18.2932961 261.235894,-15.5782123 C267.996312,-11.9581006 272.5,-3.20949721 272.5,7.04748603 C272.5,25.7513966 261.799262,34.5 238.987738,34.5 L223.5,34.5 L223.5,-19.5 Z M224,65 L240.232501,65 C253.989721,65 259.767499,66.1933702 265.545277,69.7734807 C272.423886,74.2486188 276,81.7071823 276,92.4475138 C276,101.994475 272.974302,109.154696 266.919726,113.629834 C261.418747,117.80663 255.367352,119 242.434165,119 L224,119 L224,65 Z" id="Stroke-12-Copy-2" fill="#FFFFFF" transform="translate(249.500000, 50.500000) rotate(-270.000000) translate(-249.500000, -50.500000) "></path>
        <polygon id="Stroke-11-Copy" fill="#FFFFFF" points="127.352679 95 88 95 88 300 127.352679 300"></polygon>
        <polygon id="Fill-15-Copy-2" fill="#FFFFFF" points="173.013509 176 173 220 215 197.304647"></polygon>
        <path d="M417.13975,125 L391,208 L443,208 L417.13975,125 Z M382.040404,242.003685 L370.786667,277 L330,277 L394.699232,74 L442.800828,74 L491,233.235825 L464.742364,277 L454.051313,242.003685 L382.040404,242.003685 Z" id="Stroke-14-Copy-3" fill="#FFFFFF" transform="translate(410.500000, 175.500000) rotate(-90.000000) translate(-410.500000, -175.500000) "></path>
    </g>
</svg>