<?xml version="1.0" encoding="UTF-8"?>
<svg width="512px" height="256px" viewBox="0 0 512 256" version="1.1" xmlns="http://www.w3.org/2000/svg" xmlns:xlink="http://www.w3.org/1999/xlink">
    <!-- Generator: Sketch 55.2 (78181) - https://sketchapp.com -->
    <title>bg-s-01</title>
    <desc>Created with Sketch.</desc>
    <g id="bg-s-01" stroke="none" stroke-width="1" fill="none" fill-rule="evenodd">
        <path d="M194,109.1133 L194,268.1133 L247.548173,268.1133 C263.438444,268.1133 272.363978,265.967873 279.983153,260.485115 C289.341624,253.572071 295,240.461127 295,225.681516 C295,213.524095 291.299905,203.750482 284.554154,197.075819 C279.983153,192.546584 276.064073,190.639537 267.357524,188.49411 C275.193167,185.63354 278.457808,183.488113 282.593356,178.958878 C288.689702,171.807453 291.737876,162.748983 291.737876,151.783465 C291.737876,137.718998 286.728904,125.561576 277.805886,118.171771 C270.186712,111.97387 258.650974,109.1133 240.799905,109.1133 L194,109.1133 Z M224,135.1133 L234.758889,135.1133 C243.501296,135.1133 249.776234,136.029502 254.034691,138.090954 C259.415432,140.839557 263,147.482016 263,155.269725 C263,169.470842 254.483086,176.1133 236.326975,176.1133 L224,176.1133 L224,135.1133 Z M225,200.1133 L237.486539,200.1133 C248.069016,200.1133 252.513461,201.085676 256.957905,204.002803 C262.249143,207.649212 265,213.72656 265,222.477941 C265,230.256947 262.67254,236.091201 258.015174,239.73761 C253.783651,243.140925 249.128732,244.1133 239.180127,244.1133 L225,244.1133 L225,200.1133 Z" id="Stroke-12-Copy-5" fill="#FFFFFF" transform="translate(244.500000, 188.394089) rotate(-270.000000) translate(-244.500000, -188.394089) "></path>
        <path d="M329.895453,23 L310.29064,85 L349.29064,85 L329.895453,23 Z M302.048216,111.451071 L293.45064,138 L262.29064,138 L311.719246,-16 L348.467671,-16 L385.29064,104.799592 L365.230459,138 L357.062762,111.451071 L302.048216,111.451071 Z" id="Stroke-14-Copy-5" fill="#FFFFFF" transform="translate(323.502463, 61.000000) rotate(-360.000000) translate(-323.502463, -61.000000) "></path>
        <polygon id="Stroke-11-Copy-4" fill="#FFFFFF" points="115 49 84 49 84 206.669951 115 206.669951"></polygon>
        <polygon id="Fill-15-Copy-3" fill="#FFFFFF" points="210.011257 49 210 86 245 66.9152713"></polygon>
    </g>
</svg>