<?xml version="1.0" encoding="UTF-8"?>
<svg width="512px" height="256px" viewBox="0 0 512 256" version="1.1" xmlns="http://www.w3.org/2000/svg" xmlns:xlink="http://www.w3.org/1999/xlink">
    <!-- Generator: Sketch 55.2 (78181) - https://sketchapp.com -->
    <title>bg-s-04</title>
    <desc>Created with Sketch.</desc>
    <g id="bg-s-04" stroke="none" stroke-width="1" fill="none" fill-rule="evenodd">
        <path d="M409.895453,125.502463 L390.29064,187.502463 L429.29064,187.502463 L409.895453,125.502463 Z M382.048216,213.953534 L373.45064,240.502463 L342.29064,240.502463 L391.719246,86.5024631 L428.467671,86.5024631 L465.29064,207.302055 L445.230459,240.502463 L437.062762,213.953534 L382.048216,213.953534 Z" id="Stroke-14-Copy-5" fill="#FFFFFF" transform="translate(403.502463, 163.502463) rotate(-270.000000) translate(-403.502463, -163.502463) "></path>
        <polygon id="Stroke-11-Copy-4" fill="#FFFFFF" transform="translate(308.834975, 48.834975) rotate(-270.000000) translate(-308.834975, -48.834975) " points="324.334975 -30 293.334975 -30 293.334975 127.669951 324.334975 127.669951"></polygon>
        <polygon id="Fill-15-Copy-3" fill="#FFFFFF" points="230.346233 127 230.334975 164 265.334975 144.915271"></polygon>
        <path d="M57,48.1133005 L57,207.1133 L110.548173,207.1133 C126.438444,207.1133 135.363978,204.967873 142.983153,199.485115 C152.341624,192.572071 158,179.461127 158,164.681516 C158,152.524095 154.299905,142.750482 147.554154,136.075819 C142.983153,131.546584 139.064073,129.639537 130.357524,127.49411 C138.193167,124.63354 141.457808,122.488113 145.593356,117.958878 C151.689702,110.807453 154.737876,101.748983 154.737876,90.7834654 C154.737876,76.7189976 149.728904,64.5615764 140.805886,57.1717713 C133.186712,50.9738702 121.650974,48.1133005 103.799905,48.1133005 L57,48.1133005 Z M87,74.1133005 L97.7588888,74.1133005 C106.501296,74.1133005 112.776234,75.0295016 117.034691,77.0909541 C122.415432,79.8395575 126,86.4820156 126,94.2697251 C126,108.470842 117.483086,115.1133 99.3269755,115.1133 L87,115.1133 L87,74.1133005 Z M88,139.1133 L100.486539,139.1133 C111.069016,139.1133 115.513461,140.085676 119.957905,143.002803 C125.249143,146.649212 128,152.72656 128,161.477941 C128,169.256947 125.67254,175.091201 121.015174,178.73761 C116.783651,182.140925 112.128732,183.1133 102.180127,183.1133 L88,183.1133 L88,139.1133 Z" id="Stroke-12-Copy-5" fill="#FFFFFF" transform="translate(107.500000, 127.394089) rotate(-90.000000) translate(-107.500000, -127.394089) "></path>
    </g>
</svg>