<?xml version="1.0" encoding="UTF-8"?>
<svg width="512px" height="256px" viewBox="0 0 512 256" version="1.1" xmlns="http://www.w3.org/2000/svg" xmlns:xlink="http://www.w3.org/1999/xlink">
    <!-- Generator: Sketch 55.2 (78181) - https://sketchapp.com -->
    <title>bg-s-02</title>
    <desc>Created with Sketch.</desc>
    <g id="bg-s-02" stroke="none" stroke-width="1" fill="none" fill-rule="evenodd">
        <path d="M155,99.1133005 L155,258.1133 L208.548173,258.1133 C224.438444,258.1133 233.363978,255.967873 240.983153,250.485115 C250.341624,243.572071 256,230.461127 256,215.681516 C256,203.524095 252.299905,193.750482 245.554154,187.075819 C240.983153,182.546584 237.064073,180.639537 228.357524,178.49411 C236.193167,175.63354 239.457808,173.488113 243.593356,168.958878 C249.689702,161.807453 252.737876,152.748983 252.737876,141.783465 C252.737876,127.718998 247.728904,115.561576 238.805886,108.171771 C231.186712,101.97387 219.650974,99.1133005 201.799905,99.1133005 L155,99.1133005 Z M185,125.1133 L195.758889,125.1133 C204.501296,125.1133 210.776234,126.029502 215.034691,128.090954 C220.415432,130.839557 224,137.482016 224,145.269725 C224,159.470842 215.483086,166.1133 197.326975,166.1133 L185,166.1133 L185,125.1133 Z M186,190.1133 L198.486539,190.1133 C209.069016,190.1133 213.513461,191.085676 217.957905,194.002803 C223.249143,197.649212 226,203.72656 226,212.477941 C226,220.256947 223.67254,226.091201 219.015174,229.73761 C214.783651,233.140925 210.128732,234.1133 200.180127,234.1133 L186,234.1133 L186,190.1133 Z" id="Stroke-12-Copy-5" fill="#FFFFFF" transform="translate(205.500000, 178.394089) rotate(-90.000000) translate(-205.500000, -178.394089) "></path>
        <path d="M402.895453,76 L383.29064,138 L422.29064,138 L402.895453,76 Z M375.048216,164.451071 L366.45064,191 L335.29064,191 L384.719246,37 L421.467671,37 L458.29064,157.799592 L438.230459,191 L430.062762,164.451071 L375.048216,164.451071 Z" id="Stroke-14-Copy-5" fill="#FFFFFF" transform="translate(396.502463, 114.000000) rotate(-180.000000) translate(-396.502463, -114.000000) "></path>
        <polygon id="Stroke-11-Copy-4" fill="#FFFFFF" transform="translate(140.834975, 88.834975) rotate(-270.000000) translate(-140.834975, -88.834975) " points="156.334975 10 125.334975 10 125.334975 167.669951 156.334975 167.669951"></polygon>
        <polygon id="Fill-15-Copy-3" fill="#FFFFFF" points="270.346233 36 270.334975 73 305.334975 53.9152713"></polygon>
    </g>
</svg>