<?xml version="1.0" encoding="UTF-8"?>
<svg width="512px" height="256px" viewBox="0 0 512 256" version="1.1" xmlns="http://www.w3.org/2000/svg" xmlns:xlink="http://www.w3.org/1999/xlink">
    <!-- Generator: Sketch 55.2 (78181) - https://sketchapp.com -->
    <title>bg-s-03</title>
    <desc>Created with Sketch.</desc>
    <g id="bg-s-03" stroke="none" stroke-width="1" fill="none" fill-rule="evenodd">
        <path d="M181,-30.8866995 L181,128.1133 L234.548173,128.1133 C250.438444,128.1133 259.363978,125.967873 266.983153,120.485115 C276.341624,113.572071 282,100.461127 282,85.6815164 C282,73.5240951 278.299905,63.7504819 271.554154,57.0758192 C266.983153,52.5465839 263.064073,50.6395374 254.357524,48.4941101 C262.193167,45.6335404 265.457808,43.4881131 269.593356,38.9588777 C275.689702,31.8074534 278.737876,22.7489827 278.737876,11.7834654 C278.737876,-2.28100236 273.728904,-14.4384236 264.805886,-21.8282287 C257.186712,-28.0261298 245.650974,-30.8866995 227.799905,-30.8866995 L181,-30.8866995 Z M211,-4.88669951 L221.758889,-4.88669951 C230.501296,-4.88669951 236.776234,-3.97049839 241.034691,-1.90904588 C246.415432,0.839557476 250,7.48201558 250,15.2697251 C250,29.4708424 241.483086,36.1133005 223.326975,36.1133005 L211,36.1133005 L211,-4.88669951 Z M212,60.1133005 L224.486539,60.1133005 C235.069016,60.1133005 239.513461,61.0856762 243.957905,64.0028033 C249.249143,67.6492121 252,73.7265602 252,82.4779414 C252,90.2569469 249.67254,96.091201 245.015174,99.7376099 C240.783651,103.140925 236.128732,104.1133 226.180127,104.1133 L212,104.1133 L212,60.1133005 Z" id="Stroke-12-Copy-5" fill="#FFFFFF"></path>
        <path d="M403.895453,118 L384.29064,180 L423.29064,180 L403.895453,118 Z M376.048216,206.451071 L367.45064,233 L336.29064,233 L385.719246,79 L422.467671,79 L459.29064,199.799592 L439.230459,233 L431.062762,206.451071 L376.048216,206.451071 Z" id="Stroke-14-Copy-5" fill="#FFFFFF" transform="translate(397.502463, 156.000000) rotate(-90.000000) translate(-397.502463, -156.000000) "></path>
        <polygon id="Stroke-11-Copy-4" fill="#FFFFFF" transform="translate(152.500000, 191.834975) rotate(-270.000000) translate(-152.500000, -191.834975) " points="168 113 137 113 137 270.669951 168 270.669951"></polygon>
        <polygon id="Fill-15-Copy-3" fill="#FFFFFF" points="321.011257 49 321 86 356 66.9152713"></polygon>
    </g>
</svg>