<?xml version="1.0" encoding="UTF-8"?>
<svg width="512px" height="256px" viewBox="0 0 512 256" version="1.1" xmlns="http://www.w3.org/2000/svg" xmlns:xlink="http://www.w3.org/1999/xlink">
    <!-- Generator: Sketch 55.1 (78136) - https://sketchapp.com -->
    <title>Artboard</title>
    <desc>Created with Sketch.</desc>
    <g id="Artboard" stroke="none" stroke-width="1" fill="none" fill-rule="evenodd">
        <g id="Group-4-Copy" transform="translate(33.000000, 0.000000)" fill="#FFFFFF">
            <polygon id="Stroke-11" points="44 0 0 0 0 101 44 101"></polygon>
            <path d="M132,87 L132,294 L201.453571,294 C222.063724,294 233.640408,291.206897 243.522703,284.068966 C255.660918,275.068966 263,258 263,238.758621 C263,222.931034 258.200867,210.206897 249.451428,201.517241 C243.522703,195.62069 238.43954,193.137931 227.146887,190.344828 C237.309949,186.62069 241.544286,183.827586 246.908214,177.931034 C254.815357,168.62069 258.768928,156.827586 258.768928,142.551724 C258.768928,124.241379 252.272143,108.413793 240.698724,98.7931034 C230.816428,90.7241379 215.854234,87 192.700867,87 L132,87 Z M172,118 L185.793447,118 C197.001661,118 205.046454,119.251397 210.506014,122.067039 C217.4044,125.821229 222,134.893855 222,145.530726 C222,164.927374 211.08088,174 187.803815,174 L172,174 L172,118 Z M171.5,206.5 L188.044665,206.5 C202.066446,206.5 207.955335,207.737569 213.844224,211.450276 C220.855115,216.09116 224.5,223.825967 224.5,234.964088 C224.5,244.864641 221.416116,252.290055 215.245105,256.930939 C209.638338,261.262431 203.47057,262.5 190.288669,262.5 L171.5,262.5 L171.5,206.5 Z" id="Stroke-12" transform="translate(197.500000, 190.500000) rotate(-90.000000) translate(-197.500000, -190.500000) "></path>
            <path d="M402.631687,78 L378,155 L427,155 L402.631687,78 Z M369.808081,188.417224 L359.253333,221 L321,221 L381.680646,32 L426.794566,32 L472,180.254044 L447.373273,221 L437.346263,188.417224 L369.808081,188.417224 Z" id="Stroke-14"></path>
            <polygon id="Fill-15" points="47.0147955 118 47 168 93 142.209826"></polygon>
        </g>
    </g>
</svg>